<svg width="960" height="464" viewBox="0 0 960 464" fill="none" xmlns="http://www.w3.org/2000/svg">
<path d="M43.8894 257.632C32.9724 257.632 24.7108 256.157 19.1048 253.206C13.7938 250.256 10.2532 246.862 8.48282 243.027C6.7125 239.191 5.82733 235.798 5.82733 232.847C5.82733 229.897 5.82733 228.422 5.82733 228.422L0.516345 36.3409C0.516345 36.3409 0.368819 34.8656 0.0737638 31.9151C-0.221291 28.9645 0.368817 25.5714 1.84409 21.7357C3.31936 17.6049 6.41744 14.0643 11.1383 11.1137C15.8592 7.86812 23.2356 6.24532 33.2674 6.24532C46.5449 5.95027 56.5767 7.86813 63.363 11.9989C70.1493 15.8346 74.5751 19.8178 76.6405 23.9486C79.0009 27.7843 80.1811 29.7022 80.1811 29.7022L131.078 122.202C131.078 122.202 132.258 119.546 134.619 114.235C137.274 108.629 140.372 101.696 143.913 93.434C147.749 85.1725 151.584 76.7634 155.42 68.2068C159.256 59.6502 162.649 52.2739 165.6 46.0777C168.55 39.5865 170.468 35.4557 171.353 33.6854C172.828 30.7349 175.484 26.7516 179.32 21.7357C183.155 16.4247 188.614 11.5563 195.695 7.13048C203.071 2.70466 212.661 0.344226 224.463 0.0491748C233.315 -0.245876 240.101 0.786811 244.822 3.14724C249.543 5.21263 252.788 7.7206 254.559 10.6711C256.624 13.6217 257.804 16.2772 258.099 18.6376C258.394 20.9981 258.542 22.1783 258.542 22.1783C258.542 22.1783 258.542 26.014 258.542 33.6854C258.542 41.0618 258.542 50.9461 258.542 63.3384C258.837 75.7307 258.984 89.3032 258.984 104.056C258.984 118.809 258.984 133.709 258.984 148.757C258.984 163.51 258.984 177.082 258.984 189.474C259.279 201.867 259.427 211.898 259.427 219.57C259.427 227.241 259.427 231.225 259.427 231.52C259.427 231.815 259.279 233.29 258.984 235.945C258.984 238.601 257.952 241.699 255.886 245.24C253.821 248.485 250.133 251.436 244.822 254.091C239.806 256.452 232.282 257.632 222.25 257.632C212.218 257.632 204.547 256.599 199.236 254.534C194.22 252.173 190.679 249.665 188.614 247.01C186.548 244.059 185.368 241.551 185.073 239.486C184.778 237.421 184.631 236.388 184.631 236.388C184.631 236.388 184.631 233.88 184.631 228.864C184.631 223.553 184.631 217.062 184.631 209.391C184.926 201.424 185.073 193.605 185.073 185.934C185.368 177.967 185.516 171.328 185.516 166.017C185.516 160.706 185.516 158.051 185.516 158.051L189.056 94.7617L166.042 143.888C166.042 143.888 165.157 145.511 163.387 148.757C161.911 152.002 158.961 155.248 154.535 158.494C150.109 161.739 143.47 163.51 134.619 163.805C126.062 164.1 119.276 162.919 114.26 160.264C109.539 157.313 106.146 154.51 104.081 151.855C102.31 148.904 101.425 147.429 101.425 147.429L72.6572 94.7617C72.6572 94.7617 72.8048 98.3024 73.0998 105.384C73.6899 112.17 74.28 121.169 74.8701 132.381C75.4602 143.298 76.0504 154.953 76.6405 167.345C77.2306 179.442 77.6732 190.95 77.9682 201.867C78.5583 212.489 79.0009 221.045 79.296 227.536C79.591 235.503 77.9682 241.699 74.4275 246.125C70.8869 250.256 66.7561 253.206 62.0353 254.976C57.3144 256.452 53.0361 257.337 49.2004 257.632C45.6597 257.632 43.8894 257.632 43.8894 257.632Z" fill="white"/>
<path d="M319.504 1.81951C319.504 1.81951 321.422 2.11456 325.258 2.70466C329.093 2.99971 333.371 4.32746 338.092 6.6879C343.108 8.75329 347.387 12.589 350.927 18.195C354.468 23.506 355.943 31.325 355.353 41.6519C355.058 48.4381 354.615 57.5848 354.025 69.092C353.73 80.3041 353.583 92.6964 353.583 106.269C353.583 119.546 353.878 132.824 354.468 146.101C355.353 159.379 356.681 171.623 358.451 182.836C360.516 194.048 363.172 203.047 366.418 209.833C369.958 216.324 374.236 219.422 379.252 219.127C384.563 218.832 388.547 215.292 391.202 208.505C393.858 201.424 395.628 192.572 396.513 181.95C397.398 171.033 397.693 159.526 397.398 147.429C397.103 135.332 396.513 123.825 395.628 112.908C394.743 101.696 393.858 92.5488 392.972 85.4675C392.382 78.0911 391.94 73.9604 391.645 73.0752C391.35 71.895 390.907 69.387 390.317 65.5513C389.727 61.7156 390.022 57.5848 391.202 53.159C392.382 48.7332 395.333 44.75 400.054 41.2093C405.07 37.6686 412.889 35.4557 423.511 34.5706C434.133 33.6854 442.394 35.0132 448.295 38.5538C454.196 42.0945 458.327 46.3728 460.688 51.3887C463.343 56.4046 464.818 60.8304 465.113 64.6662C465.703 68.5019 465.999 70.4197 465.999 70.4197C465.999 70.4197 466.441 73.8129 467.326 80.5991C468.506 87.3854 469.392 96.3845 469.982 107.597C470.867 118.514 470.867 130.611 469.982 143.888C469.392 157.166 467.474 170.591 464.228 184.163C461.278 197.441 456.409 209.686 449.623 220.898C442.837 231.815 433.69 240.666 422.183 247.453C410.676 254.239 396.218 257.632 378.81 257.632C361.402 257.632 346.649 254.091 334.552 247.01C322.749 239.634 313.013 230.044 305.341 218.242C297.965 206.145 292.211 192.72 288.081 177.967C284.245 163.214 281.589 148.167 280.114 132.824C278.934 117.186 278.344 102.433 278.344 88.5656C278.639 74.698 279.081 62.6008 279.672 52.2739C280.557 41.9469 281.147 34.5706 281.442 30.1448C282.032 22.4733 284.245 16.7198 288.081 12.884C291.916 8.75328 296.195 5.95026 300.916 4.47499C305.931 2.99972 310.21 2.26208 313.75 2.26208C317.586 1.96703 319.504 1.81951 319.504 1.81951Z" fill="white"/>
<path d="M532.286 257.632C521.368 257.632 513.107 256.157 507.501 253.206C502.19 250.256 498.649 246.862 496.879 243.027C495.109 239.191 494.223 235.798 494.223 232.847C494.223 229.897 494.223 228.422 494.223 228.422L488.912 36.3409C488.912 36.3409 488.765 34.8656 488.47 31.9151C488.175 28.9645 488.765 25.5714 490.24 21.7357C491.715 17.6049 494.814 14.0643 499.534 11.1137C504.255 7.86812 511.632 6.24532 521.664 6.24532C534.941 5.95027 544.973 7.86813 551.759 11.9989C558.545 15.8346 562.971 19.8178 565.037 23.9486C567.397 27.7843 568.577 29.7022 568.577 29.7022L619.474 122.202C619.474 122.202 620.654 119.546 623.015 114.235C625.67 108.629 628.768 101.696 632.309 93.434C636.145 85.1725 639.981 76.7634 643.816 68.2068C647.652 59.6502 651.045 52.2739 653.996 46.0777C656.946 39.5865 658.864 35.4557 659.749 33.6854C661.224 30.7349 663.88 26.7516 667.716 21.7357C671.551 16.4247 677.01 11.5563 684.091 7.13048C691.468 2.70466 701.057 0.344226 712.859 0.0491748C721.711 -0.245876 728.497 0.786811 733.218 3.14724C737.939 5.21263 741.184 7.7206 742.955 10.6711C745.02 13.6217 746.2 16.2772 746.495 18.6376C746.79 20.9981 746.938 22.1783 746.938 22.1783C746.938 22.1783 746.938 26.014 746.938 33.6854C746.938 41.0618 746.938 50.9461 746.938 63.3384C747.233 75.7307 747.38 89.3032 747.38 104.056C747.38 118.809 747.38 133.709 747.38 148.757C747.38 163.51 747.38 177.082 747.38 189.474C747.676 201.867 747.823 211.898 747.823 219.57C747.823 227.241 747.823 231.225 747.823 231.52C747.823 231.815 747.676 233.29 747.38 235.945C747.38 238.601 746.348 241.699 744.282 245.24C742.217 248.485 738.529 251.436 733.218 254.091C728.202 256.452 720.678 257.632 710.646 257.632C700.614 257.632 692.943 256.599 687.632 254.534C682.616 252.173 679.075 249.665 677.01 247.01C674.945 244.059 673.764 241.551 673.469 239.486C673.174 237.421 673.027 236.388 673.027 236.388C673.027 236.388 673.027 233.88 673.027 228.864C673.027 223.553 673.027 217.062 673.027 209.391C673.322 201.424 673.469 193.605 673.469 185.934C673.764 177.967 673.912 171.328 673.912 166.017C673.912 160.706 673.912 158.051 673.912 158.051L677.453 94.7617L654.438 143.888C654.438 143.888 653.553 145.511 651.783 148.757C650.307 152.002 647.357 155.248 642.931 158.494C638.505 161.739 631.866 163.51 623.015 163.805C614.458 164.1 607.672 162.919 602.656 160.264C597.935 157.313 594.542 154.51 592.477 151.855C590.706 148.904 589.821 147.429 589.821 147.429L561.053 94.7617C561.053 94.7617 561.201 98.3024 561.496 105.384C562.086 112.17 562.676 121.169 563.266 132.381C563.856 143.298 564.446 154.953 565.037 167.345C565.627 179.442 566.069 190.95 566.364 201.867C566.954 212.489 567.397 221.045 567.692 227.536C567.987 235.503 566.364 241.699 562.824 246.125C559.283 250.256 555.152 253.206 550.431 254.976C545.71 256.452 541.432 257.337 537.597 257.632C534.056 257.632 532.286 257.632 532.286 257.632Z" fill="white"/>
<path d="M807.9 1.81951C807.9 1.81951 809.818 2.11456 813.654 2.70466C817.49 2.99971 821.768 4.32746 826.489 6.6879C831.505 8.75329 835.783 12.589 839.324 18.195C842.864 23.506 844.34 31.325 843.749 41.6519C843.454 48.4381 843.012 57.5848 842.422 69.092C842.126 80.3041 841.979 92.6964 841.979 106.269C841.979 119.546 842.274 132.824 842.864 146.101C843.749 159.379 845.077 171.623 846.847 182.836C848.913 194.048 851.568 203.047 854.814 209.833C858.355 216.324 862.633 219.422 867.649 219.127C872.96 218.832 876.943 215.292 879.598 208.505C882.254 201.424 884.024 192.572 884.909 181.95C885.795 171.033 886.09 159.526 885.795 147.429C885.5 135.332 884.909 123.825 884.024 112.908C883.139 101.696 882.254 92.5488 881.369 85.4675C880.779 78.0911 880.336 73.9604 880.041 73.0752C879.746 71.895 879.304 69.387 878.713 65.5513C878.123 61.7156 878.418 57.5848 879.598 53.159C880.779 48.7332 883.729 44.75 888.45 41.2093C893.466 37.6686 901.285 35.4557 911.907 34.5706C922.529 33.6854 930.79 35.0132 936.692 38.5538C942.593 42.0945 946.723 46.3728 949.084 51.3887C951.739 56.4046 953.215 60.8304 953.51 64.6662C954.1 68.5019 954.395 70.4197 954.395 70.4197C954.395 70.4197 954.837 73.8129 955.723 80.5991C956.903 87.3854 957.788 96.3845 958.378 107.597C959.263 118.514 959.263 130.611 958.378 143.888C957.788 157.166 955.87 170.591 952.625 184.163C949.674 197.441 944.806 209.686 938.019 220.898C931.233 231.815 922.086 240.666 910.579 247.453C899.072 254.239 884.614 257.632 867.206 257.632C849.798 257.632 835.045 254.091 822.948 247.01C811.146 239.634 801.409 230.044 793.738 218.242C786.361 206.145 780.608 192.72 776.477 177.967C772.641 163.214 769.986 148.167 768.51 132.824C767.33 117.186 766.74 102.433 766.74 88.5656C767.035 74.698 767.478 62.6008 768.068 52.2739C768.953 41.9469 769.543 34.5706 769.838 30.1448C770.428 22.4733 772.641 16.7198 776.477 12.884C780.313 8.75328 784.591 5.95026 789.312 4.47499C794.328 2.99972 798.606 2.26208 802.147 2.26208C805.982 1.96703 807.9 1.81951 807.9 1.81951Z" fill="white"/>
<path d="M84.5188 349.573C82.4719 349.888 79.559 350.124 75.7801 350.281C72.0012 350.281 68.1436 350.045 64.2072 349.573C60.2709 349.1 56.8856 348.234 54.0514 346.975C51.2172 345.558 49.6427 343.511 49.3278 340.834C49.1703 338.157 49.9576 336.032 51.6896 334.457C53.5791 332.883 55.7834 331.702 58.3027 330.914C60.8219 329.97 63.0263 329.419 64.9158 329.261C66.9627 328.946 67.9861 328.789 67.9861 328.789L134.117 322.648C134.117 322.648 135.219 322.648 137.423 322.648C139.628 322.491 142.147 322.569 144.981 322.884C147.973 323.199 150.65 323.986 153.011 325.246C155.373 326.348 156.633 328.159 156.79 330.678C157.105 333.197 156.318 335.323 154.428 337.055C152.696 338.63 150.571 339.968 148.052 341.07C145.532 342.015 143.328 342.723 141.439 343.196C139.549 343.511 138.604 343.668 138.604 343.668L123.489 346.03C124.119 349.966 124.827 355.556 125.614 362.799C126.402 369.884 127.189 377.757 127.976 386.417C128.763 395.077 129.472 403.579 130.102 411.925C130.732 420.27 131.204 427.749 131.519 434.362C131.991 440.975 132.227 445.698 132.227 448.533C132.227 452.154 131.204 454.91 129.157 456.799C127.268 458.531 124.985 459.791 122.308 460.578C119.789 461.208 117.505 461.601 115.459 461.759C113.569 461.759 112.624 461.759 112.624 461.759C112.624 461.759 111.601 461.759 109.554 461.759C107.507 461.601 105.145 460.972 102.469 459.869C99.9493 458.767 97.6662 456.72 95.6193 453.729C93.7299 450.737 92.7851 446.25 92.7851 440.266C92.7851 434.913 92.4702 428.378 91.8404 420.663C91.3681 412.948 90.7382 404.997 89.951 396.809C89.1637 388.464 88.2977 380.749 87.353 373.663C86.5657 366.578 85.8572 360.831 85.2274 356.422C84.755 351.856 84.5188 349.573 84.5188 349.573Z" fill="white"/>
<path d="M172.889 448.769L168.402 337.291C168.402 337.291 168.402 336.661 168.402 335.402C168.559 334.142 169.11 332.725 170.055 331.151C171 329.419 172.732 327.923 175.251 326.663C177.928 325.246 181.786 324.459 186.824 324.301C193.595 323.986 198.397 324.774 201.231 326.663C204.223 328.395 206.033 330.285 206.663 332.331C207.451 334.221 207.844 335.244 207.844 335.402C207.844 335.559 207.923 337.37 208.08 340.834C208.238 344.298 208.395 348.549 208.553 353.588C208.71 358.626 208.868 363.665 209.025 368.703C209.183 373.742 209.34 377.993 209.497 381.457C209.655 384.764 209.734 386.417 209.734 386.417L234.769 385L230.99 337.527C230.99 337.527 230.911 336.976 230.754 335.874C230.754 334.615 231.069 333.197 231.699 331.623C232.486 329.891 234.06 328.316 236.422 326.899C238.941 325.325 242.642 324.301 247.523 323.829C252.561 323.357 256.419 323.671 259.096 324.774C261.772 325.718 263.74 326.978 265 328.553C266.26 330.127 266.968 331.544 267.126 332.804C267.441 334.063 267.598 334.693 267.598 334.693L274.92 444.99C274.92 444.99 274.998 445.856 275.156 447.588C275.313 449.162 275.077 451.131 274.447 453.492C273.818 455.697 272.243 457.665 269.724 459.397C267.362 460.972 263.662 461.759 258.623 461.759C253.585 461.759 249.648 461.05 246.814 459.633C243.98 458.216 241.933 456.642 240.673 454.91C239.414 453.02 238.627 451.367 238.312 449.95C237.997 448.533 237.839 447.824 237.839 447.824L236.186 402.477L210.442 403.894L212.568 450.186C212.568 450.186 212.489 450.816 212.332 452.075C212.174 453.178 211.544 454.516 210.442 456.09C209.34 457.508 207.451 458.846 204.774 460.106C202.097 461.208 198.161 461.759 192.965 461.759C187.769 461.759 183.754 461.129 180.92 459.869C178.243 458.452 176.353 456.956 175.251 455.382C174.149 453.65 173.44 452.154 173.126 450.894C172.968 449.477 172.889 448.769 172.889 448.769Z" fill="white"/>
<path d="M285.559 342.015C285.559 342.015 285.401 341.385 285.087 340.125C284.772 338.708 284.85 337.055 285.323 335.166C285.953 333.276 287.37 331.544 289.574 329.97C291.936 328.395 295.636 327.372 300.675 326.899C305.713 326.427 311.381 326.033 317.68 325.718C324.135 325.403 330.276 325.089 336.102 324.774C342.085 324.459 346.966 324.223 350.745 324.065C354.524 323.908 356.413 323.829 356.413 323.829C356.413 323.829 357.437 323.908 359.484 324.065C361.688 324.065 364.207 324.38 367.042 325.01C370.033 325.482 372.71 326.506 375.072 328.08C377.433 329.497 378.851 331.623 379.323 334.457C379.795 337.291 379.244 339.496 377.67 341.07C376.095 342.645 374.206 343.826 372.001 344.613C369.797 345.243 367.829 345.636 366.097 345.794C364.365 345.951 363.499 346.03 363.499 346.03L325.71 348.156C325.71 348.156 325.946 349.179 326.418 351.226C326.891 353.273 327.363 355.635 327.835 358.311C328.465 360.831 328.859 363.035 329.016 364.924C329.174 366.656 329.331 368.94 329.489 371.774C329.646 374.45 329.804 376.891 329.961 379.095C330.118 381.142 330.197 382.166 330.197 382.166H347.675C347.675 382.166 348.541 382.244 350.273 382.402C352.005 382.402 353.973 382.717 356.177 383.347C358.539 383.819 360.586 384.606 362.318 385.708C364.05 386.811 364.995 388.464 365.152 390.668C365.309 393.502 364.207 395.628 361.846 397.045C359.641 398.462 357.279 399.407 354.76 399.879C352.398 400.194 350.902 400.43 350.273 400.588C349.8 400.588 348.541 400.667 346.494 400.824C344.447 400.824 342.164 400.824 339.644 400.824C337.283 400.824 335.157 400.824 333.268 400.824C331.378 400.824 330.433 400.824 330.433 400.824C330.433 400.824 330.433 402.005 330.433 404.367C330.591 406.571 330.748 409.169 330.906 412.161C331.063 415.152 331.063 417.75 330.906 419.955C330.906 422.002 330.827 424.521 330.67 427.513C330.512 430.347 330.355 432.866 330.197 435.07C330.04 437.117 329.961 438.141 329.961 438.141L361.846 436.96C361.846 436.96 362.869 436.96 364.916 436.96C366.963 436.802 369.403 436.96 372.237 437.432C375.072 437.904 377.591 438.849 379.795 440.266C382 441.683 383.181 443.809 383.338 446.643C383.653 449.477 382.866 451.76 380.976 453.492C379.087 455.224 376.882 456.484 374.363 457.271C371.844 458.059 369.561 458.61 367.514 458.925C365.624 459.082 364.68 459.161 364.68 459.161L313.665 461.759C313.665 461.759 312.405 461.759 309.886 461.759C307.524 461.916 304.768 461.759 301.619 461.286C298.47 460.657 295.715 459.476 293.353 457.744C290.991 455.854 289.889 453.02 290.046 449.241C290.361 444.203 290.676 436.33 290.991 425.623C291.306 414.759 291.149 402.084 290.519 387.598C289.889 373.112 288.236 357.918 285.559 342.015Z" fill="white"/>
<path d="M463.119 449.005C463.119 449.005 462.962 446.801 462.647 442.392C462.489 437.983 462.175 432.315 461.702 425.387C461.387 418.459 460.994 411.059 460.521 403.186C460.049 395.156 459.577 387.519 459.104 380.276C458.789 372.876 458.553 366.735 458.396 361.854C458.238 356.816 458.159 353.824 458.159 352.879C458.474 350.202 458.711 348.077 458.868 346.502C459.183 344.77 459.97 343.589 461.23 342.96C462.175 342.487 462.411 341.857 461.938 341.07C461.623 340.283 461.545 339.259 461.702 338C462.017 336.74 463.592 335.402 466.426 333.985C468.63 332.883 472.094 331.308 476.818 329.261C481.699 327.057 487.525 325.325 494.295 324.065C501.066 322.805 508.309 322.963 516.024 324.537C523.739 325.955 531.533 329.655 539.406 335.638C544.759 339.732 547.987 343.983 549.089 348.392C550.349 352.643 550.349 356.816 549.089 360.909C547.83 364.846 546.019 368.467 543.657 371.774C541.295 374.923 539.091 377.442 537.044 379.332C535.155 381.221 534.21 382.166 534.21 382.166C534.21 382.166 535.312 382.559 537.516 383.347C539.721 384.134 542.397 385.394 545.547 387.125C548.853 388.857 552.16 391.219 555.466 394.211C558.773 397.045 561.528 400.588 563.732 404.839C566.094 409.09 567.354 414.05 567.511 419.719C567.826 429.323 564.835 437.196 558.537 443.337C552.396 449.477 543.815 454.122 532.793 457.271C521.928 460.263 509.411 461.759 495.24 461.759C487.052 461.759 480.754 461.129 476.345 459.869C471.937 458.61 468.788 457.114 466.898 455.382C465.009 453.65 463.906 452.154 463.592 450.894C463.277 449.635 463.119 449.005 463.119 449.005ZM494.531 347.211C494.531 347.211 494.531 348.47 494.531 350.99C494.689 353.352 494.768 356.186 494.768 359.492C494.925 362.799 495.082 365.869 495.24 368.703C495.555 371.38 495.87 373.033 496.185 373.663C496.5 374.293 497.602 374.136 499.491 373.191C501.381 372.246 503.349 370.829 505.396 368.94C507.6 366.893 509.332 364.61 510.592 362.09C512.009 359.414 512.481 356.816 512.009 354.296C510.907 349.258 508.623 346.345 505.16 345.558C501.696 344.77 498.153 345.321 494.531 347.211ZM499.727 402.005L501.381 441.211C501.381 441.211 502.483 441.211 504.687 441.211C506.892 441.211 509.568 440.975 512.717 440.502C515.866 440.03 518.937 439.007 521.928 437.432C525.077 435.858 527.518 433.574 529.25 430.583C531.139 427.434 531.769 423.183 531.139 417.829C530.51 412.476 529.014 408.539 526.652 406.02C524.448 403.343 521.771 401.611 518.622 400.824C515.63 400.037 512.639 399.801 509.647 400.115C506.813 400.273 504.451 400.667 502.562 401.296C500.672 401.769 499.727 402.005 499.727 402.005Z" fill="white"/>
<path d="M595.814 325.246C595.814 325.246 596.838 325.403 598.885 325.718C600.932 325.876 603.215 326.584 605.734 327.844C608.411 328.946 610.694 330.993 612.583 333.985C614.473 336.819 615.26 340.991 614.945 346.502C614.788 350.124 614.551 355.005 614.237 361.146C614.079 367.129 614 373.742 614 380.985C614 388.07 614.158 395.156 614.473 402.241C614.945 409.327 615.654 415.861 616.598 421.844C617.701 427.827 619.118 432.63 620.85 436.251C622.739 439.715 625.022 441.368 627.699 441.211C630.533 441.054 632.659 439.164 634.076 435.543C635.493 431.764 636.438 427.04 636.91 421.372C637.382 415.546 637.54 409.405 637.382 402.95C637.225 396.494 636.91 390.353 636.438 384.528C635.965 378.544 635.493 373.663 635.02 369.884C634.706 365.948 634.469 363.744 634.312 363.271C634.155 362.641 633.918 361.303 633.603 359.256C633.289 357.209 633.446 355.005 634.076 352.643C634.706 350.281 636.28 348.156 638.799 346.266C641.476 344.377 645.649 343.196 651.317 342.723C656.985 342.251 661.394 342.96 664.543 344.849C667.692 346.738 669.897 349.022 671.156 351.698C672.573 354.375 673.361 356.737 673.518 358.784C673.833 360.831 673.99 361.854 673.99 361.854C673.99 361.854 674.227 363.665 674.699 367.286C675.329 370.908 675.801 375.71 676.116 381.693C676.588 387.519 676.588 393.975 676.116 401.06C675.801 408.146 674.778 415.31 673.046 422.553C671.471 429.638 668.873 436.172 665.252 442.156C661.63 447.982 656.749 452.705 650.608 456.327C644.468 459.948 636.753 461.759 627.463 461.759C618.173 461.759 610.3 459.869 603.845 456.09C597.546 452.154 592.35 447.037 588.257 440.739C584.32 434.283 581.25 427.119 579.046 419.246C576.999 411.373 575.582 403.343 574.794 395.156C574.164 386.811 573.85 378.938 573.85 371.538C574.007 364.137 574.243 357.682 574.558 352.171C575.03 346.66 575.345 342.723 575.503 340.362C575.818 336.268 576.999 333.197 579.046 331.151C581.092 328.946 583.376 327.45 585.895 326.663C588.572 325.876 590.855 325.482 592.744 325.482C594.791 325.325 595.814 325.246 595.814 325.246Z" fill="white"/>
<path d="M736.997 428.693C737.155 428.693 738.572 428.693 741.249 428.693C743.925 428.536 747.232 428.457 751.168 428.457C755.105 428.3 758.962 428.221 762.741 428.221C766.678 428.064 769.984 427.985 772.661 427.985C775.338 427.827 776.676 427.749 776.676 427.749C776.676 427.749 777.542 427.749 779.274 427.749C781.006 427.749 783.053 428.064 785.415 428.693C787.776 429.166 789.823 430.268 791.555 432C793.445 433.732 794.468 436.409 794.626 440.03C794.783 443.494 793.76 446.25 791.555 448.296C789.508 450.186 786.989 451.524 783.998 452.312C781.163 452.941 778.565 453.335 776.204 453.492C773.999 453.65 772.897 453.729 772.897 453.729C772.897 453.729 771.244 453.886 767.937 454.201C764.788 454.358 760.616 454.752 755.42 455.382C750.224 456.012 744.555 456.878 738.415 457.98C732.274 458.925 726.369 460.184 720.701 461.759C715.033 463.333 710.309 463.884 706.53 463.412C702.908 463.097 700.074 462.31 698.027 461.05C695.981 459.633 694.485 458.216 693.54 456.799C692.753 455.224 692.359 454.201 692.359 453.729C692.202 452.626 692.517 451.288 693.304 449.714C694.091 447.982 695.587 446.801 697.791 446.171C698.578 446.013 698.972 443.809 698.972 439.558C698.972 435.149 698.657 429.559 698.027 422.789C697.555 415.861 696.847 408.382 695.902 400.352C694.957 392.321 693.855 384.37 692.595 376.497C691.493 368.625 690.391 361.618 689.289 355.477C688.187 349.336 687.084 344.77 685.982 341.779C684.408 337.213 684.25 333.67 685.51 331.151C686.769 328.631 688.501 326.821 690.706 325.718C693.068 324.459 695.193 323.671 697.083 323.357C699.13 323.042 700.153 322.884 700.153 322.884C700.153 322.884 701.176 322.805 703.223 322.648C705.428 322.333 707.947 322.491 710.781 323.12C713.773 323.593 716.528 324.931 719.048 327.135C721.724 329.182 723.614 332.646 724.716 337.527C726.133 343.983 727.786 351.62 729.676 360.437C731.723 369.097 733.455 379.095 734.872 390.432C736.446 401.769 737.155 414.523 736.997 428.693Z" fill="white"/>
<path d="M852.09 428.693C852.247 428.693 853.664 428.693 856.341 428.693C859.018 428.536 862.324 428.457 866.261 428.457C870.197 428.3 874.055 428.221 877.834 428.221C881.77 428.064 885.076 427.985 887.753 427.985C890.43 427.827 891.768 427.749 891.768 427.749C891.768 427.749 892.634 427.749 894.366 427.749C896.098 427.749 898.145 428.064 900.507 428.693C902.869 429.166 904.916 430.268 906.648 432C908.537 433.732 909.561 436.409 909.718 440.03C909.875 443.494 908.852 446.25 906.648 448.296C904.601 450.186 902.081 451.524 899.09 452.312C896.256 452.941 893.658 453.335 891.296 453.492C889.091 453.65 887.989 453.729 887.989 453.729C887.989 453.729 886.336 453.886 883.029 454.201C879.88 454.358 875.708 454.752 870.512 455.382C865.316 456.012 859.647 456.878 853.507 457.98C847.366 458.925 841.462 460.184 835.793 461.759C830.125 463.333 825.401 463.884 821.622 463.412C818.001 463.097 815.167 462.31 813.12 461.05C811.073 459.633 809.577 458.216 808.632 456.799C807.845 455.224 807.451 454.201 807.451 453.729C807.294 452.626 807.609 451.288 808.396 449.714C809.183 447.982 810.679 446.801 812.884 446.171C813.671 446.013 814.065 443.809 814.065 439.558C814.065 435.149 813.75 429.559 813.12 422.789C812.647 415.861 811.939 408.382 810.994 400.352C810.049 392.321 808.947 384.37 807.688 376.497C806.585 368.625 805.483 361.618 804.381 355.477C803.279 349.336 802.177 344.77 801.075 341.779C799.5 337.213 799.342 333.67 800.602 331.151C801.862 328.631 803.594 326.821 805.798 325.718C808.16 324.459 810.286 323.671 812.175 323.357C814.222 323.042 815.245 322.884 815.245 322.884C815.245 322.884 816.269 322.805 818.316 322.648C820.52 322.333 823.039 322.491 825.874 323.12C828.865 323.593 831.621 324.931 834.14 327.135C836.817 329.182 838.706 332.646 839.808 337.527C841.225 343.983 842.879 351.62 844.768 360.437C846.815 369.097 848.547 379.095 849.964 390.432C851.539 401.769 852.247 414.523 852.09 428.693Z" fill="white"/>
</svg>
