<svg width="57" height="37" viewBox="0 0 57 37" fill="none" xmlns="http://www.w3.org/2000/svg">
<path d="M28.6661 1.42738C28.9628 1.56664 29.6128 2.02643 29.8516 2.02076C30.1099 1.49559 30.3373 1.80388 30.8431 1.62272C30.9472 1.58551 30.9336 1.30366 31.0629 1.17934C31.5775 1.16088 31.7035 0.714534 32.0614 0.415322L32.15 0.440705C32.2438 0.370672 32.2332 0.275001 32.2691 0.129039C32.3559 0.057212 32.3826 0.0605084 32.4877 0.0503259C33.3815 -0.0361523 32.9445 1.17007 33.2262 1.40709C33.3393 1.40178 33.3877 1.33662 33.476 1.25882C33.7957 1.21677 33.958 1.21223 34.2829 1.21388C34.292 1.68931 34.284 1.75612 34.0045 2.12122C33.9895 2.35513 33.9946 2.65009 33.9924 2.88927C34.6316 2.88294 35.4714 3.08446 36.0421 2.84851C36.775 2.54556 37.8706 2.72529 38.6493 2.66522C40.8953 2.49194 41.7238 3.00209 43.3889 4.37424C43.4189 4.45808 43.4373 4.50302 43.4761 4.5832C43.52 4.58847 43.5644 4.59331 43.6087 4.59774C43.7438 5.15661 43.7178 5.36026 44.0211 5.85015C44.024 6.1864 43.9914 6.70831 44.0493 7.04448C44.0563 7.08524 44.1343 7.09909 44.1943 7.12286C44.2409 7.27003 44.2277 7.73568 44.228 7.91706C44.4189 7.91439 44.8251 7.91867 44.9998 7.97182C45.0093 8.02325 45.0188 8.07478 45.0276 8.12639C45.2946 8.201 45.9067 8.20946 46.0598 8.29781L46.0917 8.45542C46.1536 8.51812 46.2195 8.53823 46.3279 8.53146C46.6755 8.50977 47.092 9.17464 47.4026 9.34881C47.4879 9.39675 47.6421 9.45085 47.7462 9.48656C47.8927 9.99953 48.0132 9.89573 48.3022 10.307C48.3534 10.3801 48.3505 10.6274 48.4428 10.7625C48.9431 10.8872 50.0922 10.3716 50.5456 10.3486L50.5995 10.3463C51.0144 9.91152 51.6624 9.57579 52.1224 9.19801C52.1605 9.16669 52.118 8.99828 52.181 8.85418C52.4656 8.7113 52.5162 8.56391 52.6916 8.28546C53.1557 7.54899 52.9154 6.91357 52.7191 6.1412C52.5993 6.02732 52.2092 5.63731 52.0646 5.60438L52.0005 5.6791L51.9529 5.67126C51.9887 5.57794 51.9909 5.56702 52.0071 5.46805C51.5364 4.83824 51.1364 5.17664 50.8269 4.78436C50.724 4.75392 50.2753 4.81201 50.1365 4.82542L50.1379 4.26849C50.4537 4.24011 50.7148 4.07741 51.0214 4.06001C51.7371 4.01935 52.6019 3.88654 53.3268 3.86837C53.3729 3.86724 53.4436 4.06096 53.5839 4.05558C53.6681 4.05235 53.9663 4.0299 54.0022 4.05429C54.2725 4.23897 54.5677 4.47511 54.8307 4.67015C54.9582 4.76469 54.9823 4.81831 55.0175 4.98109C55.0468 5.11716 55.234 4.95354 55.3263 5.1854C55.4395 5.47051 55.4358 5.80492 55.5523 6.0875C55.5666 6.12186 55.7753 6.33998 55.779 6.35137C56.057 7.25751 56.0588 8.95821 55.8647 9.86405C55.8193 10.0748 55.4175 11.0923 55.3493 11.1981C54.8816 11.9219 54.241 12.9727 53.5059 13.432C53.407 13.4937 53.422 13.4486 53.3682 13.5344L53.4989 13.5713C53.3117 13.7269 53.0836 13.8793 52.8359 13.9233C52.6448 13.9572 52.3656 14.4125 52.0796 14.5717C52.0268 14.5526 52.0005 14.5375 51.9547 14.5076C51.6389 14.6458 51.5661 14.9395 51.2386 14.9856C51.0496 15.0123 50.9833 15.1312 50.8613 15.2805C50.891 15.4411 50.9738 15.2592 51.0313 15.6189C51.1452 15.7507 51.8756 15.8224 52.0994 15.8572C52.1246 15.8807 52.1803 15.9344 52.1887 15.9684C52.2254 16.1117 52.6861 16.0286 52.7913 16.0656C53.1634 16.1967 53.752 16.4942 54.0762 16.7184C54.1992 16.8034 54.2256 16.8367 54.3622 16.9208L54.3512 17.7147C54.0234 18.0353 53.5788 18.2433 53.2418 18.5375C52.7074 19.0044 52.1851 19.5007 51.6554 19.9731C51.4357 20.1691 51.1368 20.47 50.9046 20.6307C50.6482 20.8081 50.2826 20.9817 50.0032 21.1407C49.7153 21.3046 49.5171 21.4359 49.1959 21.5185C49.4347 22.01 49.7966 22.2684 50.0086 22.7291C50.3068 23.3721 50.2306 24.1382 49.8603 24.728C49.6856 25.0225 49.4739 25.3398 49.5138 25.7025C49.5863 26.3638 49.8185 26.9535 49.5526 27.6132C49.3061 28.2245 48.9032 28.4321 48.3439 28.69C47.7967 29.913 46.7931 30.3174 45.4829 30.2335C45.1119 31.2023 44.8928 32.277 44.2361 33.1048C44.0002 33.4022 43.6772 33.6696 43.5556 34.0267C43.2036 34.2193 42.8508 34.4094 42.4967 34.5977C42.182 34.7746 41.5045 35.1283 41.3111 35.1283C41.0694 35.1283 40.2061 35.3555 39.8953 35.3555C39.6467 35.3555 38.8708 35.5493 38.514 35.6463H37.0291C36.5802 35.6463 35.1299 35.957 34.9572 35.957H32.1947H29.7775H28.0854C27.8437 35.957 26.1516 35.9916 25.8408 35.957C25.5922 35.9294 24.1948 35.7383 23.5272 35.6463C22.9632 35.4067 21.7799 34.9277 21.5589 34.9277C21.3379 34.9277 19.9014 34.0945 19.2107 33.6779L17.346 33.1048L12.3044 32.124L10.9043 31.4411C10.9181 31.2825 10.6007 31.2419 10.5658 31.1609C10.4283 30.7598 9.89439 30.132 9.81337 29.7746C9.64994 29.0537 9.56518 28.19 9.44266 27.4469C9.31765 26.6889 9.38471 25.6619 9.5054 24.9054C9.53683 24.7085 9.57701 24.4224 9.46046 24.2625L9.33351 24.2556C8.998 24.006 9.01422 24.1935 8.75677 24.0584C8.62329 23.7199 8.19823 23.7444 7.94498 23.5501C7.24796 23.0152 6.55188 22.491 5.8216 22.0007C5.60022 21.8521 5.52294 21.8471 5.40844 21.6026C5.06901 21.3761 4.66636 21.2288 4.32326 21.0045C4.18485 20.9141 4.08951 20.7197 3.95904 20.6984C3.94885 20.8055 3.972 20.7776 3.91933 20.8398L3.87487 20.8122C3.86208 20.7608 3.81198 20.5682 3.77619 20.5437C3.31933 20.2311 2.84563 19.9271 2.46162 19.5231C2.24757 19.2979 1.97718 18.9867 1.86671 18.6928C1.85293 18.6561 1.85952 18.3577 1.86132 18.2765L1.86155 18.2661L1.87594 18.3276C2.12311 18.0244 2.22738 17.7553 2.39697 17.4042C2.3617 17.4092 2.66194 17.3659 2.68216 17.3578C3.12011 17.1821 3.59027 16.8518 4.03314 16.648C4.05654 16.6372 3.99896 16.607 4.06614 16.509L4.12529 16.5427C4.29821 16.5188 4.2377 16.2935 4.50168 16.2186C4.58706 16.1837 4.69888 16.133 4.7543 16.0575C5.00304 15.7189 5.28584 15.8046 5.61487 15.6733C5.62806 15.6681 5.61395 15.5494 5.73435 15.4633C6.07949 15.5957 5.85467 15.3769 6.07682 15.3081C6.21491 15.2653 6.37336 15.3161 6.52936 15.2249L6.53533 15.1172C6.61144 15.0309 6.65558 15.0465 6.79256 15.0121C6.76971 14.9109 5.86918 14.5621 5.70556 14.487C5.17285 14.2422 4.59142 14.0569 4.05614 13.8178C3.91003 13.7406 3.77055 13.5357 3.63466 13.4583C2.57531 12.8547 1.76412 12.0448 1.01343 11.0937C0.0993828 9.93558 -0.110531 8.62665 0.105427 7.19597C0.163775 6.80944 0.121396 6.93097 0.39398 6.73944C0.493644 6.53568 0.496392 6.03505 0.7433 5.85949C1.00248 5.67522 1.19525 5.31041 1.42967 5.04273C1.52296 5.01438 1.55574 5.01229 1.63336 4.95332L1.64768 4.79696C1.76529 4.68056 1.78935 4.77923 1.96857 4.66964L1.97608 4.54448C2.08465 4.39079 2.22119 4.55353 2.39364 4.42035L2.41005 4.27377C2.55095 4.09488 3.04979 4.01829 3.26798 3.92939C3.37204 3.88698 3.3957 3.78852 3.43204 3.69109C3.60104 3.60963 3.72099 3.72087 3.94157 3.6508C3.94988 3.5815 3.95809 3.52784 3.97094 3.4592C4.21272 3.39957 4.3956 3.53077 4.61394 3.47766C4.66112 3.38364 4.65464 3.38565 4.73602 3.32123C5.4499 3.23108 7.46948 3.31657 8.29083 3.29013C8.47909 3.28408 8.4347 3.47224 8.77226 3.48898C9.05939 3.50319 9.47511 3.48294 9.7229 3.54059L9.7403 3.64403C9.88648 3.84346 10.305 3.73827 10.3913 4.00488C10.3475 4.04301 10.3045 4.08191 10.2621 4.12154C10.2628 4.23784 10.2667 4.25454 10.2406 4.37131C10.0382 4.46244 9.55049 4.33596 9.37713 4.42735C9.25959 4.91717 8.97723 4.57602 8.6571 4.70385L8.59582 4.87164C8.48557 4.91387 7.6691 5.03541 7.46783 5.07734C7.4385 5.14166 7.43183 5.18291 7.42289 5.25298C6.81861 5.2992 7.10317 5.46494 6.92036 5.60479L6.79575 5.52724L6.74495 5.55039L6.67492 5.73928C6.53027 5.84444 6.42152 5.7454 6.39893 5.77005C6.21421 5.97128 6.14341 6.13468 5.8594 6.18709C5.66816 6.22237 5.5085 6.66743 5.36511 6.80017C5.26079 6.89668 5.14783 6.97492 5.03102 7.05792C5.00864 7.36684 5.01967 7.75286 5.02033 8.06822C5.66498 8.82473 6.26234 9.29423 7.24356 9.55751C7.40604 9.72387 7.34169 9.73274 7.662 9.74109C8.18369 9.75475 8.43001 9.98038 8.86394 10.2131C8.95316 10.2609 9.40783 10.2194 9.53156 10.2613C9.66071 10.4569 9.59309 10.4022 9.89553 10.4295C10.1492 10.4645 11.3473 10.4006 11.4811 10.474L11.4465 10.5815C11.5444 10.672 15.0737 10.628 15.4541 10.6245C15.4844 10.06 15.7042 8.91341 15.8642 8.3225C15.9053 8.28239 15.9816 8.18503 15.9886 8.12405C16.2187 6.11073 16.992 4.32417 18.5724 3.00139C18.7867 2.82195 18.9552 2.79118 19.1991 2.55464L19.2468 2.50783C19.4052 2.47912 19.4665 2.50215 19.6076 2.4111C19.9201 2.20939 20.2261 1.97046 20.5738 1.83406C20.9914 1.67026 21.4653 1.72806 21.8928 1.61583C21.8964 1.61492 22.0468 1.46738 22.0651 1.44929C22.6624 1.35937 24.5279 1.36896 25.139 1.44486C25.3698 1.71367 25.639 1.48537 25.9908 1.59096L26.0103 1.70513C26.0886 1.76337 26.065 1.74725 26.1587 1.76729C26.6414 1.87054 27.0016 2.13518 27.4962 2.28444C27.9873 1.93047 28.3579 1.99742 28.6661 1.42738Z" fill="black"/>
<path d="M17.5745 5.10748C18.0882 4.74498 17.8764 4.89402 18.1034 4.45104C18.4074 4.43412 18.2221 4.2668 18.3637 4.0615C18.4876 3.8817 18.7231 3.7898 18.9177 3.60787C18.9301 3.54784 18.9416 3.49861 18.9574 3.43942C19.503 2.97703 20.2495 2.72803 20.9221 2.50317C20.9699 2.42908 20.9679 2.42721 20.9892 2.34344C21.0847 2.30535 21.3744 2.33557 21.5139 2.33476C21.5467 2.29883 21.6509 2.17777 21.7014 2.1703C22.5348 2.04727 23.4232 1.97101 24.2648 1.96486C24.4774 1.96332 24.3562 2.11052 24.6462 2.13477C24.8736 2.15382 25.2623 2.11334 25.4455 2.17118L25.5033 2.29645C25.5983 2.35051 25.9331 2.34945 26.0664 2.35875C26.8731 2.60277 28.1139 3.41909 28.7642 3.96766C29.1916 4.32815 30.3563 5.65188 30.4746 6.19068L30.4882 6.25507C30.6083 6.33257 30.6204 6.25401 30.6446 6.28814C30.8669 6.60475 30.9903 7.05282 31.1471 7.41027C31.1628 7.44547 31.2464 7.4443 31.2837 7.44529C31.3277 7.52697 31.7317 9.14079 31.7482 9.27434C31.1438 9.3206 30.7277 9.29708 30.1314 9.25613L29.8849 9.04189C29.5372 8.99054 28.8925 8.88399 28.561 8.91718C28.4961 8.90106 27.8743 8.66891 27.853 8.64914C27.7554 8.26235 27.2034 8.7162 27.0465 8.37534C27.0454 8.37292 26.8344 8.3352 26.8081 8.33238C25.7332 8.18773 24.708 8.13217 23.6268 8.25663C23.4256 8.27978 23.0888 8.28648 22.9026 8.33963C22.8759 8.38186 22.8492 8.42409 22.8225 8.46632C22.5048 8.58745 22.1543 8.63712 21.8285 8.73246C21.6676 8.77953 21.692 8.89157 21.6554 8.90253C21.3779 8.98542 21.0499 9.05072 20.7708 9.11863C20.6795 9.14086 20.5255 9.17918 20.5639 9.2358C20.5767 9.25481 20.5274 9.3388 20.5188 9.35565C20.2468 9.39605 19.8263 9.34825 19.998 9.81317C20.1159 9.87155 21.2614 9.5456 21.5205 9.5226C21.6509 9.51102 21.5676 9.3529 21.7485 9.31521C22.0316 9.25624 22.3457 9.28192 22.6217 9.22273C22.8614 9.17134 22.8221 9.12193 22.8883 8.99948C22.896 8.9853 23.2848 8.92135 23.3591 8.90384C24.0958 8.73001 24.9444 8.64221 25.6966 8.74741C25.8284 8.76583 25.7688 8.98413 25.8918 9.01149C26.1034 9.05852 26.3058 8.96952 26.5295 8.9697C26.6562 8.96985 26.6794 9.09742 26.7116 9.10317C27.0971 9.172 27.5068 9.20866 27.8933 9.29118C27.9366 9.30041 28.1208 9.26749 28.165 9.25679C28.1857 9.25338 28.2065 9.24998 28.2272 9.24657C28.2397 9.24423 28.2521 9.24185 28.2645 9.2395C28.5591 9.32796 28.7789 9.51663 28.9044 9.54597C29.0014 9.81456 29.1725 10.0134 29.2568 10.3046C29.3421 10.5995 29.23 11.3921 29.4033 11.6046L29.359 11.7007C28.93 11.8442 28.6429 11.4714 28.2967 11.4864C27.1518 11.5361 25.8665 11.4042 24.734 11.5219L24.7119 11.5691L24.761 11.6716C24.5953 11.7942 24.2097 11.6951 24.002 11.7118C23.7859 11.7291 23.9772 11.9022 23.7379 11.9084C23.5256 11.9138 23.395 11.8209 23.2075 11.9204L23.2034 11.9634C23.1964 12.0332 23.1992 12.0075 23.1861 12.0878C22.9566 12.229 22.6424 12.2218 22.4054 12.3202C22.2534 12.3834 21.9719 12.6104 21.8066 12.6613C21.6067 12.7228 21.0118 12.6348 20.8746 12.7864L20.9348 12.885C20.6586 13.1015 19.4327 12.9347 19.2861 13.1025L19.3454 13.1902C19.24 13.3031 19.0922 13.3194 18.9467 13.329C18.8696 13.4447 18.8949 13.5729 18.8976 13.7344C19.0377 13.7505 19.5855 13.7911 19.6685 13.8347C19.6258 13.9008 19.643 13.8727 19.5562 13.9166L19.5755 13.9742C19.8498 14.1006 19.9275 14.0166 20.0465 14.3033L20.0974 14.2978L20.1559 14.2019C20.283 14.2915 20.3224 14.5845 20.3934 14.6205C20.9119 14.8833 21.2014 15.3905 21.6131 15.7875C21.8722 16.0375 22.1687 16.2724 22.4226 16.5305C22.7114 16.8056 23.0158 17.2796 23.3983 17.3666C23.4324 17.3754 23.4664 17.3842 23.5004 17.393C23.7774 17.6503 24.0879 18.0621 24.3828 18.2457C24.6712 18.4251 25.2516 18.554 25.5855 18.6633C26.1197 18.838 26.642 19.0241 27.1791 19.1839C28.0878 19.3206 29.2915 19.3909 30.2109 19.3739C30.4614 19.3693 31.1299 19.3351 31.3504 19.3043C31.8009 19.6395 31.6229 20.0962 31.6555 20.6156C30.9826 21.1225 29.608 21.5607 28.794 21.8796C28.538 21.9798 28.1444 21.8897 27.9893 22.1466C27.9848 22.2769 27.9663 22.2207 28.043 22.3223C28.6277 22.62 31.1269 21.4802 31.7778 21.1845C31.8844 21.8132 32.1694 22.5901 32.3221 23.2549C32.5474 24.2325 32.4789 24.7086 32.5338 25.6089C31.995 25.8345 31.2434 25.795 30.6479 25.9848C28.8738 26.5499 29.0401 28.427 29.1325 29.9013C29.6102 30.6405 29.8201 30.7086 30.6643 30.9441C31.2028 31.0943 31.6068 31.1034 32.161 31.1166C32.0075 32.6473 31.809 33.0323 30.8911 34.3252C30.7471 34.5278 30.8098 34.653 30.5548 34.8644C30.3263 35.0534 29.9886 35.2292 29.8047 35.4303C29.7882 35.4497 29.764 35.4816 29.7417 35.4878C29.3682 35.5925 28.7193 35.5054 28.3202 35.524C26.9624 35.5878 25.5624 35.4739 24.2452 35.142C23.8548 35.0351 23.4654 34.8197 23.0844 34.6992C22.0784 34.382 21.1485 33.9509 20.1979 33.5007C19.8697 33.3454 19.4906 33.1971 19.1431 33.0912C18.4636 32.8843 17.7375 32.8209 17.0436 32.6707C16.5186 32.5594 16.0255 32.3426 15.5066 32.2096C14.3678 31.9829 13.2079 31.7715 12.1 31.4085C11.6822 31.2716 11.5037 30.9013 10.9907 30.6782L10.9411 30.6569C10.8459 29.7178 10.6555 30.0017 10.4085 29.205C9.96652 27.7791 9.86682 26.0279 10.0079 24.5425C10.7622 24.494 11.6572 24.749 12.406 24.6694C12.4874 24.6608 12.5345 24.5429 12.5715 24.4728C12.6329 24.4318 12.9583 24.4745 13.0907 24.4715C13.4916 24.1814 13.3966 24.4419 13.7423 24.3035C13.8306 24.1745 13.8316 24.1633 13.8749 24.0101L13.8546 23.9406C13.9498 23.8816 14.6217 23.7737 14.7531 23.7593L14.7972 23.6941C14.8062 23.5706 14.8155 23.5398 14.7754 23.4199C14.671 23.3765 14.5027 23.4616 14.3273 23.509C13.8548 23.6366 13.2333 23.8803 12.7547 23.912C12.7281 23.9138 12.545 24.1163 12.238 24.1474C11.6621 24.2058 11.1865 24.198 10.6218 24.075C10.3848 24.0176 10.1856 23.6233 9.79327 23.7406C9.70698 23.7665 9.64672 23.6476 9.59753 23.5718C9.39549 23.46 8.96369 23.5647 8.87278 23.4719C8.91618 23.4518 8.95918 23.4309 9.00182 23.4092C8.78538 23.177 8.03085 23.0074 7.75244 22.7897C7.41158 22.5232 7.1434 22.1978 6.80682 21.9145C6.50593 21.6614 6.17294 21.5194 5.88388 21.3035C5.62466 21.1169 5.3575 20.8079 5.09242 20.6384C4.44371 20.2235 3.77302 20.0464 3.23752 19.4346C3.10236 19.2801 2.76483 19.098 2.63847 18.9252C2.50214 18.7387 2.43962 18.2036 2.63858 18.0524L2.74451 18.093C2.9023 18.0293 2.84424 17.8513 3.08452 17.7154C3.10665 17.8132 3.11613 17.8904 3.15895 17.9797C3.22078 18.1682 3.20521 18.3925 3.20268 18.5924C3.37828 18.8232 3.5497 19.0893 3.88462 19.0353C4.12526 18.8336 3.96414 18.584 3.8525 18.3632C3.94392 18.306 4.03454 18.2475 4.12439 18.1879C4.15372 17.8586 4.56678 18.0155 4.85449 17.9558C4.87273 17.9041 4.8895 17.8519 4.90478 17.7993C5.30439 17.7011 6.81136 17.5914 7.24665 17.5727C7.34276 17.6233 7.43158 17.6815 7.52392 17.7389C7.78076 17.7558 8.09532 17.7164 8.32688 17.7648C8.53338 18.0496 9.05943 18.1246 9.35883 18.3666C9.84759 18.7616 11.238 19.7238 11.5257 20.1749L11.7573 20.1624C12.102 20.1406 12.3961 20.3404 12.7658 20.3994C13.083 20.4501 13.381 20.4889 13.6993 20.528C13.9846 20.2003 14.0534 20.3378 14.4412 20.2711C14.9111 20.1904 15.1046 19.4843 15.1706 19.0965L15.1169 19.1334C14.7834 19.3677 14.1243 19.6348 13.9581 19.8122C13.2023 19.839 12.1798 19.8336 11.5508 19.3251C11.5402 19.2306 11.549 19.2777 11.5241 19.1839C11.4245 19.1594 11.3925 19.1708 11.2926 19.1859L11.2582 19.1913L11.1971 19.1449L11.2416 19.02C11.1788 18.9451 11.1079 18.8814 11.0371 18.814C11.0142 18.7231 11.0197 18.7258 10.9609 18.6543C10.6448 18.6769 10.737 18.5921 10.4862 18.412C9.9296 18.0124 9.35487 17.4231 8.70363 17.2051C8.49456 17.1352 8.06909 17.1787 7.83738 17.1463C7.61835 17.1266 7.58498 16.9755 7.42221 16.9726C6.55204 16.957 5.62854 17.0876 4.76504 17.1903C4.50733 17.221 4.28928 17.5313 4.03967 17.5115L4.13413 17.3431L4.10904 17.3093C3.94821 17.323 4.00612 17.2889 3.91059 17.3783C3.8881 17.4793 3.88565 17.5144 3.83953 17.6077L3.79532 17.5909C3.79353 17.5851 3.75437 17.4597 3.75485 17.4474C3.76759 17.1169 4.78369 16.8826 4.9632 16.6116C5.03719 16.4999 5.12671 16.4091 5.21751 16.3863L5.18776 16.5073C5.29974 16.5029 6.34674 16.0741 6.49677 15.9986C6.60984 15.8217 6.44633 15.9844 6.50937 15.7875C7.24991 15.5802 8.63829 15.6193 9.43849 15.5259C9.50234 15.5184 9.54252 15.7004 9.88279 15.6942C10.2679 15.6871 10.7206 15.6891 11.0996 15.7539C11.4694 15.8625 11.902 16.104 12.2656 16.2421C13.2257 16.6065 13.8916 17.3371 14.8665 17.6723C14.6378 16.9821 14.1162 16.6482 13.5491 16.2313C13.6004 16.155 13.7906 15.8247 13.8397 15.7835C14.0206 15.6316 14.2348 15.6227 14.3707 15.3635C14.4646 15.1843 14.554 14.9608 14.6477 14.7811C14.8107 14.4686 14.9645 14.1845 15.1067 13.8632C15.1926 13.669 15.2875 13.1049 15.3551 12.9942L15.4613 13.0145C15.6153 12.8416 15.5956 11.8745 15.7192 11.4878C16.0653 11.228 15.8159 10.9382 15.9037 10.5476C15.9485 10.3483 16.0827 10.4298 16.1194 10.2658C16.1413 10.168 16.0903 9.90386 16.1186 9.82467C16.1858 9.63647 16.2623 9.78551 16.3237 9.47842C16.4305 8.94359 16.4643 8.41091 16.5548 7.87226C16.6237 7.46239 16.7371 7.70271 16.7936 7.45653C16.8145 7.36548 16.7342 7.10066 16.8296 6.95034C16.9033 6.9881 16.873 6.98319 16.9528 6.98067C17.0837 6.67438 16.8315 6.26368 17.1779 6.14522C17.2447 6.04863 17.2204 5.90505 17.2254 5.76092C17.3124 5.70474 17.3033 5.71503 17.406 5.69591C17.4976 5.54207 17.5347 5.29055 17.5745 5.10748Z" fill="#C15300"/>
<path d="M26.0665 2.3584C26.8733 2.60241 28.114 3.41874 28.7644 3.96731C29.1917 4.3278 30.3564 5.65153 30.4747 6.19033L30.4883 6.25472C30.6084 6.33222 30.6205 6.25366 30.6447 6.28779C30.867 6.6044 30.9904 7.05247 31.1472 7.40992C31.163 7.44512 31.2465 7.44395 31.2838 7.44494C31.3278 7.52662 31.7318 9.14044 31.7483 9.27398C31.1439 9.32025 30.7278 9.29673 30.1315 9.25578L29.885 9.04154C29.5373 8.99019 28.8926 8.88364 28.5611 8.91683C28.567 8.47466 28.5011 8.33635 28.4278 7.91355C28.3646 7.54936 28.4885 7.08657 28.3938 6.69645C28.3105 6.66696 28.292 6.66077 28.2158 6.61744C28.1546 6.3309 28.2509 6.09213 28.1904 5.76321C27.8217 5.52897 27.9491 4.92604 27.5838 4.42582C27.486 4.38769 27.484 4.39344 27.4091 4.32271C27.4022 4.16129 27.4169 4.09686 27.3274 3.97303C27.1471 3.7674 27.0078 3.54195 26.8718 3.30651C26.7096 3.04891 26.5523 3.02001 26.3126 2.85024C26.0403 2.65743 26.0683 2.66541 26.0665 2.3584Z" fill="#FEFEFE"/>
<path d="M26.8711 3.30664C27.3404 3.36803 27.3446 3.54604 27.3267 3.97316C27.1464 3.76753 27.0071 3.54208 26.8711 3.30664Z" fill="#F4D9B4"/>
<path d="M47.7467 21.9909C48.6953 21.9243 49.3308 22.1961 49.5887 23.2048C49.8286 24.1425 49.0506 24.7089 48.9481 25.5756C48.8884 26.0762 49.1118 26.5348 49.0902 27.0296C49.0722 27.3643 48.8627 27.7024 48.5939 27.9012C47.6837 28.5743 46.6724 28.4388 45.6366 28.2524C45.1443 28.1835 44.6535 28.1297 44.1689 28.0136C43.4554 27.8427 42.7507 27.6324 42.0353 27.4702C41.4474 27.337 40.8339 27.2162 40.2292 27.2348C39.2714 27.2641 38.3594 27.6185 37.4451 27.8682C36.0148 28.2696 34.5471 28.585 33.0545 28.5718C31.8583 28.5758 31.5001 27.8404 30.9858 27.7724L30.9536 27.8215C30.9613 28.015 31.0016 28.1205 31.1199 28.2824C32.3 29.8959 36.1335 28.6798 37.7246 28.3337C38.5853 28.1414 39.5864 27.7219 40.4768 27.7686C41.7599 27.8359 43.1287 28.3103 44.3876 28.5864C44.7604 28.6681 45.1197 28.6817 45.4922 28.7428C45.7889 28.7916 46.0611 28.8747 46.3552 28.9282C46.6262 28.9241 47.2584 28.8915 47.4822 28.9798L47.4855 29.037C47.1969 29.6003 44.9058 29.8409 44.4377 29.6644C42.9016 29.0853 41.6698 28.9285 40.0395 29.1904C39.7391 29.2388 39.2549 29.2025 38.9403 29.2926C36.6946 29.9354 34.4087 30.6823 32.0436 30.624C31.0935 30.5999 30.2987 30.4017 29.6346 29.6768C29.5987 28.3952 29.4149 27.8958 30.2316 26.8174C30.5715 26.6588 31.0433 26.4255 31.4012 26.3527C31.922 26.2467 32.4509 26.2313 32.9762 26.0979L33.0337 26.083C33.2388 25.837 33.6062 25.6497 33.7908 25.3449C34.2768 24.5429 34.2497 23.6142 34.8845 22.8892C36.1481 21.4466 39.1157 22.2936 40.7193 22.6075C41.5148 22.7633 42.4309 22.8082 43.2536 22.785C44.8688 22.7395 46.1523 22.0837 47.7467 21.9909Z" fill="#F4D9B4"/>
<path d="M36.6734 22.6386C36.7108 22.6378 36.7485 22.6376 36.7858 22.6378C38.0257 22.6479 39.0267 23.5754 39.8428 24.4059L39.834 24.8586C39.512 25.0302 39.3578 25.0592 39 25.0398C38.2744 24.9731 37.5063 24.9168 36.7891 24.803C36.2346 24.7151 36.0555 24.4944 35.7669 24.075C35.7518 23.8542 35.757 23.5864 35.7559 23.3608C36.0562 22.9601 36.2181 22.8425 36.6734 22.6386Z" fill="black"/>
<path d="M47.7295 22.6117C48.142 22.588 48.2801 22.5873 48.6778 22.6888C50.066 24.312 47.5307 24.4502 46.6329 24.7999L46.5783 24.8215C46.4549 24.8906 46.3282 24.974 46.2077 25.0498C46.0212 25.0615 45.87 25.0787 45.6842 25.0341C45.4528 24.9895 45.3469 24.6822 45.4806 24.5011C45.9725 23.8362 46.9571 22.8612 47.7295 22.6117Z" fill="black"/>
<path d="M6.81368 3.8278C7.21138 3.81454 8.42208 3.77308 8.66844 4.13657C8.5646 4.47399 7.8127 4.22748 7.56422 4.43908C7.55638 4.48443 7.54616 4.59248 7.50807 4.62449C7.37346 4.73756 6.16672 5.1645 6.11764 5.22801L6.17185 5.28277L6.1598 5.35708C6.06695 5.48268 6.07354 5.48019 5.94263 5.56191L5.78312 5.51001C5.49153 5.60971 4.96969 6.34541 4.78267 6.58972C4.68 6.72389 4.64004 6.58155 4.54114 6.73806C4.56561 6.83879 4.58411 6.87388 4.56517 6.97501L4.43983 7.03746C4.4109 7.09394 4.40031 7.11529 4.39562 7.1795C4.27526 8.08274 4.59096 8.418 5.12005 9.07894C5.41252 9.44427 5.85227 9.44493 6.1524 9.81062C6.39466 9.82549 6.50557 9.81875 6.71676 9.95893C7.40866 10.4182 8.33696 10.5733 9.13837 10.7528C9.40759 10.8132 9.42824 10.744 9.6056 10.9381C9.9907 11.0186 10.3698 10.9405 10.7477 10.963C11.0089 10.9785 11.3727 11.1698 11.6608 11.1862C11.8405 11.2134 12.1745 11.0902 12.3344 11.1114C13.2992 11.2391 14.2449 11.2087 15.2181 11.2086C15.1941 11.4746 15.1348 11.9877 15.045 12.2292C14.9623 12.2949 15.0068 12.2676 14.8899 12.2864C14.8136 12.4665 14.9069 12.5698 14.8513 12.8094C14.7906 12.8363 14.7363 12.8477 14.6709 12.8586C14.5915 13.0683 14.7256 13.2919 14.63 13.4821C14.2573 13.4726 14.3922 13.9275 14.2092 14.2691C13.9433 14.7655 13.4065 15.1975 13.1508 15.6533L13.1285 15.6838C12.7246 15.8913 12.1446 15.3771 11.7915 15.2957C11.5654 15.2435 11.12 15.0751 10.918 15.0613C10.318 15.0199 8.40442 14.9939 7.97119 14.6464C7.87208 14.2436 7.16882 14.5592 6.90104 14.216C6.84906 14.1494 6.22159 14.0189 6.02266 13.9277C5.60742 13.7372 5.34011 13.5257 4.97603 13.2593C4.92325 13.257 4.69656 13.2488 4.64403 13.2194C4.11212 12.9215 3.51143 12.6504 3.0453 12.2501C3.01937 12.1782 2.9986 12.1206 2.983 12.0772L2.8659 12.0337C2.77352 12.0514 2.76363 12.0616 2.67382 12.0422C2.58841 11.9406 2.5661 11.7983 2.53156 11.6663C2.06525 11.2591 1.61748 11.112 1.47199 10.4641C1.42298 10.2459 1.37595 10.4026 1.24475 10.3519C0.851552 9.43625 0.542523 8.76794 0.663175 7.69185C0.673797 7.59698 0.830931 7.39641 0.844776 7.30235C0.879573 7.06573 0.910596 6.8222 0.954586 6.5862C0.991873 6.38614 1.10513 6.57796 1.17992 6.43588C1.25688 6.2897 1.31057 5.99005 1.45228 5.90668L1.5785 5.95013C1.63997 5.88094 1.62429 5.7175 1.6296 5.60249C2.02741 5.32335 1.74659 5.30961 2.06884 5.04842C2.16455 4.97084 2.439 4.97773 2.63617 4.83327C2.82762 4.42494 2.95417 4.65618 3.27979 4.43612C3.30272 4.42062 3.30734 4.26481 3.37869 4.26195C3.5541 4.25488 3.70152 4.32825 3.84708 4.25217C3.93964 3.87707 4.2898 4.10537 4.63066 4.01746L4.70004 3.87743C4.95207 3.79018 6.45718 3.82729 6.81368 3.8278Z" fill="#F4D9B4"/>
<path d="M34.7671 3.35383C35.1956 3.31943 35.8505 3.33522 36.2256 3.27717C36.2695 3.1904 36.2626 3.19318 36.3344 3.12615C37.2827 3.04344 38.276 3.06769 39.2298 3.09542C39.4356 3.10143 39.7133 3.22479 39.9598 3.25654C40.607 3.33995 41.7498 3.73688 42.2783 4.0903C42.623 4.3208 42.4812 4.81623 43.1761 5.02644C43.1581 5.16987 43.1193 5.32642 43.1739 5.45403L43.216 5.48113C43.5032 5.66834 43.3592 5.76167 43.3863 6.0682C43.3955 6.16871 43.4629 6.19446 43.5295 6.25032C43.5977 6.63246 43.5863 7.58276 43.5863 7.91534C43.3757 7.92044 42.9904 7.88879 42.8076 7.97406C42.6373 8.05347 42.53 8.16335 42.334 8.19752C42.037 8.24921 40.6685 8.31708 40.5557 8.43242C40.5206 8.46806 40.5143 8.47791 40.4858 8.51476C40.1704 8.5078 39.517 8.46901 39.2408 8.56021C39.2056 8.59472 39.1635 8.63662 39.1137 8.68596C38.6943 8.73984 38.024 8.72182 37.6163 8.71976L36.7849 8.71482C36.1022 8.7087 34.8055 8.66534 34.1748 8.74892C34.1246 8.80009 34.1085 8.83261 34.0788 8.89781C33.7148 8.99308 33.4532 8.77313 33.1027 9.07824C33.0437 9.12981 32.3214 9.24446 32.2918 9.14021C32.1295 8.56926 32.0987 7.95281 31.9317 7.3845C31.8053 6.98701 31.4032 6.55568 31.2193 6.17201C30.9816 5.61581 30.7259 5.27521 30.3355 4.82337C30.2802 4.75902 30.3161 4.68093 30.3468 4.61478C30.5629 4.44812 30.7933 4.46574 31.0669 4.44955C31.6127 3.95482 31.687 4.10895 32.3936 3.97621C32.5665 3.94372 32.5793 3.80234 32.8434 3.73413C33.2239 3.63597 34.0664 3.70359 34.3733 3.50104C34.5894 3.35848 34.3623 3.39013 34.7671 3.35383Z" fill="#C15300"/>
<path d="M31.0669 4.45021C31.6127 3.95548 31.687 4.10961 32.3936 3.97687C32.5665 3.94438 32.5793 3.803 32.8434 3.7348C33.2239 3.63664 34.0664 3.70425 34.3733 3.5017C34.5894 3.35914 34.3623 3.39079 34.7671 3.35449C35.4945 4.30432 36.0593 5.2383 36.2882 6.43269C36.4413 7.23235 36.5329 7.93282 36.7849 8.71548C36.1021 8.70937 34.8055 8.666 34.1748 8.74958C34.1246 8.80075 34.1085 8.83328 34.0788 8.89848C33.7147 8.99375 33.4532 8.7738 33.1027 9.07891C33.0437 9.13048 32.3214 9.24512 32.2918 9.14088C32.1295 8.56992 32.0987 7.95348 31.9317 7.38516C31.8053 6.98768 31.4032 6.55635 31.2193 6.17267C30.9816 5.61648 30.7259 5.27588 30.3355 4.82404C30.2802 4.75968 30.3161 4.68159 30.3468 4.61544C30.5629 4.44878 30.7933 4.4664 31.0669 4.45021Z" fill="#FEFEFE"/>
<path d="M32.161 31.1165C33.1994 31.1341 34.2363 31.0385 35.2538 30.8316C36.079 30.6664 36.8962 30.4649 37.7031 30.2268C38.0053 30.1404 38.8129 29.8913 39.0777 29.8338C39.6253 29.7151 42.2468 29.4705 42.609 29.6661C42.6871 29.769 42.7164 29.8082 42.8859 29.8118C43.3694 29.8221 43.6698 30.0909 44.11 30.2027C44.2415 30.236 44.6104 30.2228 44.7697 30.2188C44.747 30.5221 44.7378 31.1392 44.4346 31.2788C44.4034 31.4297 44.4214 31.6158 44.3379 31.7271C44.0624 31.8535 44.2115 31.8513 44.1697 32.0663C44.1456 32.1905 43.8346 32.3842 43.7775 32.5095C43.695 32.6542 43.8225 32.6695 43.6961 32.8168C43.3687 32.9234 43.5669 33.0197 43.4592 33.1952L43.4614 33.1314C43.4504 33.1398 43.439 33.1483 43.428 33.1567C42.942 33.5303 42.7969 33.8233 42.1823 34.1665C41.927 34.309 41.4739 34.3541 41.2956 34.5518C41.1436 34.7203 40.0773 34.8775 39.8308 34.8958C39.54 34.9174 39.1543 34.8797 38.8789 34.9482C38.7408 34.9822 38.8375 35.0324 38.7693 35.0976C38.766 35.1009 36.2076 35.3155 35.9908 35.3196C35.4454 35.3302 33.4144 35.2599 33.0712 35.4221C32.8133 35.5441 30.1728 35.6108 29.8999 35.5005C29.86 35.4844 29.8373 35.4584 29.8047 35.4302C29.9886 35.2291 30.3263 35.0533 30.5548 34.8643C30.8098 34.6529 30.7471 34.5277 30.8911 34.3251C31.809 33.0322 32.0075 32.6472 32.161 31.1165Z" fill="#FEFEFE"/>
<path d="M46.2462 13.6442C46.511 13.6388 46.9663 13.6126 47.2106 13.6645C47.3835 13.7756 47.1934 13.862 47.5758 13.8249C48.0886 13.7752 48.0307 13.8009 48.3446 14.093C48.3479 14.0961 48.7581 14.1773 48.872 14.2375C48.9651 14.5459 49.0145 14.3142 49.1903 14.4848C49.2262 14.839 49.2779 14.7424 49.5442 14.9443C49.6654 15.2509 49.0805 15.5348 49.3508 15.7308C49.4332 15.7122 49.505 15.6972 49.5885 15.6827C49.8321 16.022 49.4152 16.9121 49.4189 17.2405C49.1574 17.5803 48.2644 18.7877 47.8699 18.7875C47.6194 18.5345 47.8406 17.8418 47.778 17.5133C47.7582 17.4106 47.66 17.3935 47.5644 17.3516C47.4604 17.1982 47.5604 16.9072 47.478 16.7501C47.2201 16.2598 47.0015 15.6901 46.6421 15.2675C46.6143 15.2349 46.348 15.1319 46.2953 15.1113L46.2411 14.9556C46.1836 14.9395 45.8059 14.9114 45.8231 14.9263C45.6144 14.7433 45.6953 14.6649 45.3426 14.524C45.0389 14.5648 44.6419 14.6293 44.3489 14.72C44.1976 14.7308 44.2306 14.9556 44.1192 14.9337C43.5709 14.826 43.6819 15.1847 43.4775 15.2965C43.3361 15.269 43.2742 15.226 43.1903 15.3463C43.1896 15.382 43.1848 15.5242 43.179 15.5484C43.1328 15.7315 42.6541 16.028 42.4871 16.145C42.3025 16.5916 41.5699 18.2674 41.3172 18.5471L41.3143 19.1023L41.3113 19.9935C40.3282 20.0024 38.9346 20.0837 38.0328 19.8993C36.9977 19.6876 35.7794 19.2566 35.0385 18.5117C34.9084 18.3809 34.5224 18.2347 34.3301 18.0748C34.3872 17.905 34.5722 17.6886 34.6656 17.5147C34.8297 17.2086 35.0784 16.6709 35.1711 16.3485C35.1861 16.2963 35.178 15.6921 35.1769 15.6043C35.615 15.6344 36.0519 15.6775 36.4875 15.7335C36.8629 15.782 37.2654 15.8478 37.6438 15.8504C37.787 15.8514 38.0306 15.6792 38.1723 15.6773C38.5119 15.6728 38.8521 15.7067 39.1917 15.6767C39.4389 15.6549 39.2561 15.5056 39.4635 15.4877C39.6389 15.4726 39.9118 15.5422 40.0737 15.4755C40.107 15.3749 40.0847 15.4067 40.1605 15.3359C40.2799 15.3385 40.3843 15.3565 40.4846 15.3005C40.4901 15.273 40.5132 15.1537 40.5194 15.1518C40.9018 15.0344 41.4073 15.0917 41.7549 14.8718C41.8564 14.8076 42.0366 14.5974 42.1032 14.5221C42.6424 14.3533 43.1508 14.4432 43.6921 14.3425C43.7321 14.335 43.7551 14.2327 43.776 14.1781C43.8844 14.1116 44.4943 14.1441 44.6683 14.1474C44.8181 14.0069 44.8902 13.9613 45.0595 13.8498C45.3679 13.8249 45.7341 13.8912 46.0323 13.8195C46.1502 13.7912 46.0316 13.7023 46.2462 13.6442Z" fill="#FEFEFE"/>
<path d="M26.5532 12.0686C26.9079 12.0657 28.1718 12.0498 28.4535 12.1308C28.4661 12.1573 28.529 12.2814 28.539 12.282C29.3375 12.3293 29.9294 12.1748 30.6671 12.6629C31.0829 12.6957 31.3158 12.5331 31.6246 12.8841C32.1278 12.9756 31.9246 13.1174 32.1132 13.1644C32.4392 13.2455 33.0934 13.3781 33.4428 13.6012C33.6439 13.7297 33.516 13.8364 33.6911 13.9168C34.0885 13.8634 34.2372 14.0371 34.609 14.2602C34.624 15.5997 34.7028 17.1518 33.4699 18.0066C33.3285 18.1046 32.8985 18.3936 32.7549 18.3677C32.7091 18.2265 32.7494 17.1096 32.7556 16.8655C32.774 16.1741 32.3077 15.1288 31.8583 14.6576C31.5843 14.3702 30.3532 13.8367 29.9261 13.7866C29.6862 13.7585 29.1257 13.7632 28.8554 13.7652C28.7361 13.7672 28.3621 13.7506 28.3131 13.8291C28.1504 14.0894 27.9871 13.9467 27.6557 14.0084C27.6089 14.1036 27.6165 14.1162 27.5259 14.1629C27.3936 14.1497 27.3616 14.1455 27.2311 14.154L27.176 14.2975C27.029 14.3896 26.6993 14.4583 26.5181 14.5048C26.3149 14.8639 26.343 14.8093 25.9409 14.9607C25.9347 15.1038 25.9616 15.2753 25.8825 15.3809C25.4328 15.4637 25.754 15.7468 25.5696 16.0065C25.2133 16.1823 25.4283 17.4052 25.3584 17.8891C25.2658 17.9395 25.0843 17.9222 24.9887 17.881C24.9326 17.773 24.937 17.7641 24.8355 17.691C24.3478 17.6945 24.4669 17.5305 24.0859 17.2078C23.9268 17.073 23.8751 17.185 23.8346 17.1563C23.6357 17.0158 23.3709 16.4491 23.1473 16.3952C22.8197 16.3163 22.5956 15.8055 22.2881 15.6143C22.1761 15.5446 22.3241 15.4703 22.1311 15.3021C21.8317 15.0412 20.4654 13.9434 20.2734 13.6586L20.2979 13.6225C20.4132 13.6145 20.4906 13.6082 20.6043 13.5892C20.6435 13.5554 20.7635 13.4497 20.8114 13.4481C21.2404 13.4341 21.6252 13.3488 22.038 13.2253L22.0974 13.0915C22.2468 13.0175 22.3768 13.1387 22.5847 13.0634L22.6188 12.9367C22.739 12.8546 23.2847 12.7843 23.4621 12.7216C23.6987 12.6381 23.6353 12.6992 23.7508 12.5023C23.8463 12.4582 25.0599 12.3329 25.2427 12.2729C25.3601 12.2345 25.3217 12.247 25.4077 12.1052C25.6351 12.0561 26.2805 12.07 26.5532 12.0686Z" fill="#FEFEFE"/>
<path d="M37.4551 9.35172C38.1554 9.23342 38.6623 9.37154 39.3374 9.30722C39.3784 9.3033 39.4905 9.17588 39.5275 9.13441C40.1132 9.01112 41.0025 9.06617 41.6204 9.00372C41.8347 8.99753 41.8731 8.80454 42.0577 8.75414C42.1368 8.73308 42.5658 8.75473 42.6064 8.72982C43.0038 8.48672 43.1947 8.56364 43.6181 8.50852C44.1986 8.43288 45.4887 8.54166 45.9289 8.97376L45.893 9.1024L45.9315 9.14346C45.9901 9.13833 46.063 9.132 46.1498 9.12445C46.6157 9.32817 46.6769 9.66815 47.1882 9.76818C47.5644 10.1033 48.2735 11.5414 48.3588 12.0626C47.7764 12.0871 47.2072 12.073 46.6285 12.1187C46.3234 12.1428 46.1857 12.2996 45.9853 12.3009C45.4491 12.3044 44.8913 12.3061 44.3561 12.3114C43.9664 12.3152 43.4862 12.414 43.0998 12.4268C42.3566 12.4516 39.7575 12.5633 39.1531 12.862C39.1088 12.8509 38.933 12.8068 38.9129 12.7652C38.3843 11.6771 38.0913 10.3851 37.4551 9.35172Z" fill="#C15300"/>
<path d="M52.0194 4.25453C52.1417 4.24926 52.4956 4.22153 52.5787 4.27856C52.8842 4.48727 53.1684 4.43548 53.5424 4.42093C53.8801 4.99398 53.9738 4.67407 54.4445 5.09027C54.5379 5.17294 54.3888 5.16298 54.4976 5.29385C54.8471 5.30689 54.7808 5.68877 54.9137 6.00267C54.9851 6.02772 54.9961 6.03157 55.0613 6.06966C55.1599 6.38092 55.1232 6.74226 55.1983 6.99356C55.3441 7.48316 55.432 7.63319 55.4045 8.17704C55.3657 8.94524 55.2298 9.68435 54.9551 10.4058C54.883 10.595 54.8921 10.729 54.698 10.7763C54.6826 10.7827 54.4932 11.4271 54.3859 11.5278C53.9277 11.5224 54.1643 11.9175 53.976 12.1327C53.3116 12.8911 52.5472 13.6165 51.6813 14.141C51.4399 14.2871 51.4861 14.1131 51.2744 14.2347C50.7781 14.5709 50.892 14.6314 50.3177 14.7366C50.1657 14.7291 50.0177 14.6309 49.9323 14.5049C49.7111 14.178 49.8686 13.6659 49.817 13.3042C49.7767 13.0203 49.6606 13.0428 49.6979 12.6867C49.5455 12.6113 49.3796 12.5384 49.2243 12.4669C48.9723 12.0704 48.9115 11.8385 48.7793 11.383C49.3177 11.2573 49.5891 11.1182 50.0913 10.9319C50.3015 10.854 50.5865 10.9009 50.7843 10.8308C50.9275 10.7734 50.8048 10.587 50.9762 10.5396C51.5084 10.3925 51.8502 10.0969 52.2348 9.7197C52.4109 9.5467 52.4824 9.53703 52.7219 9.46773C52.7845 9.03765 52.8468 9.26833 53.019 8.97688C53.0724 8.88678 53.053 8.67122 53.1765 8.47475C53.1999 8.46453 53.375 8.38707 53.3797 8.37707C53.4753 8.16265 53.3486 7.68762 53.4347 7.50349C53.4581 7.48525 53.5742 7.39984 53.5753 7.37101C53.6076 6.71497 53.2124 6.03681 52.9681 5.43812C52.9439 5.37926 52.8545 5.4571 52.741 5.38685C52.6988 5.22143 52.7175 5.18569 52.6058 5.1169C52.408 5.11807 52.3113 5.14686 52.2143 4.93969C52.1055 4.70696 51.8121 4.63686 51.5875 4.54997C51.8516 4.47309 51.8996 4.49196 52.0194 4.25453Z" fill="#F4D9B4"/>
<path d="M34.5647 18.9717C34.994 19.2322 35.3918 19.6241 35.8529 19.8245C38.2213 20.8535 40.9171 20.5726 43.3946 20.3932L43.9033 20.3937C44.4103 21.1019 44.452 21.3563 45.1234 21.9199C44.0198 22.1773 43.3829 22.3168 42.232 22.2352C41.6471 22.1908 41.0654 22.1134 40.4893 22.0033C38.6516 21.6422 35.6061 20.7452 34.216 22.7506C33.556 23.7032 33.908 25.0878 32.5333 25.6086C32.4784 24.7083 32.5469 24.2322 32.3216 23.2546C32.1689 22.5898 31.8839 21.8129 31.7773 21.1842C32.1641 20.8496 32.8681 20.5299 33.3359 20.2021C33.923 19.7906 34.0981 19.3724 34.5647 18.9717Z" fill="#FEFEFE"/>
<path d="M33.5345 9.48198C33.7447 9.48425 34.0476 9.50238 34.2535 9.47652C34.3179 9.46843 34.3366 9.39074 34.3787 9.31243C34.7003 9.24115 37.0467 9.3239 37.4555 9.35162C38.0917 10.385 38.3847 11.677 38.9133 12.7651C38.9334 12.8067 39.1092 12.8508 39.1535 12.8619C38.8228 13.0513 38.6404 12.9043 38.2976 12.9753C38.1459 13.0067 38.2126 13.182 38.1327 13.2443C37.9796 13.3637 37.7064 13.3855 37.5507 13.497C37.5013 13.5327 37.5079 13.6174 37.4972 13.6949L37.4357 13.74C37.1723 13.7564 37.1324 13.7048 37.102 13.9534C36.9691 14.0734 36.7614 14.0324 36.6112 14.1305C36.5149 14.1935 36.5874 14.3276 36.4365 14.3674C36.1988 14.4301 35.5193 14.7265 35.3128 14.6647C35.1282 14.4214 35.0728 13.8575 34.9736 13.519L34.9608 13.4767C33.9169 12.5386 33.9165 11.7231 33.1755 10.8609C32.7737 10.7655 32.944 10.3437 32.7924 9.99144C32.7016 9.94045 32.6558 9.92503 32.5957 9.83874C32.6082 9.74446 32.5858 9.78372 32.6528 9.71387C32.832 9.66098 33.0649 9.67963 33.2576 9.68193L33.5345 9.48198Z" fill="#FEFEFE"/>
<path d="M28.9043 9.54688C30.2529 9.778 30.7565 9.89594 32.1326 9.89524C32.1136 10.1664 32.096 10.1716 32.2205 10.3979C32.3483 10.6295 32.4264 10.8349 32.5893 11.0631L32.6033 11.335C32.7351 11.3812 32.8897 11.4173 32.982 11.5154C32.9904 11.7122 32.9754 11.6982 33.0926 11.8487C33.3483 11.9513 33.2681 12.1559 33.3919 12.3872C33.5179 12.6232 33.8406 12.8793 33.8314 13.1493L33.7754 13.2233C33.6065 13.1584 33.7362 13.1242 33.6486 13.0696C32.9692 12.6469 32.2106 12.5041 31.4751 12.2159C31.2495 12.1276 31.0334 12.1504 30.8316 12.0105C30.5166 11.7918 29.7723 11.8386 29.4032 11.6055C29.2298 11.393 29.3419 10.6004 29.2566 10.3055C29.1724 10.0144 29.0012 9.81547 28.9043 9.54688Z" fill="#FEFEFE"/>
<path d="M32.3475 0.816406C32.854 0.88208 32.4324 1.70745 32.5844 2.0175C32.7877 2.43144 33.1947 1.82979 33.3419 1.77931L33.3924 1.83393C33.4719 2.17138 33.3939 2.70384 33.3566 3.06099C33.1525 3.08795 32.5412 3.28578 32.2702 3.31413C32.1643 3.31786 32.2365 3.46657 32.1357 3.47225C31.7171 3.49591 31.5145 3.39475 31.2226 3.78813C31.1955 3.82479 30.8882 3.80414 30.8428 3.82743C30.4923 4.00665 30.1776 4.02262 29.8615 4.27107C29.7582 4.19367 29.6626 4.10155 29.5671 4.01398C29.3362 3.7574 29.318 3.66473 29.0189 3.39698C28.8354 3.18861 28.3998 3.00283 28.2509 2.80724C28.0606 2.55725 28.632 2.05684 28.9079 2.18072C28.9102 2.18947 28.9354 2.30071 28.9427 2.3091C29.1715 2.5696 29.8366 2.66007 30.1524 2.53231C30.1795 2.52147 30.1575 2.37074 30.2516 2.36159C30.3827 2.34888 30.5212 2.39561 30.6296 2.32503C30.7183 2.26309 30.8095 2.05996 30.8992 2.01608C31.0234 1.95516 31.0812 2.04212 31.242 1.94722L31.2556 1.81851C31.3548 1.66599 31.794 1.49838 31.9735 1.44113C32.0394 0.848089 32.1303 1.25931 32.3475 0.816406Z" fill="#FEFEFE"/>
<path d="M52.5578 17.5956C52.7835 17.5866 53.2849 17.5407 53.4567 17.6478C53.4644 17.9957 52.4179 18.333 52.2399 18.5452C51.5887 19.3225 50.9887 19.9705 50.0843 20.4638C49.8382 20.598 49.8437 20.7392 49.4745 20.8611C49.2302 20.9362 48.8533 21.1193 48.6482 20.9361C48.572 20.7963 48.5965 20.664 48.6013 20.4992C49.8356 19.6831 49.6584 19.5636 49.8393 18.2493C50.444 17.9513 51.8652 17.6621 52.5578 17.5956Z" fill="#C15300"/>
<path d="M43.3945 20.394C44.904 20.2674 46.2987 20.1588 47.7243 19.529C48.2151 19.3122 48.7975 18.7956 49.1803 18.6318C49.2345 18.6981 49.2575 18.7336 49.2345 18.8288C48.9392 20.0504 47.8078 20.3237 46.7874 20.7248C46.4907 20.8413 46.0131 20.8961 45.7742 21.101L45.7827 21.1541C46.3313 21.3401 47.5012 21.0584 48.0466 20.8527C48.054 21.0262 48.0653 21.198 48.0562 21.3714C47.28 21.5103 46.5046 21.6062 45.7358 21.7934C45.5581 21.8366 45.3025 21.8973 45.1234 21.9207C44.452 21.3571 44.4102 21.1027 43.9033 20.3945L43.3945 20.394Z" fill="#C15300"/>
<path d="M39.2958 13.4537C39.7075 13.4068 40.3704 13.4507 40.6997 13.192C40.8294 13.0903 43.1574 13.0228 43.5003 13.0068C43.779 13.2223 43.6065 13.285 43.7959 13.4222L43.7882 13.583C43.4241 13.8389 41.715 13.9721 41.1975 14.134C41.04 14.1833 41.0122 14.1249 41.0513 14.3106C40.9158 14.4325 40.2452 14.535 40.043 14.6216C39.8672 14.6968 39.7251 14.7757 39.5577 14.868C39.4199 14.6173 39.3353 14.2056 39.2793 13.9248C39.3423 13.8185 39.3049 13.5904 39.2958 13.4537Z" fill="#C15300"/>
<path d="M37.0458 14.5387C37.2593 14.4505 37.4747 14.3899 37.7011 14.3576C38.0157 14.3127 37.9574 14.1095 38.1549 13.8399C38.2384 13.7256 38.4212 13.7374 38.5816 13.7212C38.9592 13.4403 39.205 13.3452 39.2797 13.925C39.3358 14.2057 39.4204 14.6174 39.5581 14.8682C39.5471 14.9373 39.5577 14.9007 39.52 14.976C39.1284 14.9771 38.7808 15.0082 38.3992 15.0727C38.0457 15.1325 36.6718 15.3857 36.4172 15.1484C36.3678 14.9874 36.3575 15.0568 36.4092 14.9293C36.5106 14.8723 36.5707 14.8849 36.6887 14.8852L36.7363 14.8857C36.8473 14.81 36.959 14.6493 37.0458 14.5387Z" fill="#FEFEFE"/>
<path d="M50.3817 16.1135C50.5542 16.107 50.5725 16.0972 50.7143 16.1812L50.6692 16.1887C51.2029 16.318 51.6087 16.4193 52.1688 16.4131C52.2453 16.4123 52.2556 16.4886 52.2948 16.5647C52.5328 16.7214 52.9925 16.771 53.2877 16.8195C53.3782 16.9633 53.4855 17.0642 53.4126 17.2249C53.2475 17.3054 53.0361 17.2254 52.857 17.1789C52.2211 17.1174 51.3589 17.2249 50.7143 17.3121C50.4238 17.3513 50.1843 17.5725 49.9711 17.5123C49.885 17.3857 50.0575 17.3957 50.0876 17.3091C50.207 16.9689 50.3293 16.4547 50.3817 16.1135Z" fill="#C15300"/>
<path d="M31.3496 19.3044C31.7027 19.1627 32.4503 19.1332 32.8957 18.9745C33.1576 18.8811 33.8755 18.4889 34.0066 18.4688C34.2846 18.8839 32.8001 19.9086 32.5016 20.1087C32.2349 20.2871 31.9151 20.4286 31.6547 20.6157C31.6221 20.0962 31.8001 19.6396 31.3496 19.3044Z" fill="#FEFEFE"/>
<path d="M46.6777 12.7067C46.8213 12.5948 48.0249 12.6215 48.2732 12.6264C48.4923 12.6309 48.9743 12.9441 49.1845 13.0715L49.2076 13.6145C48.6978 13.575 48.5388 13.4056 48.0586 13.2782C47.9586 13.2516 47.6238 13.251 47.5004 13.2498C47.2638 13.0371 47.2579 13.0419 46.9422 13.0727C46.8532 12.9405 46.7752 12.833 46.6777 12.7067Z" fill="#C15300"/>
<path d="M27.5969 15.0943C27.7634 15.0842 27.986 15.0558 28.1403 15.0964C28.3778 15.3558 28.6011 15.3004 28.6918 15.5633C28.679 15.7831 28.456 15.9567 28.2965 16.1158L28.2849 16.139L28.2232 16.1584C27.9475 16.1009 26.9714 15.8251 27.3797 15.3171C27.419 15.2682 27.4614 15.2911 27.5291 15.2954C27.6093 15.2215 27.5834 15.2359 27.5969 15.0943Z" fill="#FEFEFE"/>
<path d="M43.9011 12.9966C44.3219 12.8379 44.9314 12.8876 45.427 12.8457C45.4882 12.9605 45.523 13.0623 45.6306 13.1265L45.7006 13.1307C45.3219 13.2275 45.0625 13.302 44.6703 13.2972C44.334 13.4367 44.1542 13.4187 43.7956 13.422C43.6062 13.2849 43.7787 13.2222 43.5 13.0067L43.9011 12.9966Z" fill="#C15300"/>
<path d="M43.502 13.0072L43.903 12.9971C44.2078 13.0317 44.5495 12.974 44.6722 13.2977C44.336 13.4372 44.1561 13.4192 43.7975 13.4225C43.6082 13.2854 43.7807 13.2227 43.502 13.0072Z" fill="#CB723B"/>
<path d="M46.1185 17.9014C46.2042 17.9149 46.1731 17.9033 46.2441 17.9592C46.3207 18.2324 46.4474 18.3238 46.5342 18.6012C46.4038 18.7155 46.3079 18.7222 46.1467 18.8678C46.0266 18.8688 45.9951 18.8705 45.8735 18.8518C45.772 18.786 45.7698 18.783 45.7145 18.6742L45.5625 18.382C45.7654 18.1674 45.8845 18.0745 46.1185 17.9014Z" fill="#FEFEFE"/>
<path d="M30.687 17.0938C30.9939 17.0999 31.0273 17.1184 31.2785 17.2996L31.2738 17.9196C30.6434 17.9033 30.6463 17.6337 30.687 17.0938Z" fill="#FEFEFE"/>
<path d="M46.6766 12.707C46.7741 12.8333 46.8521 12.9408 46.9411 13.073C46.5004 13.0782 46.1389 13.097 45.6994 13.1307L45.6294 13.1264C45.5217 13.0622 45.4869 12.9604 45.4258 12.8457C45.7419 12.7985 46.4854 12.8516 46.6766 12.707Z" fill="#CB723B"/>
<path d="M44.0527 16.0762C44.5956 16.0883 44.6608 16.1405 44.6633 16.674C44.2403 16.6621 44.0648 16.5119 44.0527 16.0762Z" fill="#FEFEFE"/>
<path d="M27.838 17.4664C28.0283 17.4623 28.072 17.4509 28.2082 17.5542C28.2823 17.7059 28.2546 17.8972 28.2491 18.0744L27.8281 18.0933L27.838 17.4664Z" fill="#FEFEFE"/>
<path d="M3.08398 17.715L3.1323 17.7067C3.4362 17.6525 3.41484 17.6372 3.60864 17.389L3.65596 17.3848C3.69376 17.5056 3.69215 17.4966 3.66615 17.621C3.47847 17.7772 3.30133 17.8341 3.15841 17.9793C3.11559 17.89 3.10611 17.8128 3.08398 17.715Z" fill="#CB723B"/>
</svg>
