<svg width="32" height="32" viewBox="0 0 32 32" fill="none" xmlns="http://www.w3.org/2000/svg">
<path d="M22.1275 10.3779C21.0064 9.85531 19.7926 9.47599 18.5282 9.25684C18.506 9.25715 18.4848 9.26624 18.4692 9.28212C18.3175 9.56029 18.1405 9.92274 18.0225 10.2009C16.6814 9.99873 15.3176 9.99873 13.9765 10.2009C13.8585 9.91431 13.6814 9.56029 13.5213 9.28212C13.5129 9.26527 13.4876 9.25684 13.4623 9.25684C12.1979 9.47599 10.9925 9.85531 9.86303 10.3779C9.85461 10.3779 9.84618 10.3863 9.83775 10.3948C7.54501 13.8254 6.91283 17.1634 7.22471 20.4676C7.22471 20.4845 7.23313 20.5013 7.24999 20.5098C8.76724 21.6224 10.2255 22.2968 11.6669 22.7435C11.6922 22.7519 11.7175 22.7435 11.7259 22.7266C12.063 22.263 12.3665 21.7741 12.6278 21.26C12.6447 21.2263 12.6278 21.1925 12.5941 21.1841C12.1136 20.9987 11.6584 20.7795 11.2117 20.5266C11.178 20.5098 11.178 20.4592 11.2033 20.4339C11.296 20.3665 11.3887 20.2906 11.4814 20.2232C11.4983 20.2063 11.5236 20.2063 11.5404 20.2148C14.4401 21.5381 17.5673 21.5381 20.4332 20.2148C20.4501 20.2063 20.4754 20.2063 20.4922 20.2232C20.5849 20.299 20.6777 20.3665 20.7704 20.4423C20.8041 20.4676 20.8041 20.5182 20.7619 20.5351C20.3236 20.7964 19.86 21.0071 19.3796 21.1925C19.3458 21.201 19.3374 21.2431 19.3458 21.2684C19.6156 21.7826 19.919 22.2715 20.2478 22.7351C20.2731 22.7435 20.2983 22.7519 20.3236 22.7435C21.7734 22.2968 23.2317 21.6224 24.7489 20.5098C24.7658 20.5013 24.7742 20.4845 24.7742 20.4676C25.1451 16.6492 24.1589 13.3366 22.1612 10.3948C22.1528 10.3863 22.1443 10.3779 22.1275 10.3779ZM13.0661 18.4531C12.1979 18.4531 11.473 17.6523 11.473 16.6661C11.473 15.6799 12.1811 14.8791 13.0661 14.8791C13.9596 14.8791 14.6677 15.6883 14.6592 16.6661C14.6592 17.6523 13.9512 18.4531 13.0661 18.4531ZM18.9412 18.4531C18.073 18.4531 17.3481 17.6523 17.3481 16.6661C17.3481 15.6799 18.0562 14.8791 18.9412 14.8791C19.8347 14.8791 20.5428 15.6883 20.5344 16.6661C20.5344 17.6523 19.8347 18.4531 18.9412 18.4531Z" fill="white"/>
</svg>
