<svg width="32" height="32" viewBox="0 0 32 32" fill="none" xmlns="http://www.w3.org/2000/svg">
<path fill-rule="evenodd" clip-rule="evenodd" d="M22.716 7.88026C22.9243 7.79259 23.1523 7.76236 23.3763 7.7927C23.6002 7.82304 23.812 7.91286 23.9894 8.0528C24.1669 8.19273 24.3036 8.37768 24.3853 8.58838C24.467 8.79909 24.4908 9.02784 24.4541 9.25085L22.5424 20.8469C22.3569 21.9654 21.1297 22.6069 20.1038 22.0497C19.2457 21.5836 17.9713 20.8654 16.8249 20.116C16.2517 19.7409 14.4959 18.5398 14.7117 17.6851C14.8971 16.9543 17.8473 14.208 19.5332 12.5753C20.1949 11.9338 19.8931 11.5638 19.1117 12.1539C17.1713 13.6188 14.0559 15.8467 13.0259 16.4738C12.1172 17.0268 11.6435 17.1212 11.077 17.0268C10.0436 16.8548 9.08523 16.5884 8.303 16.2639C7.24598 15.8256 7.2974 14.3724 8.30216 13.9493L22.716 7.88026Z" fill="white"/>
</svg>
