<svg width="32" height="32" viewBox="0 0 32 32" fill="none" xmlns="http://www.w3.org/2000/svg">
<path d="M18.6667 10C20.5067 10 22 11.4933 22 13.3333V18.6667C22 20.5067 20.5067 22 18.6667 22H13.3333C11.4933 22 10 20.5067 10 18.6667V13.3333C10 11.4933 11.4933 10 13.3333 10H16H18.6667Z" stroke="white" stroke-width="1.33333" stroke-linecap="round" stroke-linejoin="round"/>
<path d="M16.0007 13.333C17.474 13.333 18.6673 14.5263 18.6673 15.9997C18.6673 17.473 17.474 18.6663 16.0007 18.6663C14.5273 18.6663 13.334 17.473 13.334 15.9997C13.334 14.5263 14.5273 13.333 16.0007 13.333Z" stroke="white" stroke-width="1.33333" stroke-linecap="round" stroke-linejoin="round"/>
<path d="M19.334 13.667C19.8863 13.667 20.334 13.2193 20.334 12.667C20.334 12.1147 19.8863 11.667 19.334 11.667C18.7817 11.667 18.334 12.1147 18.334 12.667C18.334 13.2193 18.7817 13.667 19.334 13.667Z" fill="white"/>
</svg>
