<svg width="24" height="24" viewBox="0 0 24 24" fill="none" xmlns="http://www.w3.org/2000/svg">
<path d="M6.99222 14.502C6.727 14.502 6.47265 14.6074 6.28511 14.7949C6.09758 14.9824 5.99222 15.2368 5.99222 15.502V17.284C4.70314 15.8265 3.99177 13.9478 3.99222 12.002C3.99105 11.7079 4.00841 11.414 4.04422 11.122C4.0633 10.9901 4.05582 10.8557 4.02221 10.7267C3.9886 10.5977 3.92955 10.4768 3.84853 10.371C3.76751 10.2651 3.66614 10.1766 3.5504 10.1105C3.43466 10.0444 3.30687 10.0021 3.17455 9.98609C3.04223 9.97009 2.90805 9.98071 2.77989 10.0173C2.65173 10.0539 2.53218 10.1158 2.42827 10.1992C2.32435 10.2827 2.23818 10.3861 2.1748 10.5034C2.11142 10.6206 2.07213 10.7494 2.05922 10.882C2.01361 11.2536 1.99124 11.6276 1.99222 12.002C1.99323 14.3883 2.85092 16.6948 4.40922 18.502H2.99222C2.727 18.502 2.47265 18.6074 2.28511 18.7949C2.09758 18.9824 1.99222 19.2368 1.99222 19.502C1.99222 19.7672 2.09758 20.0216 2.28511 20.2091C2.47265 20.3967 2.727 20.502 2.99222 20.502H6.99222C7.14864 20.5001 7.30234 20.4609 7.44047 20.3874C7.57861 20.314 7.69716 20.2086 7.78622 20.08L7.82322 20.037C7.83022 20.027 7.83022 20.015 7.83622 20.005C7.88343 19.9244 7.91911 19.8375 7.94222 19.747C7.95702 19.6959 7.96772 19.6438 7.97422 19.591C7.97722 19.561 7.99222 19.534 7.99222 19.502V15.502C7.99222 15.2368 7.88686 14.9824 7.69933 14.7949C7.51179 14.6074 7.25743 14.502 6.99222 14.502ZM8.49222 6.00201H6.70922C8.16698 4.7127 10.0461 4.00131 11.9922 4.00201C12.2864 4.00117 12.5803 4.01887 12.8722 4.05501C13.1357 4.08683 13.4011 4.01268 13.6099 3.84887C13.8187 3.68506 13.9539 3.445 13.9857 3.18151C14.0175 2.91802 13.9434 2.65267 13.7796 2.44385C13.6158 2.23503 13.3757 2.09983 13.1122 2.06801C12.7406 2.02274 12.3666 2.00069 11.9922 2.00201C9.60597 2.00302 7.29939 2.86071 5.49222 4.41901V3.00201C5.49222 2.73679 5.38686 2.48244 5.19933 2.2949C5.01179 2.10737 4.75744 2.00201 4.49222 2.00201C4.227 2.00201 3.97265 2.10737 3.78511 2.2949C3.59758 2.48244 3.49222 2.73679 3.49222 3.00201V7.00201C3.49871 7.06814 3.51177 7.13347 3.53122 7.19701C3.55606 7.32018 3.6039 7.43756 3.67222 7.54301L3.68422 7.56001C3.75062 7.65558 3.83319 7.73883 3.92822 7.80601C3.93922 7.81401 3.94522 7.82601 3.95622 7.83401C3.97022 7.84401 3.98622 7.84701 4.00122 7.85501C4.05828 7.88891 4.11858 7.91705 4.18122 7.93901C4.26547 7.96823 4.35324 7.98606 4.44222 7.99201C4.46022 7.99201 4.47422 8.00201 4.49222 8.00201H8.49222C8.75743 8.00201 9.01179 7.89665 9.19933 7.70912C9.38686 7.52158 9.49222 7.26722 9.49222 7.00201C9.49222 6.73679 9.38686 6.48244 9.19933 6.2949C9.01179 6.10737 8.75743 6.00201 8.49222 6.00201ZM20.4522 16.806C20.4273 16.6832 20.3794 16.5662 20.3112 16.461L20.3002 16.444C20.2335 16.3484 20.1506 16.2651 20.0552 16.198C20.0442 16.19 20.0392 16.178 20.0272 16.17C20.0172 16.163 20.0042 16.163 19.9932 16.156C19.8659 16.0862 19.727 16.0402 19.5832 16.02C19.5512 16.017 19.5242 16.002 19.4922 16.002H15.4922C15.227 16.002 14.9726 16.1074 14.7851 16.2949C14.5976 16.4824 14.4922 16.7368 14.4922 17.002C14.4922 17.2672 14.5976 17.5216 14.7851 17.7091C14.9726 17.8967 15.227 18.002 15.4922 18.002H17.2742C15.8167 19.2911 13.938 20.0025 11.9922 20.002C11.698 20.0025 11.4041 19.9845 11.1122 19.948C10.8487 19.9162 10.5834 19.9903 10.3746 20.1541C10.1657 20.318 10.0305 20.558 9.99872 20.8215C9.96689 21.085 10.041 21.3503 10.2049 21.5592C10.3687 21.768 10.6087 21.9032 10.8722 21.935C11.2438 21.9806 11.6179 22.003 11.9922 22.002C14.3785 22.001 16.685 21.1433 18.4922 19.585V21.002C18.4922 21.2672 18.5976 21.5216 18.7851 21.7091C18.9726 21.8967 19.227 22.002 19.4922 22.002C19.7574 22.002 20.0118 21.8967 20.1993 21.7091C20.3869 21.5216 20.4922 21.2672 20.4922 21.002V17.002C20.4854 16.9358 20.472 16.8695 20.4522 16.806ZM20.9922 5.50201C21.2574 5.50201 21.5118 5.39665 21.6993 5.20912C21.8869 5.02158 21.9922 4.76723 21.9922 4.50201C21.9922 4.23679 21.8869 3.98244 21.6993 3.7949C21.5118 3.60737 21.2574 3.50201 20.9922 3.50201H16.9922C16.9271 3.50869 16.8628 3.52176 16.8002 3.54101L16.7932 3.54201C16.6722 3.56726 16.5569 3.61473 16.4532 3.68201L16.4332 3.69501C16.338 3.7615 16.2551 3.84407 16.1882 3.93901C16.1802 3.94901 16.1682 3.95501 16.1602 3.96601C16.1532 3.97601 16.1532 3.98901 16.1462 4.00001C16.0761 4.12824 16.03 4.26821 16.0102 4.41301C16.0072 4.44301 15.9922 4.47001 15.9922 4.50201V8.50201C15.9922 8.76722 16.0976 9.02158 16.2851 9.20912C16.4726 9.39665 16.727 9.50201 16.9922 9.50201C17.2574 9.50201 17.5118 9.39665 17.6993 9.20912C17.8869 9.02158 17.9922 8.76722 17.9922 8.50201V6.71901C19.2807 8.17725 19.992 10.0561 19.9922 12.002C19.9931 12.2962 19.9754 12.5901 19.9392 12.882C19.9073 13.1452 19.9813 13.4103 20.1448 13.6191C20.3083 13.8278 20.548 13.963 20.8112 13.995C20.8517 13.9998 20.8924 14.0022 20.9332 14.002C21.1773 14.0016 21.4129 13.9119 21.5954 13.7498C21.778 13.5877 21.8949 13.3644 21.9242 13.122C21.9702 12.7505 21.9929 12.3764 21.9922 12.002C21.9912 9.61576 21.1335 7.30918 19.5752 5.50201H20.9922Z" fill="black"/>
</svg>
