<svg width="162" height="57" viewBox="0 0 162 57" fill="none" xmlns="http://www.w3.org/2000/svg">
<g clip-path="url(#clip0_46_1151)">
<path d="M38.9835 11.188C39.2822 11.3283 39.9368 11.7913 40.1773 11.7855C40.4373 11.2567 40.6664 11.5671 41.1758 11.3847C41.2805 11.3472 41.2669 11.0634 41.3971 10.9382C41.9153 10.9197 42.0422 10.4702 42.4025 10.1689L42.4918 10.1944C42.5862 10.1239 42.5755 10.0276 42.6116 9.8806C42.6991 9.80827 42.726 9.81159 42.8318 9.80133C43.7318 9.71425 43.2918 10.9289 43.5754 11.1676C43.6894 11.1622 43.7381 11.0966 43.827 11.0183C44.149 10.9759 44.3124 10.9714 44.6395 10.973C44.6487 11.4518 44.6406 11.5191 44.3592 11.8867C44.3441 12.1222 44.3492 12.4193 44.347 12.6601C44.9907 12.6537 45.8364 12.8567 46.411 12.6191C47.1491 12.314 48.2523 12.495 49.0364 12.4345C51.2982 12.26 52.1325 12.7737 53.8092 14.1555C53.8395 14.2399 53.8579 14.2852 53.897 14.3659C53.9413 14.3712 53.9859 14.3761 54.0305 14.3805C54.1666 14.9433 54.1404 15.1484 54.4458 15.6417C54.4488 15.9803 54.416 16.5059 54.4742 16.8444C54.4812 16.8854 54.5598 16.8994 54.6203 16.9233C54.6671 17.0715 54.6539 17.5404 54.6542 17.7231C54.8464 17.7204 55.2554 17.7247 55.4314 17.7782C55.441 17.83 55.4505 17.8819 55.4594 17.9339C55.7283 18.009 56.3446 18.0175 56.4988 18.1065L56.5309 18.2652C56.5932 18.3283 56.6596 18.3486 56.7688 18.3418C57.1188 18.3199 57.5382 18.9894 57.8509 19.1648C57.9369 19.2131 58.0922 19.2676 58.1969 19.3035C58.3445 19.8201 58.4658 19.7156 58.7568 20.1297C58.8084 20.2034 58.8055 20.4524 58.8984 20.5884C59.4023 20.7139 60.5593 20.1948 61.0159 20.1716L61.0702 20.1693C61.4881 19.7315 62.1405 19.3934 62.6038 19.013C62.6422 18.9814 62.5994 18.8118 62.6628 18.6667C62.9494 18.5229 63.0003 18.3744 63.177 18.094C63.6443 17.3524 63.4023 16.7126 63.2046 15.9348C63.084 15.8201 62.6912 15.4274 62.5455 15.3942L62.481 15.4695L62.433 15.4616C62.4692 15.3676 62.4714 15.3566 62.4876 15.2569C62.0137 14.6227 61.6109 14.9635 61.2992 14.5685C61.1956 14.5378 60.7437 14.5963 60.604 14.6098L60.6054 14.049C60.9234 14.0204 61.1863 13.8566 61.4951 13.839C62.2158 13.7981 63.0866 13.6644 63.8165 13.6461C63.863 13.6449 63.9342 13.84 64.0755 13.8346C64.1603 13.8313 64.4605 13.8087 64.4967 13.8333C64.7689 14.0193 65.0662 14.257 65.331 14.4535C65.4593 14.5487 65.4837 14.6027 65.5191 14.7666C65.5486 14.9036 65.7371 14.7388 65.83 14.9723C65.944 15.2594 65.9403 15.5962 66.0576 15.8807C66.072 15.9153 66.2822 16.135 66.2859 16.1464C66.5659 17.0589 66.5677 18.7715 66.3722 19.6837C66.3265 19.8959 65.9219 20.9205 65.8533 21.027C65.3823 21.7559 64.7372 22.8141 63.9969 23.2765C63.8973 23.3387 63.9124 23.2933 63.8582 23.3796L63.9899 23.4169C63.8014 23.5735 63.5716 23.727 63.3223 23.7713C63.1298 23.8054 62.8487 24.2639 62.5606 24.4243C62.5075 24.405 62.481 24.3898 62.4349 24.3597C62.1169 24.4988 62.0435 24.7946 61.7138 24.8411C61.5235 24.8679 61.4567 24.9877 61.3339 25.1379C61.3638 25.2997 61.4471 25.1166 61.505 25.4787C61.6197 25.6114 62.3552 25.6837 62.5806 25.7187C62.606 25.7424 62.6621 25.7965 62.6706 25.8306C62.7074 25.975 63.1714 25.8913 63.2773 25.9286C63.652 26.0605 64.2448 26.3602 64.5712 26.5859C64.6951 26.6715 64.7217 26.7051 64.8592 26.7897L64.8482 27.5892C64.5181 27.912 64.0703 28.1215 63.731 28.4178C63.1928 28.8879 62.6669 29.3877 62.1335 29.8634C61.9122 30.0607 61.6113 30.3638 61.3774 30.5256C61.1192 30.7042 60.7511 30.8791 60.4697 31.0392C60.1798 31.2042 59.9802 31.3364 59.6568 31.4196C59.8973 31.9146 60.2617 32.1747 60.4752 32.6387C60.7755 33.2862 60.6987 34.0576 60.3259 34.6515C60.1499 34.9481 59.9367 35.2676 59.9769 35.6328C60.05 36.2988 60.2838 36.8926 60.016 37.5569C59.7678 38.1724 59.3621 38.3816 58.7989 38.6412C58.2478 39.8728 57.2372 40.28 55.9179 40.1955C55.5442 41.1711 55.3237 42.2533 54.6623 43.0868C54.4248 43.3863 54.0995 43.6556 53.977 44.0152C53.6226 44.2092 53.2674 44.4006 52.9107 44.5902C52.5939 44.7683 51.9116 45.1245 51.7169 45.1245C51.4735 45.1245 50.6041 45.3533 50.2912 45.3533C50.0408 45.3533 49.2596 45.5485 48.9002 45.6461H47.405C46.9529 45.6461 45.4925 45.9591 45.3186 45.9591H42.5367H40.1026H38.3987C38.1553 45.9591 36.4514 45.9938 36.1385 45.9591C35.8881 45.9312 34.481 45.7388 33.8087 45.6461C33.2407 45.4049 32.0492 44.9225 31.8266 44.9225C31.6041 44.9225 30.1575 44.0835 29.462 43.664L27.5843 43.0868L22.5074 42.0992L21.0976 41.4116C21.1114 41.2519 20.7918 41.2109 20.7566 41.1294C20.6182 40.7255 20.0806 40.0933 19.999 39.7334C19.8344 39.0075 19.749 38.1378 19.6257 37.3894C19.4998 36.6261 19.5673 35.5919 19.6888 34.8302C19.7205 34.6319 19.761 34.3438 19.6436 34.1828L19.5158 34.1758C19.1779 33.9244 19.1942 34.1133 18.935 33.9773C18.8006 33.6364 18.3725 33.6611 18.1175 33.4654C17.4156 32.9268 16.7147 32.3989 15.9793 31.9052C15.7564 31.7556 15.6785 31.7505 15.5632 31.5042C15.2214 31.2762 14.816 31.1278 14.4705 30.902C14.3311 30.811 14.2351 30.6152 14.1037 30.5938C14.0935 30.7016 14.1168 30.6735 14.0637 30.7361L14.019 30.7084C14.0061 30.6566 13.9556 30.4626 13.9196 30.4379C13.4595 30.1232 12.9825 29.817 12.5958 29.4102C12.3803 29.1835 12.108 28.8701 11.9968 28.5742C11.9829 28.5372 11.9895 28.2367 11.9913 28.155L11.9916 28.1445L12.0061 28.2064C12.2549 27.901 12.36 27.6301 12.5307 27.2765C12.4952 27.2815 12.7975 27.238 12.8179 27.2298C13.2589 27.0528 13.7324 26.7202 14.1783 26.515C14.2019 26.5041 14.1439 26.4737 14.2116 26.3751L14.2711 26.409C14.4453 26.3849 14.3843 26.1581 14.6501 26.0827C14.7361 26.0475 14.8487 25.9964 14.9045 25.9204C15.155 25.5794 15.4398 25.6657 15.7711 25.5335C15.7844 25.5282 15.7702 25.4087 15.8914 25.3221C16.239 25.4554 16.0126 25.235 16.2363 25.1657C16.3753 25.1226 16.5349 25.1739 16.692 25.082L16.698 24.9735C16.7747 24.8866 16.8191 24.9024 16.957 24.8677C16.934 24.7658 16.0272 24.4146 15.8624 24.3389C15.326 24.0924 14.7405 23.9058 14.2015 23.665C14.0544 23.5873 13.9139 23.381 13.7771 23.303C12.7103 22.6952 11.8934 21.8796 11.1375 20.9219C10.2171 19.7557 10.0057 18.4376 10.2232 16.9969C10.2819 16.6077 10.2392 16.7301 10.5137 16.5372C10.6141 16.332 10.6169 15.8279 10.8655 15.6511C11.1265 15.4655 11.3206 15.0982 11.5567 14.8286C11.6506 14.8001 11.6836 14.798 11.7618 14.7386L11.7762 14.5811C11.8946 14.4639 11.9189 14.5633 12.0993 14.4529L12.1069 14.3269C12.2162 14.1721 12.3537 14.336 12.5274 14.2019L12.5439 14.0543C12.6858 13.8742 13.1881 13.797 13.4078 13.7075C13.5126 13.6648 13.5364 13.5657 13.573 13.4676C13.7432 13.3855 13.864 13.4975 14.0861 13.427C14.0945 13.3572 14.1028 13.3032 14.1157 13.234C14.3592 13.174 14.5433 13.3061 14.7632 13.2526C14.8107 13.1579 14.8042 13.16 14.8861 13.0951C15.605 13.0043 17.6387 13.0904 18.4658 13.0638C18.6554 13.0577 18.6107 13.2472 18.9506 13.264C19.2397 13.2783 19.6583 13.2579 19.9079 13.316L19.9254 13.4202C20.0726 13.621 20.4941 13.5151 20.5809 13.7835C20.5369 13.8219 20.4935 13.8611 20.4508 13.901C20.4516 14.0181 20.4554 14.0349 20.4292 14.1525C20.2254 14.2443 19.7343 14.1169 19.5597 14.209C19.4413 14.7022 19.157 14.3587 18.8346 14.4874L18.7729 14.6564C18.6619 14.6989 17.8397 14.8213 17.637 14.8635C17.6075 14.9283 17.6008 14.9698 17.5918 15.0404C16.9833 15.0869 17.2698 15.2538 17.0857 15.3946L16.9603 15.3165L16.9091 15.3398L16.8386 15.5301C16.6929 15.636 16.5834 15.5362 16.5607 15.561C16.3746 15.7637 16.3034 15.9282 16.0174 15.981C15.8248 16.0165 15.664 16.4647 15.5196 16.5984C15.4146 16.6956 15.3008 16.7743 15.1832 16.8579C15.1607 17.169 15.1718 17.5577 15.1724 17.8753C15.8216 18.6371 16.4231 19.1099 17.4112 19.375C17.5748 19.5425 17.51 19.5514 17.8326 19.5598C18.3579 19.5736 18.6059 19.8008 19.0429 20.0352C19.1327 20.0833 19.5906 20.0415 19.7152 20.0837C19.8452 20.2807 19.7771 20.2256 20.0817 20.2531C20.3372 20.2883 21.5436 20.224 21.6784 20.2979L21.6435 20.4062C21.7421 20.4973 25.2961 20.453 25.6792 20.4494C25.7096 19.881 25.931 18.7264 26.0921 18.1313C26.1335 18.0909 26.2104 17.9929 26.2174 17.9315C26.4491 15.9041 27.2278 14.1051 28.8192 12.773C29.0351 12.5923 29.2047 12.5614 29.4503 12.3232L29.4983 12.276C29.6579 12.2471 29.7196 12.2703 29.8617 12.1786C30.1764 11.9755 30.4845 11.7349 30.8346 11.5975C31.2552 11.4326 31.7323 11.4908 32.1628 11.3778C32.1664 11.3769 32.318 11.2283 32.3364 11.2101C32.9378 11.1195 34.8164 11.1292 35.4318 11.2056C35.6641 11.4763 35.9353 11.2464 36.2895 11.3527L36.3091 11.4677C36.388 11.5264 36.3642 11.5101 36.4585 11.5303C36.9446 11.6343 37.3074 11.9008 37.8054 12.0511C38.3 11.6946 38.6731 11.762 38.9835 11.188Z" fill="black"/>
<path d="M27.8145 14.8941C28.3319 14.5291 28.1186 14.6791 28.3472 14.2331C28.6533 14.216 28.4667 14.0475 28.6093 13.8408C28.7341 13.6597 28.9711 13.5672 29.1671 13.384C29.1796 13.3236 29.1912 13.274 29.2071 13.2144C29.7566 12.7488 30.5083 12.498 31.1855 12.2716C31.2337 12.197 31.2316 12.1951 31.2531 12.1107C31.3493 12.0724 31.6411 12.1028 31.7815 12.102C31.8145 12.0658 31.9195 11.9439 31.9704 11.9364C32.8096 11.8125 33.7041 11.7357 34.5517 11.7295C34.7657 11.728 34.6436 11.8762 34.9357 11.9006C35.1646 11.9198 35.5561 11.879 35.7406 11.9373L35.7988 12.0634C35.8944 12.1179 36.2316 12.1168 36.3658 12.1262C37.1782 12.3719 38.4276 13.1939 39.0825 13.7463C39.5129 14.1093 40.6857 15.4423 40.8049 15.9849L40.8185 16.0497C40.9395 16.1278 40.9517 16.0486 40.976 16.083C41.1999 16.4018 41.3242 16.853 41.482 17.213C41.4979 17.2484 41.582 17.2473 41.6196 17.2482C41.6639 17.3305 42.0707 18.9556 42.0873 19.0901C41.4787 19.1367 41.0597 19.113 40.4593 19.0717L40.211 18.856C39.8608 18.8043 39.2117 18.697 38.8778 18.7304C38.8125 18.7142 38.1864 18.4804 38.1649 18.4605C38.0666 18.071 37.5108 18.528 37.3528 18.1848C37.3517 18.1824 37.1392 18.1444 37.1127 18.1415C36.0303 17.9959 34.9979 17.9399 33.9092 18.0653C33.7066 18.0886 33.3674 18.0953 33.1799 18.1488C33.153 18.1914 33.1261 18.2339 33.0993 18.2764C32.7794 18.3984 32.4264 18.4484 32.0983 18.5444C31.9363 18.5918 31.9609 18.7046 31.924 18.7157C31.6446 18.7991 31.3143 18.8649 31.0333 18.9333C30.9413 18.9557 30.7862 18.9943 30.8248 19.0513C30.8378 19.0704 30.7881 19.155 30.7794 19.172C30.5056 19.2126 30.0821 19.1645 30.255 19.6327C30.3737 19.6915 31.5272 19.3632 31.7882 19.3401C31.9195 19.3284 31.8356 19.1692 32.0177 19.1312C32.3029 19.0719 32.6191 19.0977 32.897 19.0381C33.1384 18.9864 33.0988 18.9366 33.1655 18.8133C33.1732 18.799 33.5648 18.7346 33.6396 18.717C34.3815 18.5419 35.236 18.4535 35.9935 18.5595C36.1262 18.578 36.0661 18.7978 36.19 18.8254C36.4031 18.8728 36.6069 18.7831 36.8322 18.7833C36.9597 18.7835 36.9831 18.9119 37.0156 18.9177C37.4038 18.987 37.8163 19.0239 38.2055 19.107C38.2491 19.1163 38.4346 19.0832 38.4791 19.0724C38.5 19.069 38.5209 19.0656 38.5418 19.0621C38.5543 19.0598 38.5668 19.0574 38.5793 19.055C38.8759 19.1441 39.0972 19.3341 39.2237 19.3636C39.3213 19.6341 39.4937 19.8344 39.5785 20.1275C39.6644 20.4245 39.5515 21.2227 39.7261 21.4366L39.6814 21.5335C39.2495 21.6779 38.9603 21.3025 38.6117 21.3176C37.4588 21.3677 36.1645 21.2348 35.0241 21.3533L35.0018 21.4009L35.0513 21.5041C34.8845 21.6276 34.4961 21.5278 34.287 21.5446C34.0694 21.562 34.262 21.7363 34.021 21.7425C33.8073 21.748 33.6758 21.6544 33.4869 21.7546L33.4829 21.798C33.4758 21.8682 33.4786 21.8424 33.4654 21.9232C33.2343 22.0654 32.9179 22.0582 32.6793 22.1573C32.5261 22.2209 32.2427 22.4494 32.0763 22.5007C31.875 22.5627 31.2759 22.474 31.1377 22.6267L31.1984 22.726C30.9202 22.944 29.6858 22.776 29.5381 22.945L29.5979 23.0334C29.4917 23.147 29.3429 23.1635 29.1964 23.1731C29.1187 23.2896 29.1442 23.4187 29.1469 23.5814C29.288 23.5975 29.8397 23.6384 29.9232 23.6823C29.8802 23.7488 29.8975 23.7206 29.8101 23.7648L29.8295 23.8228C30.1058 23.9501 30.184 23.8655 30.3038 24.1542L30.3551 24.1486L30.414 24.0521C30.542 24.1423 30.5817 24.4374 30.6531 24.4736C31.1753 24.7383 31.4669 25.249 31.8814 25.6488C32.1423 25.9005 32.4409 26.1371 32.6966 26.397C32.9874 26.674 33.2939 27.1513 33.6791 27.2389C33.7134 27.2478 33.7476 27.2566 33.7819 27.2655C34.0608 27.5246 34.3735 27.9393 34.6704 28.1241C34.9609 28.3048 35.5453 28.4346 35.8816 28.5447C36.4195 28.7206 36.9454 28.908 37.4863 29.069C38.4013 29.2065 39.6135 29.2773 40.5393 29.2602C40.7916 29.2556 41.4647 29.2212 41.6867 29.1902C42.1404 29.5277 41.9612 29.9876 41.994 30.5106C41.3164 31.0211 39.9322 31.4624 39.1125 31.7834C38.8547 31.8844 38.4583 31.7936 38.3021 32.0523C38.2977 32.1836 38.279 32.1269 38.3562 32.2293C38.9451 32.529 41.4618 31.3813 42.1172 31.0835C42.2245 31.7166 42.5115 32.499 42.6653 33.1683C42.8921 34.1528 42.8231 34.6322 42.8785 35.5388C42.3359 35.766 41.579 35.7263 40.9793 35.9173C39.1928 36.4864 39.3603 38.3767 39.4534 39.8613C39.9344 40.6056 40.1457 40.6742 40.9959 40.9113C41.5381 41.0626 41.9449 41.0718 42.503 41.0851C42.3484 42.6264 42.1485 43.0141 41.2242 44.3161C41.0793 44.5201 41.1423 44.6462 40.8856 44.859C40.6555 45.0493 40.3154 45.2264 40.1302 45.4289C40.1136 45.4484 40.0893 45.4805 40.0668 45.4868C39.6907 45.5923 39.0373 45.5045 38.6353 45.5233C37.2681 45.5875 35.8583 45.4728 34.5319 45.1386C34.1387 45.0309 33.7466 44.814 33.363 44.6927C32.35 44.3733 31.4136 43.9391 30.4563 43.4858C30.1258 43.3294 29.744 43.1801 29.3941 43.0735C28.7099 42.8651 27.9787 42.8013 27.2799 42.65C26.7513 42.5379 26.2548 42.3196 25.7322 42.1857C24.5854 41.9574 23.4175 41.7445 22.3018 41.379C21.8811 41.2411 21.7013 40.8682 21.1847 40.6436L21.1348 40.6222C21.0389 39.6765 20.8471 39.9623 20.5985 39.1601C20.1534 37.7242 20.053 35.9608 20.1951 34.465C20.9546 34.4162 21.8559 34.6729 22.61 34.5928C22.6919 34.5841 22.7394 34.4654 22.7765 34.3948C22.8384 34.3535 23.1661 34.3965 23.2994 34.3935C23.7031 34.1013 23.6075 34.3636 23.9555 34.2243C24.0445 34.0944 24.0455 34.0831 24.0891 33.9289L24.0686 33.8589C24.1646 33.7995 24.8412 33.6908 24.9735 33.6763L25.0179 33.6107C25.0269 33.4863 25.0363 33.4553 24.9959 33.3345C24.8908 33.2908 24.7212 33.3765 24.5447 33.4242C24.0688 33.5528 23.443 33.7982 22.961 33.8301C22.9343 33.8319 22.7499 34.0358 22.4408 34.0671C21.8608 34.1259 21.3819 34.118 20.8133 33.9943C20.5746 33.9364 20.374 33.5393 19.9789 33.6575C19.892 33.6835 19.8314 33.5638 19.7818 33.4875C19.5784 33.3749 19.1436 33.4804 19.052 33.3868C19.0957 33.3666 19.139 33.3456 19.182 33.3237C18.964 33.09 18.2042 32.9191 17.9238 32.7C17.5806 32.4316 17.3105 32.1038 16.9716 31.8187C16.6686 31.5637 16.3333 31.4208 16.0422 31.2033C15.7812 31.0154 15.5122 30.7043 15.2452 30.5336C14.592 30.1158 13.9166 29.9374 13.3774 29.3213C13.2413 29.1658 12.9014 28.9824 12.7741 28.8084C12.6368 28.6206 12.5739 28.0818 12.7742 27.9296L12.8809 27.9703C13.0398 27.9062 12.9813 27.727 13.2233 27.5901C13.2456 27.6886 13.2551 27.7663 13.2982 27.8563C13.3605 28.0461 13.3448 28.272 13.3423 28.4733C13.5191 28.7057 13.6917 28.9736 14.029 28.9193C14.2713 28.7162 14.1091 28.4648 13.9966 28.2424C14.0887 28.1849 14.1799 28.126 14.2704 28.0659C14.3 27.7344 14.7159 27.8923 15.0056 27.8322C15.024 27.7802 15.0409 27.7277 15.0563 27.6747C15.4587 27.5758 16.9762 27.4653 17.4145 27.4465C17.5113 27.4974 17.6007 27.556 17.6937 27.6138C17.9524 27.6309 18.2691 27.5911 18.5023 27.6399C18.7102 27.9267 19.24 28.0022 19.5415 28.2459C20.0336 28.6437 21.4338 29.6126 21.7234 30.0668L21.9567 30.0543C22.3038 30.0323 22.5999 30.2335 22.9722 30.293C23.2917 30.3439 23.5917 30.3831 23.9123 30.4225C24.1996 30.0925 24.2689 30.2308 24.6594 30.1638C25.1325 30.0824 25.3274 29.3715 25.3939 28.9809L25.3398 29.0181C25.004 29.2541 24.3403 29.523 24.1729 29.7016C23.4118 29.7286 22.3822 29.7231 21.7487 29.2111C21.7381 29.116 21.7469 29.1634 21.7219 29.0689C21.6216 29.0442 21.5894 29.0557 21.4887 29.0709L21.4541 29.0763L21.3925 29.0296L21.4374 28.9039C21.3742 28.8284 21.3028 28.7643 21.2315 28.6964C21.2084 28.6049 21.2139 28.6076 21.1547 28.5356C20.8365 28.5584 20.9293 28.473 20.6767 28.2916C20.1162 27.8892 19.5375 27.2958 18.8817 27.0763C18.6711 27.0059 18.2427 27.0497 18.0094 27.0171C17.7888 26.9972 17.7552 26.8451 17.5913 26.8422C16.715 26.8265 15.7851 26.958 14.9156 27.0614C14.656 27.0923 14.4365 27.4048 14.1851 27.3849L14.2802 27.2153L14.255 27.1812C14.093 27.195 14.1513 27.1606 14.0551 27.2507C14.0325 27.3524 14.03 27.3877 13.9836 27.4817L13.9391 27.4648C13.9373 27.4589 13.8978 27.3326 13.8983 27.3203C13.9111 26.9875 14.9343 26.7516 15.1151 26.4787C15.1896 26.3662 15.2798 26.2747 15.3712 26.2517L15.3412 26.3736C15.454 26.3692 16.5083 25.9374 16.6594 25.8613C16.7733 25.6833 16.6086 25.8471 16.6721 25.6487C17.4178 25.44 18.8159 25.4794 19.6217 25.3853C19.686 25.3778 19.7264 25.5611 20.0691 25.5548C20.4569 25.5477 20.9127 25.5497 21.2944 25.6149C21.6668 25.7243 22.1024 25.9675 22.4686 26.1065C23.4353 26.4735 24.1059 27.2092 25.0876 27.5468C24.8573 26.8518 24.3321 26.5155 23.761 26.0957C23.8127 26.0189 24.0043 25.6862 24.0537 25.6447C24.2359 25.4918 24.4515 25.4829 24.5884 25.2218C24.6829 25.0414 24.7729 24.8163 24.8673 24.6353C25.0314 24.3207 25.1863 24.0345 25.3295 23.711C25.416 23.5155 25.5116 22.9474 25.5796 22.836L25.6866 22.8564C25.8416 22.6822 25.8218 21.7084 25.9463 21.319C26.2949 21.0574 26.0436 20.7655 26.1321 20.3722C26.1772 20.1716 26.3123 20.2536 26.3493 20.0885C26.3714 19.99 26.32 19.724 26.3484 19.6443C26.4162 19.4548 26.4932 19.6048 26.555 19.2956C26.6626 18.757 26.6966 18.2206 26.7877 17.6782C26.8571 17.2655 26.9713 17.5075 27.0282 17.2596C27.0492 17.1679 26.9684 16.9012 27.0645 16.7498C27.1387 16.7879 27.1082 16.7829 27.1886 16.7804C27.3204 16.472 27.0664 16.0584 27.4152 15.9391C27.4824 15.8418 27.458 15.6972 27.463 15.5521C27.5506 15.4955 27.5415 15.5059 27.6449 15.4866C27.7371 15.3317 27.7745 15.0784 27.8145 14.8941Z" fill="#C15300"/>
<path d="M36.3653 12.1262C37.1777 12.3719 38.4271 13.194 39.082 13.7464C39.5124 14.1094 40.6852 15.4424 40.8044 15.9849L40.818 16.0498C40.939 16.1278 40.9512 16.0487 40.9755 16.0831C41.1994 16.4019 41.3237 16.8531 41.4816 17.2131C41.4974 17.2485 41.5815 17.2473 41.6191 17.2483C41.6634 17.3306 42.0702 18.9557 42.0868 19.0901C41.4782 19.1367 41.0592 19.1131 40.4588 19.0718L40.2105 18.8561C39.8604 18.8044 39.2112 18.6971 38.8773 18.7305C38.8834 18.2852 38.817 18.146 38.7432 17.7202C38.6795 17.3535 38.8043 16.8874 38.7089 16.4946C38.6251 16.4649 38.6064 16.4587 38.5296 16.415C38.468 16.1265 38.565 15.886 38.5041 15.5548C38.1328 15.319 38.2611 14.7118 37.8932 14.2081C37.7947 14.1697 37.7927 14.1755 37.7173 14.1043C37.7104 13.9417 37.7251 13.8768 37.635 13.7521C37.4535 13.5451 37.3132 13.318 37.1763 13.081C37.0129 12.8216 36.8545 12.7925 36.6131 12.6215C36.3389 12.4273 36.3671 12.4354 36.3653 12.1262Z" fill="#FEFEFE"/>
<path d="M37.1777 13.0808C37.6503 13.1426 37.6546 13.3219 37.6365 13.752C37.455 13.5449 37.3147 13.3179 37.1777 13.0808Z" fill="#F4D9B4"/>
<path d="M58.1978 31.8963C59.1531 31.8292 59.793 32.1029 60.0527 33.1186C60.2943 34.0628 59.5109 34.6332 59.4076 35.506C59.3475 36.01 59.5725 36.4719 59.5507 36.9702C59.5326 37.3073 59.3217 37.6477 59.0509 37.8479C58.1344 38.5257 57.116 38.3892 56.0729 38.2015C55.5772 38.1322 55.083 38.0779 54.595 37.961C53.8765 37.789 53.1669 37.5772 52.4465 37.4138C51.8545 37.2797 51.2367 37.1581 50.6278 37.1768C49.6633 37.2063 48.7449 37.5632 47.8242 37.8146C46.3839 38.2188 44.906 38.5364 43.403 38.5231C42.1983 38.5272 41.8376 37.7867 41.3198 37.7182L41.2873 37.7676C41.2951 37.9625 41.3356 38.0687 41.4548 38.2317C42.6432 39.8565 46.5034 38.6319 48.1057 38.2834C48.9724 38.0897 49.9805 37.6673 50.8771 37.7143C52.1692 37.7821 53.5475 38.2598 54.8152 38.5379C55.1907 38.6201 55.5525 38.6338 55.9276 38.6954C56.2264 38.7444 56.5004 38.8282 56.7966 38.882C57.0695 38.878 57.7062 38.8451 57.9315 38.934L57.9348 38.9916C57.6442 39.5588 55.3371 39.8012 54.8657 39.6234C53.3188 39.0402 52.0784 38.8824 50.4367 39.1461C50.1343 39.1948 49.6467 39.1583 49.3298 39.249C47.0685 39.8963 44.7666 40.6484 42.385 40.5897C41.4282 40.5654 40.6278 40.3658 39.9591 39.6359C39.923 38.3453 39.7379 37.8424 40.5603 36.7565C40.9026 36.5967 41.3777 36.3619 41.738 36.2885C42.2625 36.1817 42.7951 36.1663 43.324 36.032L43.3819 36.017C43.5885 35.7692 43.9584 35.5806 44.1443 35.2737C44.6338 34.4661 44.6065 33.5309 45.2457 32.8008C46.5182 31.3481 49.5065 32.2011 51.1213 32.5172C51.9224 32.674 52.8449 32.7192 53.6733 32.6959C55.2999 32.6501 56.5923 31.9897 58.1978 31.8963Z" fill="#F4D9B4"/>
<path d="M47.047 32.5473C47.0846 32.5465 47.1226 32.5462 47.1602 32.5465C48.4087 32.5566 49.4168 33.4907 50.2386 34.327L50.2297 34.7828C49.9055 34.9556 49.7502 34.9848 49.3899 34.9653C48.6592 34.8981 47.8857 34.8414 47.1635 34.7269C46.6051 34.6383 46.4248 34.4161 46.1341 33.9937C46.119 33.7714 46.1242 33.5018 46.1231 33.2745C46.4255 32.871 46.5885 32.7526 47.047 32.5473Z" fill="black"/>
<path d="M58.1812 32.5205C58.5965 32.4967 58.7356 32.496 59.1361 32.5981C60.534 34.2327 57.9809 34.3719 57.0769 34.724L57.022 34.7457C56.8977 34.8153 56.77 34.8993 56.6487 34.9756C56.461 34.9875 56.3086 35.0047 56.1216 34.9598C55.8885 34.9149 55.7819 34.6055 55.9166 34.4231C56.4119 33.7535 57.4033 32.7718 58.1812 32.5205Z" fill="black"/>
<path d="M16.9799 13.6062C17.3804 13.5928 18.5995 13.5511 18.8476 13.9171C18.7431 14.2569 17.9859 14.0087 17.7357 14.2217C17.7278 14.2674 17.7175 14.3762 17.6792 14.4084C17.5436 14.5223 16.3284 14.9522 16.279 15.0162L16.3336 15.0713L16.3215 15.1462C16.228 15.2726 16.2346 15.2701 16.1028 15.3524L15.9421 15.3001C15.6485 15.4005 15.123 16.1414 14.9347 16.3874C14.8313 16.5225 14.7911 16.3792 14.6915 16.5368C14.7161 16.6382 14.7347 16.6736 14.7157 16.7754L14.5895 16.8383C14.5603 16.8952 14.5497 16.9167 14.5449 16.9813C14.4237 17.8909 14.7416 18.2285 15.2744 18.894C15.569 19.2619 16.0118 19.2626 16.314 19.6308C16.558 19.6458 16.6696 19.639 16.8823 19.7802C17.579 20.2426 18.5138 20.3988 19.3208 20.5796C19.5919 20.6404 19.6127 20.5707 19.7913 20.7662C20.1791 20.8473 20.5609 20.7686 20.9414 20.7912C21.2045 20.8069 21.5708 20.9995 21.8609 21.016C22.0419 21.0434 22.3782 20.9194 22.5392 20.9407C23.5108 21.0693 24.463 21.0387 25.4431 21.0385C25.4189 21.3065 25.3592 21.8231 25.2688 22.0663C25.1855 22.1325 25.2303 22.105 25.1125 22.1239C25.0357 22.3052 25.1297 22.4093 25.0737 22.6506C25.0125 22.6776 24.9579 22.6892 24.892 22.7002C24.8121 22.9112 24.9471 23.1365 24.8509 23.328C24.4755 23.3184 24.6114 23.7765 24.4272 24.1205C24.1593 24.6204 23.6189 25.0554 23.3613 25.5143L23.3389 25.545C22.9321 25.7541 22.3481 25.2362 21.9925 25.1542C21.7648 25.1017 21.3163 24.9321 21.113 24.9182C20.5087 24.8766 18.5818 24.8503 18.1455 24.5004C18.0457 24.0948 17.3375 24.4126 17.0679 24.067C17.0155 23.9999 16.3837 23.8686 16.1834 23.7767C15.7652 23.5849 15.496 23.3719 15.1294 23.1036C15.0763 23.1013 14.848 23.093 14.7951 23.0634C14.2595 22.7635 13.6546 22.4905 13.1852 22.0873C13.1591 22.0149 13.1382 21.9569 13.1224 21.9133L13.0045 21.8694C12.9115 21.8872 12.9015 21.8975 12.8111 21.878C12.7251 21.7757 12.7026 21.6324 12.6679 21.4994C12.1983 21.0895 11.7474 20.9413 11.6009 20.2889C11.5515 20.0692 11.5042 20.227 11.372 20.1759C10.9761 19.2538 10.6649 18.5809 10.7864 17.4972C10.7971 17.4017 10.9553 17.1997 10.9693 17.105C11.0043 16.8667 11.0356 16.6215 11.0799 16.3839C11.1174 16.1824 11.2314 16.3756 11.3068 16.2325C11.3843 16.0853 11.4383 15.7835 11.581 15.6996L11.7081 15.7433C11.77 15.6737 11.7542 15.5091 11.7596 15.3933C12.1602 15.1122 11.8774 15.0984 12.2019 14.8353C12.2983 14.7572 12.5746 14.7641 12.7732 14.6187C12.966 14.2075 13.0934 14.4403 13.4213 14.2187C13.4444 14.2031 13.4491 14.0462 13.5209 14.0434C13.6975 14.0362 13.846 14.1101 13.9926 14.0335C14.0858 13.6558 14.4384 13.8857 14.7816 13.7972L14.8515 13.6562C15.1053 13.5683 16.6209 13.6057 16.9799 13.6062Z" fill="#F4D9B4"/>
<path d="M45.1283 13.1283C45.5599 13.0936 46.2193 13.1095 46.597 13.0511C46.6413 12.9637 46.6343 12.9665 46.7066 12.899C47.6615 12.8157 48.6618 12.8401 49.6223 12.8681C49.8295 12.8741 50.1091 12.9983 50.3573 13.0303C51.0091 13.1143 52.1599 13.514 52.6921 13.8699C53.0392 14.102 52.8964 14.6009 53.5961 14.8126C53.578 14.957 53.5389 15.1147 53.5939 15.2432L53.6363 15.2705C53.9255 15.459 53.7805 15.5529 53.8078 15.8616C53.8171 15.9628 53.8849 15.9888 53.9521 16.045C54.0207 16.4298 54.0092 17.3868 54.0092 17.7217C53.7971 17.7268 53.4091 17.6949 53.2251 17.7808C53.0536 17.8608 52.9455 17.9714 52.7482 18.0058C52.449 18.0579 51.0711 18.1262 50.9574 18.2424C50.922 18.2783 50.9158 18.2882 50.887 18.3253C50.5694 18.3183 49.9114 18.2792 49.6333 18.3711C49.5979 18.4058 49.5555 18.448 49.5053 18.4977C49.083 18.5519 48.408 18.5338 47.9975 18.5317L47.1603 18.5267C46.4727 18.5206 45.1671 18.4769 44.5319 18.5611C44.4814 18.6126 44.4652 18.6454 44.4353 18.711C44.0687 18.807 43.8053 18.5855 43.4523 18.8927C43.3929 18.9446 42.6656 19.0601 42.6357 18.9551C42.4723 18.3802 42.4413 17.7594 42.2731 17.1871C42.1459 16.7869 41.7409 16.3525 41.5558 15.9662C41.3164 15.4061 41.0589 15.0631 40.6657 14.6081C40.6101 14.5433 40.6462 14.4647 40.6772 14.398C40.8948 14.2302 41.1268 14.248 41.4023 14.2317C41.9519 13.7335 42.0268 13.8887 42.7383 13.755C42.9123 13.7223 42.9253 13.5799 43.1912 13.5112C43.5744 13.4124 44.4227 13.4805 44.7318 13.2765C44.9494 13.133 44.7208 13.1648 45.1283 13.1283Z" fill="#C15300"/>
<path d="M41.4023 14.2316C41.9519 13.7334 42.0268 13.8886 42.7383 13.7549C42.9123 13.7222 42.9253 13.5798 43.1912 13.5111C43.5744 13.4123 44.4227 13.4804 44.7318 13.2764C44.9494 13.1329 44.7208 13.1647 45.1283 13.1282C45.8608 14.0846 46.4296 15.0251 46.6601 16.2279C46.8143 17.0331 46.9065 17.7385 47.1603 18.5266C46.4727 18.5205 45.1671 18.4768 44.5319 18.561C44.4814 18.6125 44.4652 18.6453 44.4353 18.7109C44.0687 18.8068 43.8053 18.5854 43.4523 18.8926C43.3929 18.9445 42.6656 19.06 42.6357 18.955C42.4723 18.3801 42.4413 17.7593 42.2731 17.187C42.1459 16.7868 41.7409 16.3524 41.5558 15.9661C41.3164 15.406 41.0589 15.063 40.6657 14.608C40.6101 14.5432 40.6462 14.4645 40.6772 14.3979C40.8948 14.2301 41.1268 14.2479 41.4023 14.2316Z" fill="#FEFEFE"/>
<path d="M42.5036 41.0849C43.5493 41.1026 44.5934 41.0064 45.6181 40.798C46.4491 40.6316 47.2719 40.4288 48.0845 40.189C48.3888 40.102 49.2021 39.8512 49.4687 39.7933C50.0202 39.6738 52.6599 39.4274 53.0247 39.6243C53.1033 39.728 53.1328 39.7675 53.3036 39.7711C53.7904 39.7815 54.0929 40.0522 54.5362 40.1647C54.6686 40.1983 55.0401 40.185 55.2005 40.1809C55.1776 40.4863 55.1684 41.1078 54.863 41.2483C54.8317 41.4003 54.8497 41.5877 54.7656 41.6998C54.4883 41.827 54.6384 41.8248 54.5963 42.0413C54.572 42.1664 54.2588 42.3615 54.2013 42.4876C54.1183 42.6333 54.2467 42.6488 54.1194 42.7971C53.7897 42.9044 53.9892 43.0014 53.8808 43.1781L53.883 43.1139C53.8719 43.1224 53.8605 43.1309 53.8494 43.1394C53.36 43.5156 53.2139 43.8107 52.595 44.1563C52.3379 44.2997 51.8817 44.3451 51.7021 44.5443C51.549 44.7139 50.4753 44.8722 50.2271 44.8906C49.9342 44.9124 49.5458 44.8744 49.2685 44.9434C49.1294 44.9777 49.2268 45.0282 49.1582 45.0938C49.1549 45.0972 46.5785 45.3133 46.3602 45.3174C45.811 45.3281 43.7658 45.2572 43.4202 45.4206C43.1605 45.5435 40.5015 45.6106 40.2268 45.4996C40.1866 45.4833 40.1637 45.4572 40.1309 45.4288C40.316 45.2263 40.6561 45.0492 40.8862 44.8589C41.143 44.6461 41.0799 44.5199 41.2248 44.316C42.1491 43.014 42.3491 42.6263 42.5036 41.0849Z" fill="#FEFEFE"/>
<path d="M56.6869 23.4895C56.9536 23.484 57.4121 23.4577 57.6581 23.5099C57.8322 23.6218 57.6407 23.7088 58.0258 23.6715C58.5422 23.6214 58.4839 23.6473 58.8 23.9414C58.8033 23.9446 59.2164 24.0263 59.3311 24.0869C59.4248 24.3975 59.4746 24.1642 59.6516 24.3359C59.6878 24.6926 59.7398 24.5954 60.0079 24.7987C60.13 25.1074 59.541 25.3933 59.8132 25.5907C59.8962 25.572 59.9685 25.5568 60.0526 25.5422C60.2979 25.884 59.8781 26.7802 59.8818 27.1109C59.6185 27.4531 58.7192 28.6689 58.322 28.6688C58.0697 28.414 58.2925 27.7165 58.2294 27.3856C58.2095 27.2823 58.1106 27.265 58.0144 27.2228C57.9096 27.0683 58.0103 26.7753 57.9273 26.6171C57.6677 26.1234 57.4475 25.5497 57.0856 25.1241C57.0576 25.0913 56.7895 24.9876 56.7363 24.9668L56.6818 24.8101C56.6239 24.7938 56.2436 24.7655 56.2609 24.7806C56.0507 24.5963 56.1322 24.5174 55.777 24.3754C55.4712 24.4165 55.0714 24.4815 54.7763 24.5728C54.624 24.5837 54.6572 24.81 54.5451 24.788C53.9929 24.6796 54.1047 25.0408 53.8989 25.1534C53.7565 25.1257 53.6942 25.0824 53.6097 25.2035C53.609 25.2395 53.6042 25.3827 53.5983 25.407C53.5518 25.5914 53.0697 25.89 52.9015 26.0078C52.7156 26.4575 51.978 28.145 51.7235 28.4267L51.7205 28.9858L51.7176 29.8832C50.7276 29.8921 49.3242 29.974 48.4161 29.7883C47.3737 29.5752 46.147 29.1411 45.4008 28.3911C45.2699 28.2593 44.8811 28.1121 44.6875 27.951C44.745 27.78 44.9313 27.5622 45.0254 27.387C45.1906 27.0788 45.441 26.5374 45.5344 26.2127C45.5495 26.1601 45.5414 25.5517 45.5403 25.4633C45.9814 25.4936 46.4214 25.537 46.86 25.5934C47.238 25.6423 47.6434 25.7085 48.0244 25.7111C48.1686 25.7121 48.4139 25.5387 48.5566 25.5368C48.8985 25.5323 49.2412 25.5664 49.5831 25.5362C49.8321 25.5142 49.648 25.3639 49.8568 25.3459C50.0334 25.3307 50.3082 25.4008 50.4713 25.3336C50.5048 25.2323 50.4823 25.2643 50.5587 25.193C50.6789 25.1956 50.784 25.2137 50.8851 25.1574C50.8906 25.1296 50.9139 25.0096 50.9201 25.0077C51.3052 24.8894 51.8142 24.9471 52.1642 24.7257C52.2664 24.661 52.4479 24.4494 52.515 24.3736C53.0579 24.2035 53.5699 24.2941 54.115 24.1927C54.1552 24.1852 54.1784 24.0821 54.1995 24.0271C54.3086 23.9601 54.9228 23.9929 55.098 23.9962C55.2488 23.8548 55.3215 23.8088 55.4919 23.6965C55.8024 23.6714 56.1713 23.7382 56.4715 23.6661C56.5903 23.6375 56.4708 23.548 56.6869 23.4895Z" fill="#FEFEFE"/>
<path d="M36.8549 21.9036C37.2121 21.9006 38.4848 21.8847 38.7685 21.9662C38.7812 21.9929 38.8445 22.1179 38.8546 22.1185C39.6586 22.1661 40.2548 22.0105 40.9976 22.502C41.4162 22.5351 41.6508 22.3713 41.9617 22.7248C42.4685 22.8169 42.2638 22.9597 42.4538 23.007C42.782 23.0887 43.4408 23.2223 43.7927 23.4469C43.9951 23.5763 43.8664 23.6837 44.0427 23.7647C44.4429 23.7109 44.5927 23.8858 44.967 24.1105C44.9822 25.4593 45.0615 27.0224 43.8199 27.8831C43.6776 27.9817 43.2446 28.2728 43.1 28.2468C43.0539 28.1045 43.0944 26.9798 43.1007 26.734C43.1192 26.0378 42.6496 24.9852 42.1971 24.5106C41.9212 24.2213 40.6815 23.684 40.2514 23.6336C40.0098 23.6053 39.4454 23.6101 39.1732 23.612C39.0531 23.6141 38.6765 23.5974 38.6271 23.6764C38.4632 23.9385 38.2989 23.7948 37.9651 23.8569C37.9179 23.9528 37.9257 23.9655 37.8344 24.0126C37.7012 23.9993 37.6689 23.995 37.5376 24.0036L37.4821 24.1481C37.334 24.2408 37.0021 24.31 36.8196 24.3568C36.6149 24.7184 36.6433 24.6634 36.2383 24.8159C36.2321 24.96 36.2591 25.1327 36.1795 25.239C35.7266 25.3225 36.0501 25.6075 35.8645 25.869C35.5056 26.0461 35.7222 27.2774 35.6518 27.7648C35.5585 27.8155 35.3757 27.7981 35.2795 27.7566C35.223 27.6479 35.2274 27.6389 35.1252 27.5653C34.6341 27.5688 34.754 27.4037 34.3704 27.0787C34.2101 26.943 34.1581 27.0557 34.1174 27.0269C33.917 26.8853 33.6504 26.3147 33.4252 26.2604C33.0953 26.1809 32.8696 25.6666 32.56 25.474C32.4472 25.4039 32.5963 25.3291 32.4019 25.1597C32.1004 24.8969 30.7246 23.7914 30.5312 23.5047L30.5559 23.4683C30.672 23.4603 30.75 23.454 30.8644 23.4349C30.9039 23.4008 31.0247 23.2943 31.0729 23.2927C31.5049 23.2786 31.8924 23.1927 32.3082 23.0683L32.368 22.9336C32.5184 22.8591 32.6493 22.9811 32.8587 22.9054L32.893 22.7777C33.014 22.6951 33.5635 22.6243 33.7422 22.5612C33.9804 22.4771 33.9166 22.5386 34.0329 22.3403C34.1291 22.296 35.3512 22.1697 35.5352 22.1094C35.6535 22.0706 35.6148 22.0832 35.7014 21.9404C35.9304 21.891 36.5803 21.905 36.8549 21.9036Z" fill="#FEFEFE"/>
<path d="M47.8359 19.1681C48.5412 19.0489 49.0516 19.188 49.7314 19.1233C49.7727 19.1193 49.8856 18.991 49.9228 18.9492C50.5126 18.8251 51.4081 18.8805 52.0304 18.8176C52.2461 18.8114 52.2849 18.6171 52.4708 18.5663C52.5504 18.5451 52.9823 18.5669 53.0233 18.5418C53.4235 18.297 53.6156 18.3745 54.042 18.319C54.6266 18.2428 55.9257 18.3524 56.369 18.7875L56.3329 18.917L56.3716 18.9584C56.4306 18.9532 56.504 18.9468 56.5914 18.9392C57.0606 19.1444 57.1222 19.4867 57.6371 19.5874C58.0159 19.9249 58.73 21.373 58.8159 21.8979C58.2294 21.9225 57.6563 21.9084 57.0735 21.9544C56.7663 21.9787 56.6276 22.1366 56.4258 22.1379C55.8858 22.1414 55.3241 22.1431 54.7852 22.1484C54.3928 22.1523 53.9092 22.2518 53.5201 22.2647C52.7717 22.2896 50.1545 22.4021 49.5459 22.7029C49.5012 22.6917 49.3242 22.6473 49.3039 22.6054C48.7717 21.5097 48.4766 20.2086 47.8359 19.1681Z" fill="#C15300"/>
<path d="M62.501 14.0356C62.6242 14.0303 62.9805 14.0024 63.0642 14.0598C63.3719 14.27 63.6581 14.2178 64.0347 14.2032C64.3747 14.7802 64.4691 14.4581 64.9431 14.8772C65.0372 14.9604 64.887 14.9504 64.9966 15.0822C65.3485 15.0953 65.2817 15.4799 65.4156 15.796C65.4875 15.8212 65.4986 15.8251 65.5642 15.8634C65.6634 16.1769 65.6266 16.5407 65.7022 16.7938C65.849 17.2868 65.9375 17.4379 65.9098 17.9855C65.8707 18.7591 65.7339 19.5034 65.4573 20.2299C65.3846 20.4204 65.3938 20.5553 65.1983 20.6029C65.1829 20.6094 64.9922 21.2584 64.8841 21.3597C64.4227 21.3543 64.6609 21.7522 64.4714 21.9689C63.8023 22.7326 63.0325 23.4631 62.1606 23.9912C61.9175 24.1384 61.964 23.9631 61.7508 24.0855C61.251 24.4241 61.3657 24.4851 60.7874 24.591C60.6343 24.5834 60.4853 24.4846 60.3994 24.3577C60.1766 24.0284 60.3352 23.5128 60.2832 23.1486C60.2426 22.8627 60.1257 22.8853 60.1633 22.5267C60.0099 22.4508 59.8428 22.3774 59.6864 22.3053C59.4327 21.9062 59.3714 21.6726 59.2383 21.2139C59.7805 21.0874 60.0538 20.9473 60.5595 20.7597C60.7712 20.6812 61.0581 20.7284 61.2573 20.6579C61.4015 20.6001 61.278 20.4124 61.4506 20.3647C61.9865 20.2165 62.3306 19.9188 62.7179 19.539C62.8953 19.3648 62.9672 19.355 63.2085 19.2853C63.2715 18.8522 63.3342 19.0845 63.5076 18.791C63.5614 18.7002 63.5419 18.4832 63.6662 18.2853C63.6898 18.275 63.8661 18.197 63.8709 18.187C63.9672 17.9711 63.8395 17.4927 63.9262 17.3073C63.9498 17.2889 64.0667 17.2029 64.0679 17.1739C64.1003 16.5133 63.7023 15.8304 63.4563 15.2275C63.432 15.1682 63.342 15.2466 63.2276 15.1758C63.1852 15.0093 63.204 14.9733 63.0915 14.904C62.8924 14.9052 62.795 14.9342 62.6972 14.7256C62.5877 14.4912 62.2923 14.4206 62.0662 14.3331C62.3321 14.2557 62.3804 14.2747 62.501 14.0356Z" fill="#F4D9B4"/>
<path d="M44.924 28.8555C45.3563 29.1178 45.7569 29.5125 46.2213 29.7142C48.6062 30.7504 51.3208 30.4676 53.8156 30.2869L54.328 30.2874C54.8384 31.0006 54.8805 31.2568 55.5566 31.8243C54.4452 32.0835 53.8038 32.224 52.6449 32.1418C52.0559 32.0971 51.4702 32.0191 50.89 31.9083C49.0395 31.5446 45.9727 30.6413 44.5729 32.6608C43.9083 33.6201 44.2627 35.0143 42.8785 35.5388C42.8231 34.6321 42.8921 34.1527 42.6653 33.1683C42.5115 32.4989 42.2245 31.7166 42.1172 31.0835C42.5067 30.7465 43.2156 30.4246 43.6866 30.0945C44.2778 29.6801 44.4541 29.2589 44.924 28.8555Z" fill="#FEFEFE"/>
<path d="M43.8867 19.2993C44.0985 19.3016 44.4035 19.3198 44.6108 19.2938C44.6757 19.2856 44.6945 19.2074 44.7369 19.1285C45.0608 19.0568 47.4235 19.1401 47.8352 19.168C48.4758 20.2086 48.7709 21.5097 49.3031 22.6054C49.3234 22.6472 49.5005 22.6917 49.5451 22.7028C49.212 22.8935 49.0283 22.7455 48.6831 22.817C48.5304 22.8486 48.5975 23.0251 48.5171 23.0879C48.363 23.2082 48.0878 23.2301 47.9311 23.3424C47.8813 23.3783 47.8879 23.4636 47.8772 23.5417L47.8152 23.5871C47.55 23.6036 47.5098 23.5517 47.4792 23.802C47.3453 23.9228 47.1362 23.8815 46.985 23.9803C46.888 24.0437 46.961 24.1788 46.8091 24.2189C46.5697 24.282 45.8855 24.5805 45.6775 24.5183C45.4916 24.2732 45.4359 23.7054 45.3359 23.3645L45.323 23.3219C44.2718 22.3773 44.2714 21.5561 43.5253 20.6879C43.1207 20.5918 43.2922 20.167 43.1395 19.8123C43.048 19.761 43.0019 19.7454 42.9414 19.6585C42.9539 19.5636 42.9314 19.6031 42.9989 19.5328C43.1793 19.4795 43.4139 19.4983 43.6079 19.5006L43.8867 19.2993Z" fill="#FEFEFE"/>
<path d="M39.2246 19.3635C40.5826 19.5963 41.0898 19.715 42.4755 19.7143C42.4563 19.9873 42.4386 19.9927 42.564 20.2205C42.6927 20.4537 42.7713 20.6605 42.9354 20.8904L42.9494 21.1642C43.0822 21.2107 43.2379 21.2471 43.3308 21.3458C43.3393 21.544 43.3242 21.5299 43.4422 21.6814C43.6997 21.7847 43.6189 21.9908 43.7435 22.2237C43.8704 22.4614 44.1954 22.7192 44.1862 22.9911L44.1297 23.0656C43.9597 23.0003 44.0903 22.9659 44.0021 22.9109C43.3179 22.4852 42.554 22.3415 41.8134 22.0513C41.5862 21.9623 41.3686 21.9853 41.1654 21.8443C40.8482 21.6242 40.0987 21.6713 39.727 21.4365C39.5524 21.2226 39.6653 20.4245 39.5794 20.1275C39.4946 19.8343 39.3222 19.634 39.2246 19.3635Z" fill="#FEFEFE"/>
<path d="M42.6928 10.5725C43.2029 10.6386 42.7783 11.4698 42.9314 11.782C43.1361 12.1988 43.5459 11.593 43.6942 11.5421L43.7451 11.5971C43.8251 11.937 43.7465 12.4731 43.7089 12.8328C43.5035 12.8599 42.8879 13.0591 42.6149 13.0877C42.5083 13.0915 42.581 13.2412 42.4796 13.2469C42.058 13.2707 41.854 13.1689 41.5601 13.565C41.5328 13.6019 41.2233 13.5811 41.1776 13.6046C40.8246 13.7851 40.5078 13.8011 40.1895 14.0513C40.0854 13.9734 39.9892 13.8806 39.893 13.7924C39.6604 13.5341 39.6422 13.4407 39.3409 13.1711C39.1561 12.9613 38.7175 12.7742 38.5676 12.5773C38.376 12.3255 38.9514 11.8216 39.2291 11.9464C39.2315 11.9552 39.2568 12.0672 39.2642 12.0756C39.4946 12.338 40.1644 12.4291 40.4823 12.3004C40.5096 12.2895 40.4875 12.1377 40.5823 12.1285C40.7143 12.1157 40.8537 12.1628 40.9629 12.0917C41.0522 12.0293 41.144 11.8248 41.2344 11.7806C41.3594 11.7192 41.4177 11.8068 41.5796 11.7112L41.5933 11.5816C41.6932 11.428 42.1354 11.2593 42.3162 11.2016C42.3826 10.6044 42.474 11.0185 42.6928 10.5725Z" fill="#FEFEFE"/>
<path d="M63.0426 27.4693C63.2698 27.4602 63.7747 27.4139 63.9477 27.5218C63.9554 27.8721 62.9017 28.2118 62.7224 28.4254C62.0666 29.2083 61.4625 29.8607 60.5518 30.3575C60.3039 30.4926 60.3095 30.6348 59.9377 30.7576C59.6917 30.8332 59.3121 31.0176 59.1056 30.8331C59.0289 30.6923 59.0536 30.5591 59.0584 30.3932C60.3014 29.5713 60.1228 29.451 60.305 28.1275C60.914 27.8274 62.3451 27.5362 63.0426 27.4693Z" fill="#C15300"/>
<path d="M53.8164 30.287C55.3364 30.1595 56.7409 30.0501 58.1764 29.4159C58.6707 29.1976 59.2571 28.6774 59.6426 28.5125C59.6972 28.5792 59.7204 28.615 59.6972 28.7108C59.3999 29.941 58.2605 30.2162 57.233 30.6201C56.9342 30.7374 56.4532 30.7925 56.2127 30.9988L56.2212 31.0524C56.7738 31.2397 57.9518 30.9559 58.501 30.7488C58.5084 30.9236 58.5198 31.0966 58.5106 31.2712C57.729 31.411 56.9482 31.5076 56.174 31.6961C55.9951 31.7396 55.7377 31.8008 55.5573 31.8243C54.8812 31.2568 54.8392 31.0006 54.3287 30.2875L53.8164 30.287Z" fill="#C15300"/>
<path d="M49.6885 23.2989C50.103 23.2516 50.7706 23.2959 51.1022 23.0354C51.2328 22.9329 53.5771 22.865 53.9224 22.8489C54.2031 23.0659 54.0293 23.129 54.22 23.2671L54.2123 23.4291C53.8457 23.6868 52.1247 23.8208 51.6035 23.9839C51.4449 24.0335 51.4169 23.9748 51.4563 24.1617C51.3198 24.2845 50.6445 24.3877 50.4409 24.475C50.2639 24.5507 50.1208 24.6301 49.9522 24.7231C49.8135 24.4706 49.7283 24.056 49.6719 23.7733C49.7353 23.6662 49.6977 23.4365 49.6885 23.2989Z" fill="#C15300"/>
<path d="M47.4216 24.3912C47.6366 24.3024 47.8535 24.2413 48.0814 24.2089C48.3982 24.1636 48.3396 23.959 48.5384 23.6875C48.6225 23.5724 48.8066 23.5843 48.9681 23.568C49.3484 23.2851 49.5959 23.1893 49.6711 23.7732C49.7275 24.0559 49.8127 24.4704 49.9514 24.723C49.9404 24.7926 49.9511 24.7557 49.9131 24.8315C49.5188 24.8326 49.1688 24.864 48.7844 24.9289C48.4285 24.9892 47.045 25.2441 46.7886 25.0052C46.7388 24.843 46.7285 24.9129 46.7805 24.7845C46.8827 24.7271 46.9432 24.7398 47.0619 24.7401L47.1099 24.7406C47.2217 24.6644 47.3341 24.5025 47.4216 24.3912Z" fill="#FEFEFE"/>
<path d="M60.8515 25.977C61.0253 25.9705 61.0437 25.9607 61.1864 26.0452L61.1411 26.0528C61.6785 26.1829 62.0871 26.285 62.6511 26.2788C62.7282 26.2779 62.7385 26.3548 62.778 26.4314C63.0177 26.5892 63.4806 26.6392 63.7779 26.688C63.869 26.8328 63.9771 26.9344 63.9037 27.0962C63.7373 27.1773 63.5245 27.0967 63.3441 27.0499C62.7038 26.988 61.8356 27.0962 61.1864 27.184C60.8939 27.2235 60.6527 27.4462 60.4381 27.3856C60.3514 27.2581 60.5251 27.2682 60.5554 27.181C60.6756 26.8384 60.7988 26.3207 60.8515 25.977Z" fill="#C15300"/>
<path d="M41.6875 29.1901C42.0431 29.0474 42.7959 29.0177 43.2444 28.8579C43.5081 28.7639 44.231 28.3689 44.3631 28.3486C44.643 28.7666 43.1481 29.7986 42.8475 30C42.579 30.1797 42.257 30.3222 41.9947 30.5106C41.9619 29.9875 42.1412 29.5277 41.6875 29.1901Z" fill="#FEFEFE"/>
<path d="M57.123 22.5469C57.2676 22.4343 58.4796 22.4611 58.7297 22.4661C58.9503 22.4705 59.4357 22.786 59.6474 22.9143L59.6706 23.4611C59.1572 23.4213 58.9971 23.2507 58.5136 23.1224C58.4129 23.0957 58.0758 23.095 57.9515 23.0938C57.7132 22.8796 57.7073 22.8844 57.3893 22.9154C57.2997 22.7823 57.2212 22.6741 57.123 22.5469Z" fill="#C15300"/>
<path d="M37.9077 24.9503C38.0753 24.9402 38.2995 24.9116 38.4549 24.9525C38.6941 25.2137 38.9189 25.158 39.0102 25.4227C38.9974 25.644 38.7729 25.8189 38.6121 25.9791L38.6005 26.0024L38.5384 26.0219C38.2608 25.964 37.2778 25.6863 37.689 25.1748C37.7286 25.1255 37.7713 25.1485 37.8395 25.1529C37.9202 25.0785 37.8941 25.093 37.9077 24.9503Z" fill="#FEFEFE"/>
<path d="M54.3258 22.8384C54.7495 22.6787 55.3633 22.7287 55.8623 22.6865C55.9239 22.8021 55.959 22.9046 56.0674 22.9692L56.1379 22.9736C55.7565 23.071 55.4953 23.146 55.1003 23.1412C54.7617 23.2817 54.5806 23.2635 54.2195 23.2669C54.0288 23.1288 54.2026 23.0656 53.9219 22.8486L54.3258 22.8384Z" fill="#C15300"/>
<path d="M53.9219 22.8488L54.3258 22.8386C54.6326 22.8735 54.9768 22.8153 55.1003 23.1414C54.7617 23.2819 54.5806 23.2637 54.2195 23.267C54.0288 23.1289 54.2026 23.0658 53.9219 22.8488Z" fill="#CB723B"/>
<path d="M56.5579 27.7769C56.6442 27.7905 56.6129 27.7788 56.6845 27.8351C56.7615 28.1102 56.8892 28.2023 56.9766 28.4816C56.8453 28.5967 56.7486 28.6034 56.5863 28.75C56.4654 28.751 56.4336 28.7528 56.3112 28.7339C56.209 28.6676 56.2068 28.6647 56.1511 28.5551L55.998 28.2608C56.2024 28.0447 56.3223 27.9512 56.5579 27.7769Z" fill="#FEFEFE"/>
<path d="M41.0191 26.9631C41.3282 26.9693 41.3618 26.988 41.6148 27.1704L41.61 27.7948C40.9752 27.7783 40.9782 27.5068 41.0191 26.9631Z" fill="#FEFEFE"/>
<path d="M57.1229 22.5469C57.221 22.674 57.2995 22.7822 57.3892 22.9154C56.9455 22.9207 56.5814 22.9396 56.1388 22.9735L56.0684 22.9692C55.9599 22.9046 55.9249 22.802 55.8633 22.6865C56.1816 22.6389 56.9303 22.6925 57.1229 22.5469Z" fill="#CB723B"/>
<path d="M54.4785 25.939C55.0251 25.9512 55.0908 26.0038 55.0934 26.541C54.6674 26.529 54.4907 26.3777 54.4785 25.939Z" fill="#FEFEFE"/>
<path d="M38.1506 27.339C38.3422 27.3348 38.3862 27.3233 38.5234 27.4273C38.598 27.5802 38.5701 27.7728 38.5645 27.9512L38.1406 27.9703L38.1506 27.339Z" fill="#FEFEFE"/>
<path d="M13.2246 27.5901L13.2733 27.5818C13.5793 27.5272 13.5578 27.5117 13.7529 27.2618L13.8006 27.2576C13.8387 27.3793 13.837 27.3702 13.8108 27.4955C13.6218 27.6527 13.4435 27.7101 13.2996 27.8563C13.2564 27.7663 13.2469 27.6886 13.2246 27.5901Z" fill="#CB723B"/>
</g>
<path d="M80.1334 29.921C79.2787 29.921 78.6319 29.8055 78.193 29.5745C77.7772 29.3435 77.5 29.0778 77.3614 28.7775C77.2228 28.4772 77.1535 28.2116 77.1535 27.9806C77.1535 27.7496 77.1535 27.6341 77.1535 27.6341L76.7377 12.5959C76.7377 12.5959 76.7261 12.4804 76.703 12.2494C76.6799 12.0184 76.7261 11.7527 76.8416 11.4524C76.9571 11.129 77.1997 10.8518 77.5693 10.6208C77.9389 10.3667 78.5164 10.2397 79.3018 10.2397C80.3413 10.2166 81.1267 10.3667 81.658 10.6901C82.1893 10.9904 82.5358 11.3023 82.6975 11.6257C82.8823 11.926 82.9747 12.0761 82.9747 12.0761L86.9595 19.318C86.9595 19.318 87.0519 19.1101 87.2367 18.6943C87.4446 18.2554 87.6871 17.7126 87.9643 17.0658C88.2646 16.419 88.5649 15.7606 88.8652 15.0907C89.1656 14.4208 89.4312 13.8433 89.6622 13.3582C89.8932 12.85 90.0434 12.5266 90.1127 12.388C90.2282 12.157 90.4361 11.8451 90.7364 11.4524C91.0367 11.0366 91.464 10.6555 92.0184 10.309C92.5959 9.96248 93.3467 9.77768 94.2707 9.75458C94.9637 9.73148 95.495 9.81233 95.8646 9.99713C96.2342 10.1588 96.4883 10.3552 96.6269 10.5862C96.7886 10.8172 96.881 11.0251 96.9041 11.2099C96.9272 11.3947 96.9387 11.4871 96.9387 11.4871C96.9387 11.4871 96.9387 11.7874 96.9387 12.388C96.9387 12.9655 96.9387 13.7394 96.9387 14.7096C96.9618 15.6798 96.9734 16.7424 96.9734 17.8974C96.9734 19.0524 96.9734 20.2189 96.9734 21.397C96.9734 22.552 96.9734 23.6146 96.9734 24.5848C96.9965 25.5551 97.008 26.3405 97.008 26.9411C97.008 27.5417 97.008 27.8535 97.008 27.8766C97.008 27.8997 96.9965 28.0152 96.9734 28.2231C96.9734 28.431 96.8925 28.6736 96.7308 28.9508C96.5691 29.2049 96.2804 29.4359 95.8646 29.6438C95.4719 29.8286 94.8828 29.921 94.0974 29.921C93.312 29.921 92.7114 29.8401 92.2956 29.6784C91.9029 29.4936 91.6257 29.2973 91.464 29.0894C91.3023 28.8584 91.2099 28.662 91.1868 28.5003C91.1637 28.3386 91.1522 28.2578 91.1522 28.2578C91.1522 28.2578 91.1522 28.0614 91.1522 27.6687C91.1522 27.2529 91.1522 26.7447 91.1522 26.1441C91.1753 25.5204 91.1868 24.9083 91.1868 24.3076C91.2099 23.6839 91.2215 23.1642 91.2215 22.7484C91.2215 22.3326 91.2215 22.1247 91.2215 22.1247L91.4987 17.1697L89.6969 21.0159C89.6969 21.0159 89.6276 21.1429 89.489 21.397C89.3735 21.6511 89.1425 21.9052 88.7959 22.1593C88.4494 22.4134 87.9297 22.552 87.2367 22.5751C86.5668 22.5982 86.0355 22.5058 85.6428 22.2979C85.2732 22.0669 85.0075 21.8475 84.8458 21.6396C84.7072 21.4086 84.6379 21.2931 84.6379 21.2931L82.3857 17.1697C82.3857 17.1697 82.3972 17.4469 82.4203 18.0013C82.4665 18.5326 82.5127 19.2372 82.5589 20.115C82.6051 20.9697 82.6513 21.8821 82.6975 22.8523C82.7437 23.7994 82.7784 24.7004 82.8015 25.5551C82.8477 26.3867 82.8823 27.0566 82.9054 27.5648C82.9285 28.1885 82.8015 28.6736 82.5243 29.0201C82.2471 29.3435 81.9237 29.5745 81.5541 29.7131C81.1845 29.8286 80.8495 29.8979 80.5492 29.921C80.272 29.921 80.1334 29.921 80.1334 29.921Z" fill="white"/>
<path d="M101.712 9.89318C101.712 9.89318 101.862 9.91628 102.162 9.96248C102.462 9.98558 102.797 10.0895 103.167 10.2743C103.56 10.436 103.894 10.7363 104.172 11.1752C104.449 11.591 104.564 12.2032 104.518 13.0117C104.495 13.543 104.46 14.2591 104.414 15.16C104.391 16.0378 104.38 17.008 104.38 18.0706C104.38 19.1101 104.403 20.1496 104.449 21.1891C104.518 22.2286 104.622 23.1873 104.761 24.0651C104.922 24.9429 105.13 25.6475 105.384 26.1788C105.662 26.687 105.997 26.9295 106.389 26.9064C106.805 26.8833 107.117 26.6061 107.325 26.0748C107.533 25.5204 107.671 24.8274 107.741 23.9958C107.81 23.1411 107.833 22.2402 107.81 21.2931C107.787 20.346 107.741 19.4451 107.671 18.5904C107.602 17.7126 107.533 16.9965 107.463 16.4421C107.417 15.8646 107.383 15.5412 107.359 15.4719C107.336 15.3795 107.302 15.1831 107.256 14.8828C107.209 14.5825 107.232 14.2591 107.325 13.9126C107.417 13.5661 107.648 13.2542 108.018 12.977C108.411 12.6998 109.023 12.5266 109.854 12.4573C110.686 12.388 111.333 12.4919 111.795 12.7691C112.257 13.0463 112.58 13.3813 112.765 13.774C112.973 14.1667 113.088 14.5132 113.111 14.8135C113.158 15.1138 113.181 15.264 113.181 15.264C113.181 15.264 113.215 15.5296 113.285 16.0609C113.377 16.5922 113.446 17.2968 113.493 18.1746C113.562 19.0293 113.562 19.9764 113.493 21.0159C113.446 22.0554 113.296 23.1064 113.042 24.169C112.811 25.2086 112.43 26.1672 111.899 27.045C111.367 27.8997 110.651 28.5927 109.75 29.124C108.849 29.6553 107.718 29.921 106.355 29.921C104.992 29.921 103.837 29.6438 102.89 29.0894C101.966 28.5119 101.203 27.7611 100.603 26.8371C100.025 25.89 99.5748 24.839 99.2514 23.6839C98.9511 22.5289 98.7432 21.3508 98.6277 20.1496C98.5353 18.9253 98.4891 17.7703 98.4891 16.6846C98.5122 15.5989 98.5468 14.6518 98.593 13.8433C98.6623 13.0348 98.7085 12.4573 98.7316 12.1108C98.7778 11.5102 98.9511 11.0597 99.2514 10.7594C99.5517 10.436 99.8866 10.2166 100.256 10.1011C100.649 9.98558 100.984 9.92783 101.261 9.92783C101.561 9.90473 101.712 9.89318 101.712 9.89318Z" fill="white"/>
<path d="M118.37 29.921C117.516 29.921 116.869 29.8055 116.43 29.5745C116.014 29.3435 115.737 29.0778 115.598 28.7775C115.46 28.4772 115.39 28.2116 115.39 27.9806C115.39 27.7496 115.39 27.6341 115.39 27.6341L114.975 12.5959C114.975 12.5959 114.963 12.4804 114.94 12.2494C114.917 12.0184 114.963 11.7527 115.079 11.4524C115.194 11.129 115.437 10.8518 115.806 10.6208C116.176 10.3667 116.753 10.2397 117.539 10.2397C118.578 10.2166 119.364 10.3667 119.895 10.6901C120.426 10.9904 120.773 11.3023 120.935 11.6257C121.119 11.926 121.212 12.0761 121.212 12.0761L125.196 19.318C125.196 19.318 125.289 19.1101 125.474 18.6943C125.682 18.2554 125.924 17.7126 126.201 17.0658C126.502 16.419 126.802 15.7606 127.102 15.0907C127.403 14.4208 127.668 13.8433 127.899 13.3582C128.13 12.85 128.28 12.5266 128.35 12.388C128.465 12.157 128.673 11.8451 128.973 11.4524C129.274 11.0366 129.701 10.6555 130.255 10.309C130.833 9.96248 131.584 9.77768 132.508 9.75458C133.201 9.73148 133.732 9.81233 134.102 9.99713C134.471 10.1588 134.725 10.3552 134.864 10.5862C135.026 10.8172 135.118 11.0251 135.141 11.2099C135.164 11.3947 135.176 11.4871 135.176 11.4871C135.176 11.4871 135.176 11.7874 135.176 12.388C135.176 12.9655 135.176 13.7394 135.176 14.7096C135.199 15.6798 135.21 16.7424 135.21 17.8974C135.21 19.0524 135.21 20.2189 135.21 21.397C135.21 22.552 135.21 23.6146 135.21 24.5848C135.233 25.5551 135.245 26.3405 135.245 26.9411C135.245 27.5417 135.245 27.8535 135.245 27.8766C135.245 27.8997 135.233 28.0152 135.21 28.2231C135.21 28.431 135.13 28.6736 134.968 28.9508C134.806 29.2049 134.517 29.4359 134.102 29.6438C133.709 29.8286 133.12 29.921 132.334 29.921C131.549 29.921 130.948 29.8401 130.533 29.6784C130.14 29.4936 129.863 29.2973 129.701 29.0894C129.539 28.8584 129.447 28.662 129.424 28.5003C129.401 28.3386 129.389 28.2578 129.389 28.2578C129.389 28.2578 129.389 28.0614 129.389 27.6687C129.389 27.2529 129.389 26.7447 129.389 26.1441C129.412 25.5204 129.424 24.9083 129.424 24.3076C129.447 23.6839 129.458 23.1642 129.458 22.7484C129.458 22.3326 129.458 22.1247 129.458 22.1247L129.736 17.1697L127.934 21.0159C127.934 21.0159 127.865 21.1429 127.726 21.397C127.61 21.6511 127.379 21.9052 127.033 22.1593C126.686 22.4134 126.167 22.552 125.474 22.5751C124.804 22.5982 124.272 22.5058 123.88 22.2979C123.51 22.0669 123.245 21.8475 123.083 21.6396C122.944 21.4086 122.875 21.2931 122.875 21.2931L120.623 17.1697C120.623 17.1697 120.634 17.4469 120.657 18.0013C120.704 18.5326 120.75 19.2372 120.796 20.115C120.842 20.9697 120.888 21.8821 120.935 22.8523C120.981 23.7994 121.015 24.7004 121.038 25.5551C121.085 26.3867 121.119 27.0566 121.142 27.5648C121.166 28.1885 121.038 28.6736 120.761 29.0201C120.484 29.3435 120.161 29.5745 119.791 29.7131C119.421 29.8286 119.086 29.8979 118.786 29.921C118.509 29.921 118.37 29.921 118.37 29.921Z" fill="white"/>
<path d="M139.949 9.89318C139.949 9.89318 140.099 9.91628 140.399 9.96248C140.699 9.98558 141.034 10.0895 141.404 10.2743C141.797 10.436 142.131 10.7363 142.409 11.1752C142.686 11.591 142.801 12.2032 142.755 13.0117C142.732 13.543 142.697 14.2591 142.651 15.16C142.628 16.0378 142.617 17.008 142.617 18.0706C142.617 19.1101 142.64 20.1496 142.686 21.1891C142.755 22.2286 142.859 23.1873 142.998 24.0651C143.159 24.9429 143.367 25.6475 143.621 26.1788C143.899 26.687 144.234 26.9295 144.626 26.9064C145.042 26.8833 145.354 26.6061 145.562 26.0748C145.77 25.5204 145.908 24.8274 145.978 23.9958C146.047 23.1411 146.07 22.2402 146.047 21.2931C146.024 20.346 145.978 19.4451 145.908 18.5904C145.839 17.7126 145.77 16.9965 145.7 16.4421C145.654 15.8646 145.62 15.5412 145.596 15.4719C145.573 15.3795 145.539 15.1831 145.493 14.8828C145.446 14.5825 145.469 14.2591 145.562 13.9126C145.654 13.5661 145.885 13.2542 146.255 12.977C146.648 12.6998 147.26 12.5266 148.091 12.4573C148.923 12.388 149.57 12.4919 150.032 12.7691C150.494 13.0463 150.817 13.3813 151.002 13.774C151.21 14.1667 151.325 14.5132 151.348 14.8135C151.395 15.1138 151.418 15.264 151.418 15.264C151.418 15.264 151.452 15.5296 151.522 16.0609C151.614 16.5922 151.683 17.2968 151.73 18.1746C151.799 19.0293 151.799 19.9764 151.73 21.0159C151.683 22.0554 151.533 23.1064 151.279 24.169C151.048 25.2086 150.667 26.1672 150.136 27.045C149.604 27.8997 148.888 28.5927 147.987 29.124C147.086 29.6553 145.955 29.921 144.592 29.921C143.229 29.921 142.074 29.6438 141.127 29.0894C140.203 28.5119 139.44 27.7611 138.84 26.8371C138.262 25.89 137.812 24.839 137.488 23.6839C137.188 22.5289 136.98 21.3508 136.865 20.1496C136.772 18.9253 136.726 17.7703 136.726 16.6846C136.749 15.5989 136.784 14.6518 136.83 13.8433C136.899 13.0348 136.945 12.4573 136.969 12.1108C137.015 11.5102 137.188 11.0597 137.488 10.7594C137.789 10.436 138.124 10.2166 138.493 10.1011C138.886 9.98558 139.221 9.92783 139.498 9.92783C139.798 9.90473 139.949 9.89318 139.949 9.89318Z" fill="white"/>
<path d="M79.4539 37.1191C79.2937 37.1437 79.0656 37.1622 78.7698 37.1745C78.4739 37.1745 78.1719 37.156 77.8637 37.1191C77.5555 37.0821 77.2905 37.0143 77.0686 36.9157C76.8467 36.8047 76.7235 36.6445 76.6988 36.4349C76.6865 36.2253 76.7481 36.0589 76.8837 35.9356C77.0316 35.8124 77.2042 35.7199 77.4015 35.6583C77.5987 35.5843 77.7713 35.5412 77.9192 35.5288C78.0795 35.5042 78.1596 35.4919 78.1596 35.4919L83.337 35.0111C83.337 35.0111 83.4233 35.0111 83.5959 35.0111C83.7685 34.9988 83.9657 35.0049 84.1876 35.0296C84.4218 35.0543 84.6314 35.1159 84.8163 35.2145C85.0012 35.3008 85.0998 35.4426 85.1121 35.6398C85.1368 35.837 85.0752 36.0034 84.9272 36.139C84.7916 36.2623 84.6252 36.3671 84.428 36.4534C84.2307 36.5274 84.0582 36.5828 83.9102 36.6198C83.7623 36.6445 83.6883 36.6568 83.6883 36.6568L82.5049 36.8417C82.5542 37.1499 82.6097 37.5875 82.6714 38.1546C82.733 38.7093 82.7946 39.3256 82.8563 40.0036C82.9179 40.6816 82.9734 41.3473 83.0227 42.0007C83.072 42.654 83.109 43.2395 83.1336 43.7573C83.1706 44.275 83.1891 44.6448 83.1891 44.8667C83.1891 45.1503 83.109 45.366 82.9487 45.5139C82.8008 45.6495 82.622 45.7481 82.4125 45.8098C82.2152 45.8591 82.0365 45.8899 81.8762 45.9022C81.7283 45.9022 81.6544 45.9022 81.6544 45.9022C81.6544 45.9022 81.5742 45.9022 81.414 45.9022C81.2537 45.8899 81.0688 45.8406 80.8592 45.7543C80.662 45.668 80.4833 45.5077 80.323 45.2735C80.1751 45.0393 80.1011 44.688 80.1011 44.2196C80.1011 43.8004 80.0765 43.2888 80.0272 42.6848C79.9902 42.0808 79.9409 41.4583 79.8792 40.8172C79.8176 40.1639 79.7498 39.5599 79.6758 39.0051C79.6142 38.4504 79.5587 38.0005 79.5094 37.6553C79.4724 37.2978 79.4539 37.1191 79.4539 37.1191Z" fill="white"/>
<path d="M86.3726 44.8852L86.0212 36.1575C86.0212 36.1575 86.0212 36.1082 86.0212 36.0096C86.0336 35.911 86.0767 35.8 86.1507 35.6768C86.2246 35.5412 86.3602 35.4241 86.5575 35.3255C86.767 35.2145 87.069 35.1529 87.4635 35.1405C87.9936 35.1159 88.3696 35.1775 88.5915 35.3255C88.8257 35.4611 88.9674 35.609 89.0167 35.7692C89.0784 35.9172 89.1092 35.9973 89.1092 36.0096C89.1092 36.0219 89.1154 36.1637 89.1277 36.4349C89.14 36.7061 89.1523 37.0389 89.1647 37.4334C89.177 37.8279 89.1893 38.2224 89.2017 38.6168C89.214 39.0113 89.2263 39.3441 89.2386 39.6153C89.251 39.8742 89.2571 40.0036 89.2571 40.0036L91.2172 39.8927L90.9213 36.176C90.9213 36.176 90.9151 36.1329 90.9028 36.0466C90.9028 35.948 90.9275 35.837 90.9768 35.7138C91.0384 35.5782 91.1617 35.4549 91.3466 35.3439C91.5438 35.2207 91.8335 35.1405 92.2157 35.1036C92.6101 35.0666 92.9122 35.0912 93.1217 35.1775C93.3313 35.2515 93.4854 35.3501 93.584 35.4734C93.6826 35.5966 93.7381 35.7076 93.7504 35.8062C93.7751 35.9048 93.7874 35.9541 93.7874 35.9541L94.3606 44.5894C94.3606 44.5894 94.3668 44.6572 94.3791 44.7928C94.3914 44.916 94.3729 45.0701 94.3236 45.255C94.2743 45.4276 94.151 45.5817 93.9538 45.7173C93.7689 45.8406 93.4792 45.9022 93.0847 45.9022C92.6903 45.9022 92.3821 45.8467 92.1602 45.7358C91.9383 45.6249 91.7781 45.5016 91.6794 45.366C91.5808 45.2181 91.5192 45.0886 91.4945 44.9777C91.4699 44.8667 91.4575 44.8113 91.4575 44.8113L91.3281 41.261L89.3126 41.372L89.479 44.9962C89.479 44.9962 89.4729 45.0455 89.4605 45.1441C89.4482 45.2304 89.3989 45.3352 89.3126 45.4584C89.2263 45.5694 89.0784 45.6742 88.8688 45.7728C88.6593 45.8591 88.3511 45.9022 87.9443 45.9022C87.5375 45.9022 87.2231 45.8529 87.0012 45.7543C86.7917 45.6433 86.6438 45.5262 86.5575 45.403C86.4712 45.2674 86.4157 45.1503 86.391 45.0516C86.3787 44.9407 86.3726 44.8852 86.3726 44.8852Z" fill="white"/>
<path d="M95.1936 36.5274C95.1936 36.5274 95.1812 36.478 95.1566 36.3794C95.1319 36.2685 95.1381 36.139 95.1751 35.9911C95.2244 35.8432 95.3353 35.7076 95.5079 35.5843C95.6928 35.4611 95.9825 35.3809 96.377 35.3439C96.7714 35.307 97.2152 35.2761 97.7083 35.2515C98.2137 35.2268 98.6945 35.2022 99.1506 35.1775C99.619 35.1529 100.001 35.1344 100.297 35.1221C100.593 35.1097 100.741 35.1036 100.741 35.1036C100.741 35.1036 100.821 35.1097 100.981 35.1221C101.154 35.1221 101.351 35.1467 101.573 35.196C101.807 35.233 102.017 35.3131 102.202 35.4364C102.387 35.5473 102.497 35.7138 102.534 35.9356C102.571 36.1575 102.528 36.3301 102.405 36.4534C102.282 36.5767 102.134 36.6691 101.961 36.7308C101.789 36.7801 101.635 36.8109 101.499 36.8232C101.363 36.8355 101.296 36.8417 101.296 36.8417L98.337 37.0081C98.337 37.0081 98.3555 37.0882 98.3925 37.2485C98.4295 37.4088 98.4664 37.5937 98.5034 37.8032C98.5527 38.0005 98.5836 38.173 98.5959 38.321C98.6082 38.4566 98.6205 38.6353 98.6329 38.8572C98.6452 39.0668 98.6575 39.2578 98.6698 39.4304C98.6822 39.5907 98.6883 39.6708 98.6883 39.6708H100.057C100.057 39.6708 100.124 39.677 100.26 39.6893C100.396 39.6893 100.55 39.7139 100.722 39.7633C100.907 39.8002 101.067 39.8619 101.203 39.9482C101.339 40.0345 101.413 40.1639 101.425 40.3365C101.437 40.5584 101.351 40.7248 101.166 40.8357C100.994 40.9467 100.809 41.0206 100.611 41.0576C100.426 41.0823 100.309 41.1008 100.26 41.1131C100.223 41.1131 100.124 41.1193 99.9642 41.1316C99.8039 41.1316 99.6252 41.1316 99.428 41.1316C99.2431 41.1316 99.0766 41.1316 98.9287 41.1316C98.7808 41.1316 98.7068 41.1316 98.7068 41.1316C98.7068 41.1316 98.7068 41.224 98.7068 41.4089C98.7192 41.5815 98.7315 41.7849 98.7438 42.0191C98.7561 42.2534 98.7561 42.4568 98.7438 42.6293C98.7438 42.7896 98.7376 42.9868 98.7253 43.221C98.713 43.4429 98.7007 43.6402 98.6883 43.8128C98.676 43.973 98.6698 44.0531 98.6698 44.0531L101.166 43.9607C101.166 43.9607 101.246 43.9607 101.406 43.9607C101.567 43.9484 101.758 43.9607 101.98 43.9977C102.202 44.0346 102.399 44.1086 102.571 44.2196C102.744 44.3305 102.836 44.4969 102.849 44.7188C102.873 44.9407 102.812 45.1194 102.664 45.255C102.516 45.3906 102.343 45.4893 102.146 45.5509C101.949 45.6125 101.77 45.6557 101.61 45.6803C101.462 45.6927 101.388 45.6988 101.388 45.6988L97.394 45.9022C97.394 45.9022 97.2954 45.9022 97.0981 45.9022C96.9132 45.9145 96.6975 45.9022 96.4509 45.8652C96.2044 45.8159 95.9887 45.7235 95.8038 45.5879C95.6189 45.4399 95.5326 45.2181 95.5449 44.9222C95.5695 44.5277 95.5942 43.9114 95.6188 43.0731C95.6435 42.2225 95.6312 41.2302 95.5819 40.0961C95.5326 38.962 95.4031 37.7724 95.1936 36.5274Z" fill="white"/>
<path d="M109.095 44.9037C109.095 44.9037 109.083 44.7311 109.058 44.386C109.046 44.0408 109.021 43.597 108.984 43.0546C108.959 42.5122 108.929 41.9328 108.892 41.3165C108.855 40.6878 108.818 40.0899 108.781 39.5229C108.756 38.9435 108.737 38.4627 108.725 38.0806C108.713 37.6861 108.707 37.4519 108.707 37.3779C108.731 37.1684 108.75 37.002 108.762 36.8787C108.787 36.7431 108.848 36.6506 108.947 36.6013C109.021 36.5643 109.039 36.515 109.002 36.4534C108.978 36.3918 108.972 36.3116 108.984 36.213C109.009 36.1144 109.132 36.0096 109.354 35.8987C109.526 35.8124 109.798 35.6891 110.167 35.5288C110.55 35.3563 111.006 35.2207 111.536 35.1221C112.066 35.0234 112.633 35.0358 113.237 35.159C113.841 35.27 114.451 35.5597 115.067 36.0281C115.487 36.3486 115.739 36.6814 115.826 37.0266C115.924 37.3594 115.924 37.6861 115.826 38.0066C115.727 38.3148 115.585 38.5983 115.4 38.8572C115.215 39.1037 115.043 39.301 114.883 39.4489C114.735 39.5968 114.661 39.6708 114.661 39.6708C114.661 39.6708 114.747 39.7016 114.92 39.7633C115.092 39.8249 115.302 39.9235 115.548 40.0591C115.807 40.1947 116.066 40.3796 116.325 40.6138C116.584 40.8357 116.799 41.1131 116.972 41.4459C117.157 41.7788 117.256 42.1671 117.268 42.6108C117.293 43.3628 117.058 43.9792 116.565 44.4599C116.084 44.9407 115.413 45.3043 114.55 45.5509C113.699 45.7851 112.719 45.9022 111.61 45.9022C110.969 45.9022 110.476 45.8529 110.13 45.7543C109.785 45.6557 109.539 45.5386 109.391 45.403C109.243 45.2674 109.157 45.1503 109.132 45.0516C109.107 44.953 109.095 44.9037 109.095 44.9037ZM111.554 36.9342C111.554 36.9342 111.554 37.0328 111.554 37.23C111.567 37.4149 111.573 37.6368 111.573 37.8957C111.585 38.1546 111.597 38.3949 111.61 38.6168C111.634 38.8264 111.659 38.9558 111.684 39.0051C111.708 39.0544 111.795 39.0421 111.943 38.9681C112.09 38.8942 112.245 38.7832 112.405 38.6353C112.577 38.4751 112.713 38.2963 112.812 38.0991C112.923 37.8895 112.96 37.6861 112.923 37.4889C112.836 37.0944 112.657 36.8664 112.386 36.8047C112.115 36.7431 111.838 36.7862 111.554 36.9342ZM111.961 41.224L112.09 44.2935C112.09 44.2935 112.177 44.2935 112.349 44.2935C112.522 44.2935 112.731 44.275 112.978 44.238C113.225 44.2011 113.465 44.1209 113.699 43.9977C113.946 43.8744 114.137 43.6956 114.272 43.4614C114.42 43.2149 114.47 42.882 114.42 42.4629C114.371 42.0438 114.254 41.7356 114.069 41.5384C113.896 41.3288 113.687 41.1932 113.44 41.1316C113.206 41.0699 112.972 41.0515 112.738 41.0761C112.516 41.0884 112.331 41.1193 112.183 41.1686C112.035 41.2055 111.961 41.224 111.961 41.224Z" fill="white"/>
<path d="M119.484 35.2145C119.484 35.2145 119.564 35.2268 119.724 35.2515C119.884 35.2638 120.063 35.3193 120.26 35.4179C120.47 35.5042 120.649 35.6645 120.797 35.8987C120.945 36.1206 121.006 36.4472 120.982 36.8787C120.969 37.1622 120.951 37.5444 120.926 38.0251C120.914 38.4936 120.908 39.0113 120.908 39.5783C120.908 40.1331 120.92 40.6878 120.945 41.2425C120.982 41.7973 121.037 42.3088 121.111 42.7773C121.197 43.2457 121.308 43.6217 121.444 43.9052C121.592 44.1764 121.77 44.3058 121.98 44.2935C122.202 44.2812 122.368 44.1333 122.479 43.8497C122.59 43.5539 122.664 43.1841 122.701 42.7403C122.738 42.2842 122.75 41.8034 122.738 41.298C122.726 40.7926 122.701 40.3118 122.664 39.8557C122.627 39.3873 122.59 39.0051 122.553 38.7093C122.529 38.4011 122.51 38.2285 122.498 38.1915C122.485 38.1422 122.467 38.0374 122.442 37.8772C122.418 37.7169 122.43 37.5444 122.479 37.3594C122.529 37.1745 122.652 37.0081 122.849 36.8602C123.059 36.7123 123.385 36.6198 123.829 36.5828C124.273 36.5458 124.618 36.6013 124.865 36.7492C125.111 36.8972 125.284 37.0759 125.382 37.2855C125.493 37.495 125.555 37.68 125.567 37.8402C125.592 38.0005 125.604 38.0806 125.604 38.0806C125.604 38.0806 125.623 38.2224 125.66 38.5059C125.709 38.7894 125.746 39.1654 125.771 39.6338C125.808 40.0899 125.808 40.5953 125.771 41.1501C125.746 41.7048 125.666 42.2657 125.53 42.8327C125.407 43.3875 125.204 43.899 124.92 44.3675C124.637 44.8236 124.254 45.1934 123.774 45.4769C123.293 45.7605 122.689 45.9022 121.962 45.9022C121.234 45.9022 120.618 45.7543 120.112 45.4584C119.619 45.1503 119.213 44.7496 118.892 44.2565C118.584 43.7511 118.343 43.1902 118.171 42.5739C118.011 41.9575 117.9 41.3288 117.838 40.6878C117.789 40.0345 117.764 39.4181 117.764 38.8387C117.776 38.2593 117.795 37.7539 117.82 37.3225C117.857 36.891 117.881 36.5828 117.894 36.3979C117.918 36.0774 118.011 35.837 118.171 35.6768C118.331 35.5042 118.51 35.3871 118.707 35.3255C118.917 35.2638 119.095 35.233 119.243 35.233C119.404 35.2207 119.484 35.2145 119.484 35.2145Z" fill="white"/>
<path d="M130.537 43.3135C130.549 43.3135 130.66 43.3135 130.87 43.3135C131.079 43.3012 131.338 43.295 131.647 43.295C131.955 43.2827 132.257 43.2765 132.553 43.2765C132.861 43.2642 133.12 43.258 133.329 43.258C133.539 43.2457 133.644 43.2395 133.644 43.2395C133.644 43.2395 133.711 43.2395 133.847 43.2395C133.983 43.2395 134.143 43.2642 134.328 43.3135C134.513 43.3505 134.673 43.4368 134.808 43.5724C134.956 43.708 135.037 43.9175 135.049 44.2011C135.061 44.4723 134.981 44.688 134.808 44.8482C134.648 44.9962 134.451 45.1009 134.217 45.1626C133.995 45.2119 133.791 45.2427 133.607 45.255C133.434 45.2674 133.348 45.2735 133.348 45.2735C133.348 45.2735 133.218 45.2859 132.959 45.3105C132.713 45.3228 132.386 45.3537 131.979 45.403C131.573 45.4523 131.129 45.5201 130.648 45.6064C130.167 45.6803 129.705 45.7789 129.261 45.9022C128.817 46.0255 128.448 46.0686 128.152 46.0317C127.868 46.007 127.646 45.9454 127.486 45.8467C127.326 45.7358 127.209 45.6249 127.135 45.5139C127.073 45.3906 127.042 45.3105 127.042 45.2735C127.03 45.1872 127.055 45.0825 127.116 44.9592C127.178 44.8236 127.295 44.7311 127.468 44.6818C127.529 44.6695 127.56 44.4969 127.56 44.1641C127.56 43.8189 127.535 43.3813 127.486 42.8512C127.449 42.3088 127.394 41.7233 127.32 41.0946C127.246 40.4659 127.159 39.8434 127.061 39.227C126.975 38.6107 126.888 38.0621 126.802 37.5813C126.716 37.1006 126.629 36.7431 126.543 36.5089C126.42 36.1514 126.407 35.874 126.506 35.6768C126.605 35.4795 126.74 35.3378 126.913 35.2515C127.098 35.1529 127.264 35.0912 127.412 35.0666C127.572 35.0419 127.653 35.0296 127.653 35.0296C127.653 35.0296 127.733 35.0234 127.893 35.0111C128.065 34.9865 128.263 34.9988 128.485 35.0481C128.719 35.0851 128.935 35.1899 129.132 35.3624C129.341 35.5227 129.489 35.7939 129.576 36.176C129.687 36.6814 129.816 37.2793 129.964 37.9696C130.124 38.6476 130.26 39.4304 130.371 40.318C130.494 41.2055 130.549 42.204 130.537 43.3135Z" fill="white"/>
<path d="M139.548 43.3135C139.56 43.3135 139.671 43.3135 139.881 43.3135C140.09 43.3012 140.349 43.295 140.657 43.295C140.965 43.2827 141.267 43.2765 141.563 43.2765C141.871 43.2642 142.13 43.258 142.34 43.258C142.549 43.2457 142.654 43.2395 142.654 43.2395C142.654 43.2395 142.722 43.2395 142.858 43.2395C142.993 43.2395 143.153 43.2642 143.338 43.3135C143.523 43.3505 143.684 43.4368 143.819 43.5724C143.967 43.708 144.047 43.9175 144.06 44.2011C144.072 44.4723 143.992 44.688 143.819 44.8482C143.659 44.9962 143.462 45.1009 143.227 45.1626C143.006 45.2119 142.802 45.2427 142.617 45.255C142.445 45.2674 142.358 45.2735 142.358 45.2735C142.358 45.2735 142.229 45.2859 141.97 45.3105C141.724 45.3228 141.397 45.3537 140.99 45.403C140.583 45.4523 140.139 45.5201 139.659 45.6064C139.178 45.6803 138.716 45.7789 138.272 45.9022C137.828 46.0255 137.458 46.0686 137.162 46.0317C136.879 46.007 136.657 45.9454 136.497 45.8467C136.337 45.7358 136.219 45.6249 136.145 45.5139C136.084 45.3906 136.053 45.3105 136.053 45.2735C136.041 45.1872 136.065 45.0825 136.127 44.9592C136.189 44.8236 136.306 44.7311 136.478 44.6818C136.54 44.6695 136.571 44.4969 136.571 44.1641C136.571 43.8189 136.546 43.3813 136.497 42.8512C136.46 42.3088 136.404 41.7233 136.33 41.0946C136.256 40.4659 136.17 39.8434 136.071 39.227C135.985 38.6107 135.899 38.0621 135.813 37.5813C135.726 37.1006 135.64 36.7431 135.554 36.5089C135.43 36.1514 135.418 35.874 135.517 35.6768C135.615 35.4795 135.751 35.3378 135.924 35.2515C136.108 35.1529 136.275 35.0912 136.423 35.0666C136.583 35.0419 136.663 35.0296 136.663 35.0296C136.663 35.0296 136.743 35.0234 136.904 35.0111C137.076 34.9865 137.273 34.9988 137.495 35.0481C137.73 35.0851 137.945 35.1899 138.142 35.3624C138.352 35.5227 138.5 35.7939 138.586 36.176C138.697 36.6814 138.827 37.2793 138.975 37.9696C139.135 38.6476 139.27 39.4304 139.381 40.318C139.505 41.2055 139.56 42.204 139.548 43.3135Z" fill="white"/>
<defs>
<clipPath id="clip0_46_1151">
<rect width="56.4323" height="36.2937" fill="white" transform="translate(10.1172 9.75073)"/>
</clipPath>
</defs>
</svg>
