<svg width="32" height="32" viewBox="0 0 32 32" fill="none" xmlns="http://www.w3.org/2000/svg">
<path d="M20.089 10.5067C19.4815 9.81291 19.1467 8.92213 19.1468 8H16.4001V19.0222C16.3794 19.6188 16.1277 20.1841 15.6982 20.5987C15.2687 21.0133 14.6949 21.2448 14.0979 21.2444C12.8357 21.2444 11.7868 20.2133 11.7868 18.9333C11.7868 17.4044 13.2624 16.2578 14.7824 16.7289V13.92C11.7157 13.5111 9.03125 15.8933 9.03125 18.9333C9.03125 21.8933 11.4846 24 14.089 24C16.8801 24 19.1468 21.7333 19.1468 18.9333V13.3422C20.2606 14.1421 21.5978 14.5712 22.969 14.5689V11.8222C22.969 11.8222 21.2979 11.9022 20.089 10.5067Z" fill="white"/>
</svg>
